<svg version="1.1" viewBox="0.0 0.0 600.0 371.0" fill="none" stroke="none" stroke-linecap="square" stroke-miterlimit="10" width="600" height="371" xmlns:xlink="http://www.w3.org/1999/xlink" xmlns="http://www.w3.org/2000/svg"><path fill="#ffffff" d="M0 0L600.0 0L600.0 371.0L0 371.0L0 0Z" fill-rule="nonzero"/><path stroke="#cccccc" stroke-width="1.0" stroke-linecap="butt" d="M182.5 112.5L182.5 300.5" fill-rule="nonzero"/><path stroke="#cccccc" stroke-width="1.0" stroke-linecap="butt" d="M304.5 112.5L304.5 300.5" fill-rule="nonzero"/><path stroke="#cccccc" stroke-width="1.0" stroke-linecap="butt" d="M427.5 112.5L427.5 300.5" fill-rule="nonzero"/><path stroke="#cccccc" stroke-width="1.0" stroke-linecap="butt" d="M550.5 112.5L550.5 300.5" fill-rule="nonzero"/><path stroke="#333333" stroke-width="1.0" stroke-linecap="butt" d="M77.5 300.5L581.5 300.5" fill-rule="nonzero"/><path stroke="#cccccc" stroke-width="1.0" stroke-linecap="butt" d="M77.5 237.5L581.5 237.5" fill-rule="nonzero"/><path stroke="#cccccc" stroke-width="1.0" stroke-linecap="butt" d="M77.5 175.5L581.5 175.5" fill-rule="nonzero"/><path stroke="#cccccc" stroke-width="1.0" stroke-linecap="butt" d="M77.5 112.5L581.5 112.5" fill-rule="nonzero"/><path stroke="#000000" stroke-width="1.0" stroke-linecap="butt" stroke-opacity="0.0" d="M77.5 279.5L581.5 279.5" fill-rule="nonzero"/><path stroke="#000000" stroke-width="1.0" stroke-linecap="butt" stroke-opacity="0.0" d="M77.5 258.5L581.5 258.5" fill-rule="nonzero"/><path stroke="#000000" stroke-width="1.0" stroke-linecap="butt" stroke-opacity="0.0" d="M77.5 216.5L581.5 216.5" fill-rule="nonzero"/><path stroke="#000000" stroke-width="1.0" stroke-linecap="butt" stroke-opacity="0.0" d="M77.5 195.5L581.5 195.5" fill-rule="nonzero"/><path stroke="#000000" stroke-width="1.0" stroke-linecap="butt" stroke-opacity="0.0" d="M77.5 154.5L581.5 154.5" fill-rule="nonzero"/><path stroke="#000000" stroke-width="1.0" stroke-linecap="butt" stroke-opacity="0.0" d="M77.5 133.5L581.5 133.5" fill-rule="nonzero"/><clipPath id="id_0"><path d="M77.55 112.28333L581.45 112.28333L581.45 300.45L77.55 300.45L77.55 112.28333Z" clip-rule="nonzero"/></clipPath><path fill="#5891ad" clip-path="url(#id_0)" d="M88.86077 138.37578C88.86077 140.86105 86.846054 142.87578 84.36077 142.87578C81.875496 142.87578 79.86077 140.86105 79.86077 138.37578C79.86077 135.8905 81.875496 133.87578 84.36077 133.87578C86.846054 133.87578 88.86077 135.8905 88.86077 138.37578Z" fill-rule="nonzero"/><path fill="#5891ad" clip-path="url(#id_0)" d="M113.374695 136.36867C113.374695 138.85394 111.35998 140.86867 108.874695 140.86867C106.38941 140.86867 104.374695 138.85394 104.374695 136.36867C104.374695 133.88339 106.38941 131.86867 108.874695 131.86867C111.35998 131.86867 113.374695 133.88339 113.374695 136.36867Z" fill-rule="nonzero"/><path fill="#5891ad" clip-path="url(#id_0)" d="M137.88863 144.0835C137.88863 146.56879 135.8739 148.5835 133.38863 148.5835C130.90334 148.5835 128.88863 146.56879 128.88863 144.0835C128.88863 141.59822 130.90334 139.5835 133.38863 139.5835C135.8739 139.5835 137.88863 141.59822 137.88863 144.0835Z" fill-rule="nonzero"/><path fill="#5891ad" clip-path="url(#id_0)" d="M162.40254 141.38644C162.40254 143.87172 160.38782 145.88644 157.90254 145.88644C155.41727 145.88644 153.40254 143.87172 153.40254 141.38644C153.40254 138.90117 155.41727 136.88644 157.90254 136.88644C160.38782 136.88644 162.40254 138.90117 162.40254 141.38644Z" fill-rule="nonzero"/><path fill="#5891ad" clip-path="url(#id_0)" d="M186.91646 159.82678C186.91646 162.31206 184.90175 164.32678 182.41646 164.32678C179.93118 164.32678 177.91646 162.31206 177.91646 159.82678C177.91646 157.34149 179.93118 155.32678 182.41646 155.32678C184.90175 155.32678 186.91646 157.34149 186.91646 159.82678Z" fill-rule="nonzero"/><path fill="#5891ad" clip-path="url(#id_0)" d="M211.43039 136.61955C211.43039 139.10484 209.41566 141.11955 206.93039 141.11955C204.4451 141.11955 202.43039 139.10484 202.43039 136.61955C202.43039 134.13428 204.4451 132.11955 206.93039 132.11955C209.41566 132.11955 211.43039 134.13428 211.43039 136.61955Z" fill-rule="nonzero"/><path fill="#5891ad" clip-path="url(#id_0)" d="M235.9443 130.41005C235.9443 132.89534 233.9296 134.91005 231.4443 134.91005C228.95903 134.91005 226.9443 132.89534 226.9443 130.41005C226.9443 127.924774 228.95903 125.91006 231.4443 125.91006C233.9296 125.91006 235.9443 127.924774 235.9443 130.41005Z" fill-rule="nonzero"/><path fill="#5891ad" clip-path="url(#id_0)" d="M260.45822 140.63377C260.45822 143.11906 258.4435 145.13377 255.95824 145.13377C253.47295 145.13377 251.45824 143.11906 251.45824 140.63377C251.45824 138.1485 253.47295 136.13377 255.95824 136.13377C258.4435 136.13377 260.45822 138.1485 260.45822 140.63377Z" fill-rule="nonzero"/><path fill="#5891ad" clip-path="url(#id_0)" d="M284.97217 194.19856C284.97217 196.68384 282.95743 198.69856 280.47217 198.69856C277.98688 198.69856 275.97217 196.68384 275.97217 194.19856C275.97217 191.71327 277.98688 189.69856 280.47217 189.69856C282.95743 189.69856 284.97217 191.71327 284.97217 194.19856Z" fill-rule="nonzero"/><path fill="#5891ad" clip-path="url(#id_0)" d="M309.48608 204.04594C309.48608 206.53122 307.47134 208.54594 304.98608 208.54594C302.5008 208.54594 300.48608 206.53122 300.48608 204.04594C300.48608 201.56067 302.5008 199.54594 304.98608 199.54594C307.47134 199.54594 309.48608 201.56067 309.48608 204.04594Z" fill-rule="nonzero"/><path fill="#5891ad" clip-path="url(#id_0)" d="M334.0 190.12161C334.0 192.60689 331.9853 194.62161 329.5 194.62161C327.0147 194.62161 325.0 192.60689 325.0 190.12161C325.0 187.63634 327.0147 185.62161 329.5 185.62161C331.9853 185.62161 334.0 187.63634 334.0 190.12161Z" fill-rule="nonzero"/><path fill="#5891ad" clip-path="url(#id_0)" d="M358.51392 203.29327C358.51392 205.77856 356.4992 207.79327 354.01392 207.79327C351.52866 207.79327 349.51392 205.77856 349.51392 203.29327C349.51392 200.808 351.52866 198.79327 354.01392 198.79327C356.4992 198.79327 358.51392 200.808 358.51392 203.29327Z" fill-rule="nonzero"/><path fill="#5891ad" clip-path="url(#id_0)" d="M383.02783 191.7524C383.02783 194.23767 381.01312 196.2524 378.52783 196.2524C376.04257 196.2524 374.02783 194.23767 374.02783 191.7524C374.02783 189.2671 376.04257 187.2524 378.52783 187.2524C381.01312 187.2524 383.02783 189.2671 383.02783 191.7524Z" fill-rule="nonzero"/><path fill="#5891ad" clip-path="url(#id_0)" d="M407.54178 246.19528C407.54178 248.68056 405.52704 250.69528 403.04178 250.69528C400.5565 250.69528 398.54178 248.68056 398.54178 246.19528C398.54178 243.70999 400.5565 241.69528 403.04178 241.69528C405.52704 241.69528 407.54178 243.70999 407.54178 246.19528Z" fill-rule="nonzero"/><path fill="#5891ad" clip-path="url(#id_0)" d="M432.0557 249.70772C432.0557 252.19301 430.041 254.20772 427.5557 254.20772C425.0704 254.20772 423.0557 252.19301 423.0557 249.70772C423.0557 247.22244 425.0704 245.20772 427.5557 245.20772C430.041 245.20772 432.0557 247.22244 432.0557 249.70772Z" fill-rule="nonzero"/><path fill="#5891ad" clip-path="url(#id_0)" d="M456.5696 252.78111C456.5696 255.26639 454.5549 257.2811 452.0696 257.2811C449.58432 257.2811 447.5696 255.26639 447.5696 252.78111C447.5696 250.29582 449.58432 248.28111 452.0696 248.28111C454.5549 248.28111 456.5696 250.29582 456.5696 252.78111Z" fill-rule="nonzero"/><path fill="#5891ad" clip-path="url(#id_0)" d="M481.08353 273.04037C481.08353 275.52567 479.06882 277.54037 476.58353 277.54037C474.09827 277.54037 472.08353 275.52567 472.08353 273.04037C472.08353 270.5551 474.09827 268.54037 476.58353 268.54037C479.06882 268.54037 481.08353 270.5551 481.08353 273.04037Z" fill-rule="nonzero"/><path fill="#5891ad" clip-path="url(#id_0)" d="M505.59747 273.04037C505.59747 275.52567 503.58273 277.54037 501.09747 277.54037C498.61218 277.54037 496.59747 275.52567 496.59747 273.04037C496.59747 270.5551 498.61218 268.54037 501.09747 268.54037C503.58273 268.54037 505.59747 270.5551 505.59747 273.04037Z" fill-rule="nonzero"/><path fill="#5891ad" clip-path="url(#id_0)" d="M530.1114 273.47943C530.1114 275.96472 528.0967 277.97943 525.6114 277.97943C523.1261 277.97943 521.1114 275.96472 521.1114 273.47943C521.1114 270.99417 523.1261 268.97943 525.6114 268.97943C528.0967 268.97943 530.1114 270.99417 530.1114 273.47943Z" fill-rule="nonzero"/><path fill="#5891ad" clip-path="url(#id_0)" d="M554.6253 283.2641C554.6253 285.7494 552.6106 287.7641 550.1253 287.7641C547.64 287.7641 545.6253 285.7494 545.6253 283.2641C545.6253 280.77884 547.64 278.7641 550.1253 278.7641C552.6106 278.7641 554.6253 280.77884 554.6253 283.2641Z" fill-rule="nonzero"/><path fill="#5891ad" clip-path="url(#id_0)" d="M579.1392 290.8535C579.1392 293.33878 577.1245 295.3535 574.6392 295.3535C572.15393 295.3535 570.1392 293.33878 570.1392 290.8535C570.1392 288.36823 572.15393 286.3535 574.6392 286.3535C577.1245 286.3535 579.1392 288.36823 579.1392 290.8535Z" fill-rule="nonzero"/><path fill="#004561" clip-path="url(#id_0)" d="M88.86077 277.18005C88.86077 279.66534 86.846054 281.68005 84.36077 281.68005C81.875496 281.68005 79.86077 279.66534 79.86077 277.18005C79.86077 274.69476 81.875496 272.68005 84.36077 272.68005C86.846054 272.68005 88.86077 274.69476 88.86077 277.18005Z" fill-rule="nonzero"/><path fill="#004561" clip-path="url(#id_0)" d="M113.374695 271.78595C113.374695 274.27124 111.35998 276.28595 108.874695 276.28595C106.38941 276.28595 104.374695 274.27124 104.374695 271.78595C104.374695 269.30066 106.38941 267.28595 108.874695 267.28595C111.35998 267.28595 113.374695 269.30066 113.374695 271.78595Z" fill-rule="nonzero"/><path fill="#004561" clip-path="url(#id_0)" d="M137.88863 275.48654C137.88863 277.97183 135.8739 279.98654 133.38863 279.98654C130.90334 279.98654 128.88863 277.97183 128.88863 275.48654C128.88863 273.00128 130.90334 270.98654 133.38863 270.98654C135.8739 270.98654 137.88863 273.00128 137.88863 275.48654Z" fill-rule="nonzero"/><path fill="#004561" clip-path="url(#id_0)" d="M162.40254 252.21661C162.40254 254.70189 160.38782 256.7166 157.90254 256.7166C155.41727 256.7166 153.40254 254.70189 153.40254 252.21661C153.40254 249.73132 155.41727 247.71661 157.90254 247.71661C160.38782 247.71661 162.40254 249.73132 162.40254 252.21661Z" fill-rule="nonzero"/><path fill="#004561" clip-path="url(#id_0)" d="M186.91646 243.31006C186.91646 245.79533 184.90175 247.81006 182.41646 247.81006C179.93118 247.81006 177.91646 245.79533 177.91646 243.31006C177.91646 240.82477 179.93118 238.81006 182.41646 238.81006C184.90175 238.81006 186.91646 240.82477 186.91646 243.31006Z" fill-rule="nonzero"/><path fill="#004561" clip-path="url(#id_0)" d="M211.43039 267.0818C211.43039 269.56705 209.41566 271.5818 206.93039 271.5818C204.4451 271.5818 202.43039 269.56705 202.43039 267.0818C202.43039 264.5965 204.4451 262.5818 206.93039 262.5818C209.41566 262.5818 211.43039 264.5965 211.43039 267.0818Z" fill-rule="nonzero"/><path fill="#004561" clip-path="url(#id_0)" d="M235.9443 257.10895C235.9443 259.59424 233.9296 261.60895 231.4443 261.60895C228.95903 261.60895 226.9443 259.59424 226.9443 257.10895C226.9443 254.62366 228.95903 252.60895 231.4443 252.60895C233.9296 252.60895 235.9443 254.62366 235.9443 257.10895Z" fill-rule="nonzero"/><path fill="#004561" clip-path="url(#id_0)" d="M260.45822 260.87228C260.45822 263.35754 258.4435 265.37228 255.95824 265.37228C253.47295 265.37228 251.45824 263.35754 251.45824 260.87228C251.45824 258.387 253.47295 256.37228 255.95824 256.37228C258.4435 256.37228 260.45822 258.387 260.45822 260.87228Z" fill-rule="nonzero"/><path fill="#004561" clip-path="url(#id_0)" d="M284.97217 271.84866C284.97217 274.33395 282.95743 276.34866 280.47217 276.34866C277.98688 276.34866 275.97217 274.33395 275.97217 271.84866C275.97217 269.36337 277.98688 267.34866 280.47217 267.34866C282.95743 267.34866 284.97217 269.36337 284.97217 271.84866Z" fill-rule="nonzero"/><path fill="#004561" clip-path="url(#id_0)" d="M309.48608 266.8309C309.48608 269.31616 307.47134 271.3309 304.98608 271.3309C302.5008 271.3309 300.48608 269.31616 300.48608 266.8309C300.48608 264.3456 302.5008 262.3309 304.98608 262.3309C307.47134 262.3309 309.48608 264.3456 309.48608 266.8309Z" fill-rule="nonzero"/><path fill="#004561" clip-path="url(#id_0)" d="M334.0 262.44034C334.0 264.92563 331.9853 266.94034 329.5 266.94034C327.0147 266.94034 325.0 264.92563 325.0 262.44034C325.0 259.95505 327.0147 257.94034 329.5 257.94034C331.9853 257.94034 334.0 259.95505 334.0 262.44034Z" fill-rule="nonzero"/><path fill="#004561" clip-path="url(#id_0)" d="M358.51392 270.15518C358.51392 272.64044 356.4992 274.65518 354.01392 274.65518C351.52866 274.65518 349.51392 272.64044 349.51392 270.15518C349.51392 267.6699 351.52866 265.65518 354.01392 265.65518C356.4992 265.65518 358.51392 267.6699 358.51392 270.15518Z" fill-rule="nonzero"/><path fill="#004561" clip-path="url(#id_0)" d="M383.02783 258.42612C383.02783 260.9114 381.01312 262.92612 378.52783 262.92612C376.04257 262.92612 374.02783 260.9114 374.02783 258.42612C374.02783 255.94083 376.04257 253.92612 378.52783 253.92612C381.01312 253.92612 383.02783 255.94083 383.02783 258.42612Z" fill-rule="nonzero"/><path fill="#004561" clip-path="url(#id_0)" d="M407.54178 277.68182C407.54178 280.1671 405.52704 282.18182 403.04178 282.18182C400.5565 282.18182 398.54178 280.1671 398.54178 277.68182C398.54178 275.19656 400.5565 273.18182 403.04178 273.18182C405.52704 273.18182 407.54178 275.19656 407.54178 277.68182Z" fill-rule="nonzero"/><path fill="#004561" clip-path="url(#id_0)" d="M432.0557 281.63333C432.0557 284.11862 430.041 286.13333 427.5557 286.13333C425.0704 286.13333 423.0557 284.11862 423.0557 281.63333C423.0557 279.14804 425.0704 277.13333 427.5557 277.13333C430.041 277.13333 432.0557 279.14804 432.0557 281.63333Z" fill-rule="nonzero"/><path fill="#004561" clip-path="url(#id_0)" d="M456.5696 283.57773C456.5696 286.06302 454.5549 288.07773 452.0696 288.07773C449.58432 288.07773 447.5696 286.06302 447.5696 283.57773C447.5696 281.09244 449.58432 279.07773 452.0696 279.07773C454.5549 279.07773 456.5696 281.09244 456.5696 283.57773Z" fill-rule="nonzero"/><path fill="#004561" clip-path="url(#id_0)" d="M481.08353 292.17065C481.08353 294.65594 479.06882 296.67065 476.58353 296.67065C474.09827 296.67065 472.08353 294.65594 472.08353 292.17065C472.08353 289.6854 474.09827 287.67065 476.58353 287.67065C479.06882 287.67065 481.08353 289.6854 481.08353 292.17065Z" fill-rule="nonzero"/><path fill="#004561" clip-path="url(#id_0)" d="M505.59747 283.38956C505.59747 285.87485 503.58273 287.88956 501.09747 287.88956C498.61218 287.88956 496.59747 285.87485 496.59747 283.38956C496.59747 280.90427 498.61218 278.88956 501.09747 278.88956C503.58273 278.88956 505.59747 280.90427 505.59747 283.38956Z" fill-rule="nonzero"/><path fill="#004561" clip-path="url(#id_0)" d="M530.1114 292.2961C530.1114 294.7814 528.0967 296.7961 525.6114 296.7961C523.1261 296.7961 521.1114 294.7814 521.1114 292.2961C521.1114 289.81082 523.1261 287.7961 525.6114 287.7961C528.0967 287.7961 530.1114 289.81082 530.1114 292.2961Z" fill-rule="nonzero"/><path fill="#004561" clip-path="url(#id_0)" d="M554.6253 296.31033C554.6253 298.79562 552.6106 300.81033 550.1253 300.81033C547.64 300.81033 545.6253 298.79562 545.6253 296.31033C545.6253 293.82504 547.64 291.81033 550.1253 291.81033C552.6106 291.81033 554.6253 293.82504 554.6253 296.31033Z" fill-rule="nonzero"/><path fill="#004561" clip-path="url(#id_0)" d="M579.1392 297.6275C579.1392 300.1128 577.1245 302.1275 574.6392 302.1275C572.15393 302.1275 570.1392 300.1128 570.1392 297.6275C570.1392 295.1422 572.15393 293.1275 574.6392 293.1275C577.1245 293.1275 579.1392 295.1422 579.1392 297.6275Z" fill-rule="nonzero"/><path fill="#000000" d="M293.39062 349.45L293.39062 340.85626L295.10938 340.85626L297.14062 346.9344Q297.42188 347.79376 297.54688 348.21564Q297.6875 347.7469 298.0 346.84064L300.0625 340.85626L301.59375 340.85626L301.59375 349.45L300.5 349.45L300.5 342.2625L298.0 349.45L296.96875 349.45L294.48438 342.1375L294.48438 349.45L293.39062 349.45ZM301.90625 346.34064Q301.90625 344.60626 302.85938 343.77814Q303.65625 343.09064 304.8125 343.09064Q306.09375 343.09064 306.90625 343.9344Q307.73438 344.7625 307.73438 346.2469Q307.73438 347.45 307.375 348.1375Q307.01562 348.825 306.3125 349.21564Q305.625 349.59064 304.8125 349.59064Q303.51562 349.59064 302.70312 348.7625Q301.90625 347.91876 301.90625 346.34064ZM302.98438 346.34064Q302.98438 347.52814 303.5 348.1219Q304.03125 348.71564 304.8125 348.71564Q305.60938 348.71564 306.125 348.1219Q306.64062 347.52814 306.64062 346.3094Q306.64062 345.15314 306.10938 344.5594Q305.59375 343.96564 304.8125 343.96564Q304.03125 343.96564 303.5 344.5594Q302.98438 345.1375 302.98438 346.34064ZM311.01562 349.45L308.65625 343.23126L309.76562 343.23126L311.10938 346.95Q311.3125 347.5594 311.5 348.2Q311.64062 347.71564 311.89062 347.02814L313.28125 343.23126L314.35938 343.23126L312.0 349.45L311.01562 349.45ZM318.54688 347.45L319.64062 347.575Q319.39062 348.52814 318.6875 349.0594Q317.98438 349.59064 316.90625 349.59064Q315.54688 349.59064 314.73438 348.7469Q313.9375 347.90314 313.9375 346.3875Q313.9375 344.825 314.75 343.96564Q315.5625 343.09064 316.84375 343.09064Q318.09375 343.09064 318.875 343.9344Q319.67188 344.77814 319.67188 346.325Q319.67188 346.41876 319.67188 346.60626L315.03125 346.60626Q315.09375 347.6375 315.60938 348.1844Q316.125 348.71564 316.90625 348.71564Q317.48438 348.71564 317.89062 348.41876Q318.3125 348.10626 318.54688 347.45ZM315.09375 345.7469L318.5625 345.7469Q318.5 344.95 318.17188 344.5594Q317.65625 343.95 316.85938 343.95Q316.125 343.95 315.625 344.4344Q315.14062 344.91876 315.09375 345.7469ZM324.29688 349.45L324.29688 343.23126L325.23438 343.23126L325.23438 344.10626Q325.92188 343.09064 327.21875 343.09064Q327.78125 343.09064 328.25 343.29376Q328.73438 343.4969 328.96875 343.825Q329.20312 344.15314 329.29688 344.59064Q329.34375 344.8875 329.34375 345.6219L329.34375 349.45L328.29688 349.45L328.29688 345.66876Q328.29688 345.0125 328.17188 344.7Q328.04688 344.3875 327.73438 344.2Q327.42188 343.9969 327.0 343.9969Q326.32812 343.9969 325.82812 344.4344Q325.34375 344.85626 325.34375 346.04376L325.34375 349.45L324.29688 349.45ZM335.375 349.45L335.375 348.52814Q334.64062 349.59064 333.39062 349.59064Q332.84375 349.59064 332.35938 349.3875Q331.89062 349.16876 331.65625 348.85626Q331.42188 348.52814 331.32812 348.0594Q331.26562 347.7625 331.26562 347.075L331.26562 343.23126L332.32812 343.23126L332.32812 346.6844Q332.32812 347.4969 332.39062 347.79376Q332.48438 348.2 332.79688 348.45Q333.125 348.6844 333.60938 348.6844Q334.07812 348.6844 334.48438 348.45Q334.90625 348.2 335.07812 347.77814Q335.26562 347.35626 335.26562 346.5594L335.26562 343.23126L336.3125 343.23126L336.3125 349.45L335.375 349.45ZM338.29688 349.45L338.29688 343.23126L339.23438 343.23126L339.23438 344.10626Q339.53125 343.6375 340.01562 343.3719Q340.5 343.09064 341.125 343.09064Q341.8125 343.09064 342.25 343.3719Q342.70312 343.65314 342.875 344.16876Q343.625 343.09064 344.79688 343.09064Q345.73438 343.09064 346.21875 343.60626Q346.71875 344.10626 346.71875 345.1844L346.71875 349.45L345.67188 349.45L345.67188 345.52814Q345.67188 344.90314 345.5625 344.6219Q345.46875 344.34064 345.20312 344.16876Q344.9375 343.9969 344.5625 343.9969Q343.90625 343.9969 343.46875 344.4344Q343.04688 344.8719 343.04688 345.84064L343.04688 349.45L341.98438 349.45L341.98438 345.40314Q341.98438 344.7 341.71875 344.35626Q341.46875 343.9969 340.89062 343.9969Q340.4375 343.9969 340.0625 344.23126Q339.6875 344.46564 339.51562 344.91876Q339.34375 345.3719 339.34375 346.21564L339.34375 349.45L338.29688 349.45ZM350.26562 349.45L349.28125 349.45L349.28125 340.85626L350.34375 340.85626L350.34375 343.91876Q351.01562 343.09064 352.04688 343.09064Q352.625 343.09064 353.125 343.325Q353.64062 343.54376 353.96875 343.96564Q354.3125 344.3875 354.5 344.98126Q354.6875 345.575 354.6875 346.2469Q354.6875 347.84064 353.89062 348.71564Q353.09375 349.59064 352.0 349.59064Q350.89062 349.59064 350.26562 348.66876L350.26562 349.45ZM350.25 346.29376Q350.25 347.40314 350.5625 347.90314Q351.0625 348.71564 351.90625 348.71564Q352.59375 348.71564 353.09375 348.1219Q353.60938 347.52814 353.60938 346.325Q353.60938 345.10626 353.125 344.52814Q352.64062 343.95 351.95312 343.95Q351.26562 343.95 350.75 344.5594Q350.25 345.15314 350.25 346.29376ZM360.54688 347.45L361.64062 347.575Q361.39062 348.52814 360.6875 349.0594Q359.98438 349.59064 358.90625 349.59064Q357.54688 349.59064 356.73438 348.7469Q355.9375 347.90314 355.9375 346.3875Q355.9375 344.825 356.75 343.96564Q357.5625 343.09064 358.84375 343.09064Q360.09375 343.09064 360.875 343.9344Q361.67188 344.77814 361.67188 346.325Q361.67188 346.41876 361.67188 346.60626L357.03125 346.60626Q357.09375 347.6375 357.60938 348.1844Q358.125 348.71564 358.90625 348.71564Q359.48438 348.71564 359.89062 348.41876Q360.3125 348.10626 360.54688 347.45ZM357.09375 345.7469L360.5625 345.7469Q360.5 344.95 360.17188 344.5594Q359.65625 343.95 358.85938 343.95Q358.125 343.95 357.625 344.4344Q357.14062 344.91876 357.09375 345.7469ZM363.28125 349.45L363.28125 343.23126L364.23438 343.23126L364.23438 344.16876Q364.59375 343.5125 364.89062 343.3094Q365.20312 343.09064 365.57812 343.09064Q366.10938 343.09064 366.65625 343.41876L366.29688 344.40314Q365.90625 344.16876 365.53125 344.16876Q365.17188 344.16876 364.89062 344.3875Q364.625 344.59064 364.51562 344.96564Q364.32812 345.52814 364.32812 346.1844L364.32812 349.45L363.28125 349.45Z" fill-rule="nonzero"/><path fill="#000000" d="M29.550013 278.7573L21.971888 278.7573L21.971888 281.58542L20.956263 281.58542L20.956263 274.77292L21.971888 274.77292L21.971888 277.61667L29.550013 277.61667L29.550013 278.7573ZM22.175013 274.0698L20.956263 274.0698L20.956263 273.0073L22.175013 273.0073L22.175013 274.0698ZM29.550013 274.0698L23.331263 274.0698L23.331263 273.0073L29.550013 273.0073L29.550013 274.0698ZM29.550013 271.0698L23.331263 271.0698L23.331263 270.1323L24.206263 270.1323Q23.737513 269.83542 23.471888 269.35104Q23.190638 268.86667 23.190638 268.24167Q23.190638 267.55417 23.471888 267.11667Q23.753138 266.66354 24.268763 266.49167Q23.190638 265.74167 23.190638 264.5698Q23.190638 263.6323 23.706263 263.14792Q24.206263 262.64792 25.284388 262.64792L29.550013 262.64792L29.550013 263.6948L25.628138 263.6948Q25.003138 263.6948 24.721888 263.80417Q24.440638 263.89792 24.268763 264.16354Q24.096888 264.42917 24.096888 264.80417Q24.096888 265.46042 24.534388 265.89792Q24.971888 266.3198 25.940638 266.3198L29.550013 266.3198L29.550013 267.3823L25.503138 267.3823Q24.800013 267.3823 24.456263 267.64792Q24.096888 267.89792 24.096888 268.47604Q24.096888 268.92917 24.331263 269.30417Q24.565638 269.67917 25.018763 269.85104Q25.471888 270.02292 26.315638 270.02292L29.550013 270.02292L29.550013 271.0698ZM27.550013 255.8198L27.675013 254.72604Q28.628138 254.97604 29.159388 255.67917Q29.690638 256.3823 29.690638 257.46042Q29.690638 258.8198 28.846888 259.6323Q28.003138 260.42917 26.487513 260.42917Q24.925013 260.42917 24.065638 259.61667Q23.190638 258.80417 23.190638 257.52292Q23.190638 256.27292 24.034388 255.49167Q24.878138 254.6948 26.425013 254.6948Q26.518763 254.6948 26.706263 254.6948L26.706263 259.33542Q27.737513 259.27292 28.284388 258.7573Q28.815638 258.24167 28.815638 257.46042Q28.815638 256.8823 28.518763 256.47604Q28.206263 256.05417 27.550013 255.8198ZM25.846888 259.27292L25.846888 255.80417Q25.050013 255.86667 24.659388 256.1948Q24.050013 256.71042 24.050013 257.5073Q24.050013 258.24167 24.534388 258.74167Q25.018763 259.22604 25.846888 259.27292ZM28.612513 247.77292L29.534388 247.61667Q29.628138 248.0698 29.628138 248.41354Q29.628138 248.99167 29.456263 249.30417Q29.268763 249.61667 28.971888 249.7573Q28.675013 249.8823 27.721888 249.8823L24.143763 249.8823L24.143763 250.64792L23.331263 250.64792L23.331263 249.8823L21.784388 249.8823L21.159388 248.83542L23.331263 248.83542L23.331263 247.77292L24.143763 247.77292L24.143763 248.83542L27.784388 248.83542Q28.237513 248.83542 28.362513 248.78854Q28.487513 248.72604 28.565638 248.60104Q28.643763 248.47604 28.643763 248.24167Q28.643763 248.05417 28.612513 247.77292ZM26.440638 247.46042Q24.706263 247.46042 23.878138 246.5073Q23.190638 245.71042 23.190638 244.55417Q23.190638 243.27292 24.034388 242.46042Q24.862513 241.6323 26.346888 241.6323Q27.550013 241.6323 28.237513 241.99167Q28.925013 242.35104 29.315638 243.05417Q29.690638 243.74167 29.690638 244.55417Q29.690638 245.85104 28.862513 246.66354Q28.018763 247.46042 26.440638 247.46042ZM26.440638 246.3823Q27.628138 246.3823 28.221888 245.86667Q28.815638 245.33542 28.815638 244.55417Q28.815638 243.7573 28.221888 243.24167Q27.628138 242.72604 26.409388 242.72604Q25.253138 242.72604 24.659388 243.2573Q24.065638 243.77292 24.065638 244.55417Q24.065638 245.33542 24.659388 245.86667Q25.237513 246.3823 26.440638 246.3823ZM31.940638 237.0698L23.331263 237.0698L23.331263 236.11667L24.128138 236.11667Q23.659388 235.77292 23.425013 235.35104Q23.190638 234.91354 23.190638 234.30417Q23.190638 233.5073 23.596888 232.89792Q24.003138 232.28854 24.753138 231.99167Q25.503138 231.67917 26.393763 231.67917Q27.346888 231.67917 28.112513 232.02292Q28.878138 232.35104 29.284388 233.0073Q29.690638 233.66354 29.690638 234.3823Q29.690638 234.91354 29.471888 235.33542Q29.237513 235.7573 28.909388 236.02292L31.940638 236.02292L31.940638 237.0698ZM26.471888 236.11667Q27.675013 236.11667 28.253138 235.6323Q28.815638 235.14792 28.815638 234.46042Q28.815638 233.7573 28.221888 233.2573Q27.628138 232.7573 26.378138 232.7573Q25.190638 232.7573 24.612513 233.24167Q24.018763 233.72604 24.018763 234.41354Q24.018763 235.08542 24.643763 235.60104Q25.268763 236.11667 26.471888 236.11667ZM27.550013 225.8198L27.675013 224.72604Q28.628138 224.97604 29.159388 225.67917Q29.690638 226.3823 29.690638 227.46042Q29.690638 228.8198 28.846888 229.6323Q28.003138 230.42917 26.487513 230.42917Q24.925013 230.42917 24.065638 229.61667Q23.190638 228.80417 23.190638 227.52292Q23.190638 226.27292 24.034388 225.49167Q24.878138 224.6948 26.425013 224.6948Q26.518763 224.6948 26.706263 224.6948L26.706263 229.33542Q27.737513 229.27292 28.284388 228.7573Q28.815638 228.24167 28.815638 227.46042Q28.815638 226.8823 28.518763 226.47604Q28.206263 226.05417 27.550013 225.8198ZM25.846888 229.27292L25.846888 225.80417Q25.050013 225.86667 24.659388 226.1948Q24.050013 226.71042 24.050013 227.5073Q24.050013 228.24167 24.534388 228.74167Q25.018763 229.22604 25.846888 229.27292ZM29.550013 223.08542L23.331263 223.08542L23.331263 222.1323L24.268763 222.1323Q23.612513 221.77292 23.409388 221.47604Q23.190638 221.16354 23.190638 220.78854Q23.190638 220.2573 23.518763 219.71042L24.503138 220.0698Q24.268763 220.46042 24.268763 220.83542Q24.268763 221.1948 24.487513 221.47604Q24.690638 221.74167 25.065638 221.85104Q25.628138 222.03854 26.284388 222.03854L29.550013 222.03854L29.550013 223.08542ZM29.550013 218.8198L24.143763 218.8198L24.143763 219.7573L23.331263 219.7573L23.331263 218.8198L22.659388 218.8198Q22.034388 218.8198 21.737513 218.71042Q21.315638 218.55417 21.065638 218.17917Q20.815638 217.78854 20.815638 217.10104Q20.815638 216.64792 20.925013 216.11667L21.831263 216.27292Q21.784388 216.60104 21.784388 216.89792Q21.784388 217.3823 21.987513 217.58542Q22.190638 217.77292 22.753138 217.77292L23.331263 217.77292L23.331263 216.55417L24.143763 216.55417L24.143763 217.77292L29.550013 217.77292L29.550013 218.8198ZM26.440638 216.46042Q24.706263 216.46042 23.878138 215.5073Q23.190638 214.71042 23.190638 213.55417Q23.190638 212.27292 24.034388 211.46042Q24.862513 210.6323 26.346888 210.6323Q27.550013 210.6323 28.237513 210.99167Q28.925013 211.35104 29.315638 212.05417Q29.690638 212.74167 29.690638 213.55417Q29.690638 214.85104 28.862513 215.66354Q28.018763 216.46042 26.440638 216.46042ZM26.440638 215.3823Q27.628138 215.3823 28.221888 214.86667Q28.815638 214.33542 28.815638 213.55417Q28.815638 212.7573 28.221888 212.24167Q27.628138 211.72604 26.409388 211.72604Q25.253138 211.72604 24.659388 212.2573Q24.065638 212.77292 24.065638 213.55417Q24.065638 214.33542 24.659388 214.86667Q25.237513 215.3823 26.440638 215.3823ZM29.550013 209.08542L23.331263 209.08542L23.331263 208.1323L24.268763 208.1323Q23.612513 207.77292 23.409388 207.47604Q23.190638 207.16354 23.190638 206.78854Q23.190638 206.2573 23.518763 205.71042L24.503138 206.0698Q24.268763 206.46042 24.268763 206.83542Q24.268763 207.1948 24.487513 207.47604Q24.690638 207.74167 25.065638 207.85104Q25.628138 208.03854 26.284388 208.03854L29.550013 208.03854L29.550013 209.08542ZM29.550013 205.0698L23.331263 205.0698L23.331263 204.1323L24.206263 204.1323Q23.737513 203.83542 23.471888 203.35104Q23.190638 202.86667 23.190638 202.24167Q23.190638 201.55417 23.471888 201.11667Q23.753138 200.66354 24.268763 200.49167Q23.190638 199.74167 23.190638 198.5698Q23.190638 197.6323 23.706263 197.14792Q24.206263 196.64792 25.284388 196.64792L29.550013 196.64792L29.550013 197.6948L25.628138 197.6948Q25.003138 197.6948 24.721888 197.80417Q24.440638 197.89792 24.268763 198.16354Q24.096888 198.42917 24.096888 198.80417Q24.096888 199.46042 24.534388 199.89792Q24.971888 200.3198 25.940638 200.3198L29.550013 200.3198L29.550013 201.3823L25.503138 201.3823Q24.800013 201.3823 24.456263 201.64792Q24.096888 201.89792 24.096888 202.47604Q24.096888 202.92917 24.331263 203.30417Q24.565638 203.67917 25.018763 203.85104Q25.471888 204.02292 26.315638 204.02292L29.550013 204.02292L29.550013 205.0698ZM29.550013 191.0698L23.331263 191.0698L23.331263 190.1323L24.206263 190.1323Q23.737513 189.83542 23.471888 189.35104Q23.190638 188.86667 23.190638 188.24167Q23.190638 187.55417 23.471888 187.11667Q23.753138 186.66354 24.268763 186.49167Q23.190638 185.74167 23.190638 184.5698Q23.190638 183.6323 23.706263 183.14792Q24.206263 182.64792 25.284388 182.64792L29.550013 182.64792L29.550013 183.6948L25.628138 183.6948Q25.003138 183.6948 24.721888 183.80417Q24.440638 183.89792 24.268763 184.16354Q24.096888 184.42917 24.096888 184.80417Q24.096888 185.46042 24.534388 185.89792Q24.971888 186.3198 25.940638 186.3198L29.550013 186.3198L29.550013 187.3823L25.503138 187.3823Q24.800013 187.3823 24.456263 187.64792Q24.096888 187.89792 24.096888 188.47604Q24.096888 188.92917 24.331263 189.30417Q24.565638 189.67917 25.018763 189.85104Q25.471888 190.02292 26.315638 190.02292L29.550013 190.02292L29.550013 191.0698ZM26.440638 180.46042Q24.706263 180.46042 23.878138 179.5073Q23.190638 178.71042 23.190638 177.55417Q23.190638 176.27292 24.034388 175.46042Q24.862513 174.6323 26.346888 174.6323Q27.550013 174.6323 28.237513 174.99167Q28.925013 175.35104 29.315638 176.05417Q29.690638 176.74167 29.690638 177.55417Q29.690638 178.85104 28.862513 179.66354Q28.018763 180.46042 26.440638 180.46042ZM26.440638 179.3823Q27.628138 179.3823 28.221888 178.86667Q28.815638 178.33542 28.815638 177.55417Q28.815638 176.7573 28.221888 176.24167Q27.628138 175.72604 26.409388 175.72604Q25.253138 175.72604 24.659388 176.2573Q24.065638 176.77292 24.065638 177.55417Q24.065638 178.33542 24.659388 178.86667Q25.237513 179.3823 26.440638 179.3823ZM29.550013 171.35104L23.331263 173.71042L23.331263 172.60104L27.050013 171.2573Q27.659388 171.05417 28.300013 170.86667Q27.815638 170.72604 27.128138 170.47604L23.331263 169.08542L23.331263 168.0073L29.550013 170.36667L29.550013 171.35104ZM27.550013 163.8198L27.675013 162.72604Q28.628138 162.97604 29.159388 163.67917Q29.690638 164.3823 29.690638 165.46042Q29.690638 166.8198 28.846888 167.6323Q28.003138 168.42917 26.487513 168.42917Q24.925013 168.42917 24.065638 167.61667Q23.190638 166.80417 23.190638 165.52292Q23.190638 164.27292 24.034388 163.49167Q24.878138 162.6948 26.425013 162.6948Q26.518763 162.6948 26.706263 162.6948L26.706263 167.33542Q27.737513 167.27292 28.284388 166.7573Q28.815638 166.24167 28.815638 165.46042Q28.815638 164.8823 28.518763 164.47604Q28.206263 164.05417 27.550013 163.8198ZM25.846888 167.27292L25.846888 163.80417Q25.050013 163.86667 24.659388 164.1948Q24.050013 164.71042 24.050013 165.5073Q24.050013 166.24167 24.534388 166.74167Q25.018763 167.22604 25.846888 167.27292ZM32.08126 156.05417Q30.971888 156.92917 29.503138 157.53854Q28.018763 158.1323 26.440638 158.1323Q25.050013 158.1323 23.768763 157.6948Q22.284388 157.16354 20.815638 156.05417L20.815638 155.30417Q22.034388 156.0073 22.550013 156.24167Q23.362513 156.60104 24.237513 156.80417Q25.331263 157.05417 26.440638 157.05417Q29.268763 157.05417 32.08126 155.30417L32.08126 156.05417ZM27.690638 154.49167L27.534388 153.46042Q28.159388 153.36667 28.487513 152.97604Q28.815638 152.5698 28.815638 151.83542Q28.815638 151.11667 28.534388 150.77292Q28.237513 150.41354 27.831263 150.41354Q27.471888 150.41354 27.268763 150.72604Q27.128138 150.9448 26.909388 151.80417Q26.612513 152.96042 26.409388 153.41354Q26.190638 153.85104 25.815638 154.08542Q25.440638 154.3198 24.971888 154.3198Q24.565638 154.3198 24.206263 154.1323Q23.846888 153.9448 23.612513 153.61667Q23.440638 153.36667 23.315638 152.9448Q23.190638 152.52292 23.190638 152.02292Q23.190638 151.30417 23.409388 150.7573Q23.612513 150.1948 23.971888 149.92917Q24.331263 149.66354 24.925013 149.5698L25.065638 150.60104Q24.596888 150.66354 24.331263 151.0073Q24.050013 151.33542 24.050013 151.96042Q24.050013 152.67917 24.300013 152.99167Q24.534388 153.30417 24.862513 153.30417Q25.065638 153.30417 25.221888 153.17917Q25.393763 153.03854 25.503138 152.77292Q25.565638 152.61667 25.768763 151.83542Q26.081263 150.71042 26.268763 150.27292Q26.456263 149.83542 26.815638 149.58542Q27.175013 149.33542 27.721888 149.33542Q28.253138 149.33542 28.721888 149.64792Q29.175013 149.9448 29.440638 150.52292Q29.690638 151.10104 29.690638 151.83542Q29.690638 153.05417 29.190638 153.6948Q28.675013 154.3198 27.690638 154.49167ZM32.08126 146.3823L32.08126 147.1323Q29.268763 145.3823 26.440638 145.3823Q25.346888 145.3823 24.253138 145.6323Q23.378138 145.83542 22.565638 146.1948Q22.050013 146.42917 20.815638 147.1323L20.815638 146.3823Q22.284388 145.28854 23.768763 144.7573Q25.050013 144.30417 26.440638 144.30417Q28.018763 144.30417 29.503138 144.91354Q30.971888 145.52292 32.08126 146.3823Z" fill-rule="nonzero"/><path fill="#000000" d="M65.05 300.21564Q65.05 298.6844 65.3625 297.7625Q65.675 296.825 66.28438 296.325Q66.90938 295.825 67.84688 295.825Q68.53438 295.825 69.05 296.10626Q69.58125 296.3875 69.925 296.91876Q70.26875 297.4344 70.45625 298.1844Q70.64375 298.9344 70.64375 300.21564Q70.64375 301.73126 70.33125 302.65314Q70.03438 303.575 69.40938 304.09064Q68.8 304.59064 67.84688 304.59064Q66.6125 304.59064 65.89375 303.7Q65.05 302.6375 65.05 300.21564ZM66.12813 300.21564Q66.12813 302.325 66.62813 303.02814Q67.12813 303.73126 67.84688 303.73126Q68.58125 303.73126 69.06563 303.02814Q69.56563 302.325 69.56563 300.21564Q69.56563 298.09064 69.06563 297.40314Q68.58125 296.7 67.83125 296.7Q67.1125 296.7 66.675 297.3094Q66.12813 298.09064 66.12813 300.21564Z" fill-rule="nonzero"/><path fill="#000000" d="M69.01875 241.72778L67.97188 241.72778L67.97188 235.00903Q67.58125 235.36841 66.95625 235.74341Q66.34688 236.10278 65.8625 236.27466L65.8625 235.25903Q66.7375 234.83716 67.39375 234.25903Q68.06563 233.66528 68.34688 233.10278L69.01875 233.10278L69.01875 241.72778Z" fill-rule="nonzero"/><path fill="#000000" d="M70.59688 177.98993L70.59688 179.00555L64.90938 179.00555Q64.90938 178.63055 65.03438 178.27118Q65.25313 177.69305 65.72188 177.13055Q66.20625 176.56805 67.1125 175.83368Q68.51875 174.67743 69.00313 174.00555Q69.50313 173.33368 69.50313 172.73993Q69.50313 172.11493 69.05 171.69305Q68.59688 171.25555 67.87813 171.25555Q67.1125 171.25555 66.65938 171.70868Q66.20625 172.1618 66.19063 172.9743L65.1125 172.86493Q65.22188 171.64618 65.94063 171.02118Q66.675 170.38055 67.90938 170.38055Q69.14375 170.38055 69.8625 171.06805Q70.58125 171.75555 70.58125 172.77118Q70.58125 173.2868 70.3625 173.7868Q70.15938 174.27118 69.65938 174.83368Q69.175 175.38055 68.05 176.33368Q67.09688 177.13055 66.81563 177.42743Q66.55 177.70868 66.37813 177.98993L70.59688 177.98993Z" fill-rule="nonzero"/><path fill="#000000" d="M65.05 114.01771L66.1125 113.87708Q66.28438 114.76771 66.72188 115.17396Q67.15938 115.56458 67.78438 115.56458Q68.53438 115.56458 69.05 115.04896Q69.56563 114.53333 69.56563 113.76771Q69.56563 113.04896 69.08125 112.58021Q68.6125 112.09583 67.87813 112.09583Q67.58125 112.09583 67.12813 112.22083L67.25313 111.28333Q67.3625 111.29896 67.425 111.29896Q68.09688 111.29896 68.62813 110.95521Q69.175 110.59583 69.175 109.86146Q69.175 109.28333 68.78438 108.90833Q68.39375 108.51771 67.76875 108.51771Q67.15938 108.51771 66.7375 108.90833Q66.33125 109.29896 66.22188 110.06458L65.15938 109.87708Q65.34688 108.83021 66.03438 108.25208Q66.72188 107.65833 67.7375 107.65833Q68.44063 107.65833 69.03438 107.97083Q69.62813 108.26771 69.94063 108.78333Q70.25313 109.29896 70.25313 109.89271Q70.25313 110.43958 69.95625 110.90833Q69.65938 111.36146 69.08125 111.62708Q69.83125 111.79896 70.25313 112.36146Q70.675 112.90833 70.675 113.75208Q70.675 114.87708 69.84688 115.65833Q69.03438 116.43958 67.78438 116.43958Q66.65938 116.43958 65.90938 115.76771Q65.15938 115.08021 65.05 114.01771Z" fill-rule="nonzero"/><path fill="#000000" d="M179.41646 315.2L180.52583 315.10626Q180.65083 315.91876 181.08833 316.325Q181.54146 316.73126 182.18208 316.73126Q182.93208 316.73126 183.46333 316.15314Q183.99458 315.575 183.99458 314.6375Q183.99458 313.73126 183.47896 313.21564Q182.97896 312.6844 182.15083 312.6844Q181.65083 312.6844 181.22896 312.91876Q180.82271 313.15314 180.58833 313.5125L179.60396 313.3875L180.43208 308.98126L184.71333 308.98126L184.71333 309.98126L181.27583 309.98126L180.82271 312.29376Q181.58833 311.7469 182.43208 311.7469Q183.55708 311.7469 184.32271 312.52814Q185.10396 313.3094 185.10396 314.54376Q185.10396 315.7 184.43208 316.5594Q183.60396 317.59064 182.18208 317.59064Q181.01021 317.59064 180.26021 316.9344Q179.52583 316.27814 179.41646 315.2Z" fill-rule="nonzero"/><path fill="#000000" d="M302.45483 317.45L301.40796 317.45L301.40796 310.73126Q301.01733 311.09064 300.39233 311.46564Q299.78296 311.825 299.29858 311.9969L299.29858 310.98126Q300.17358 310.5594 300.82983 309.98126Q301.5017 309.3875 301.78296 308.825L302.45483 308.825L302.45483 317.45ZM305.48608 313.21564Q305.48608 311.6844 305.79858 310.7625Q306.11108 309.825 306.72046 309.325Q307.34546 308.825 308.28296 308.825Q308.97046 308.825 309.48608 309.10626Q310.01733 309.3875 310.36108 309.91876Q310.70483 310.4344 310.89233 311.1844Q311.07983 311.9344 311.07983 313.21564Q311.07983 314.73126 310.76733 315.65314Q310.47046 316.575 309.84546 317.09064Q309.23608 317.59064 308.28296 317.59064Q307.04858 317.59064 306.32983 316.7Q305.48608 315.6375 305.48608 313.21564ZM306.5642 313.21564Q306.5642 315.325 307.0642 316.02814Q307.5642 316.73126 308.28296 316.73126Q309.01733 316.73126 309.5017 316.02814Q310.0017 315.325 310.0017 313.21564Q310.0017 311.09064 309.5017 310.40314Q309.01733 309.7 308.26733 309.7Q307.54858 309.7 307.11108 310.3094Q306.5642 311.09064 306.5642 313.21564Z" fill-rule="nonzero"/><path fill="#000000" d="M425.02444 317.45L423.97757 317.45L423.97757 310.73126Q423.58694 311.09064 422.96194 311.46564Q422.35257 311.825 421.8682 311.9969L421.8682 310.98126Q422.7432 310.5594 423.39944 309.98126Q424.07132 309.3875 424.35257 308.825L425.02444 308.825L425.02444 317.45ZM428.0557 315.2L429.16507 315.10626Q429.29007 315.91876 429.72757 316.325Q430.1807 316.73126 430.82132 316.73126Q431.57132 316.73126 432.10257 316.15314Q432.63382 315.575 432.63382 314.6375Q432.63382 313.73126 432.1182 313.21564Q431.6182 312.6844 430.79007 312.6844Q430.29007 312.6844 429.8682 312.91876Q429.46194 313.15314 429.22757 313.5125L428.2432 313.3875L429.07132 308.98126L433.35257 308.98126L433.35257 309.98126L429.91507 309.98126L429.46194 312.29376Q430.22757 311.7469 431.07132 311.7469Q432.19632 311.7469 432.96194 312.52814Q433.7432 313.3094 433.7432 314.54376Q433.7432 315.7 433.07132 316.5594Q432.2432 317.59064 430.82132 317.59064Q429.64944 317.59064 428.89944 316.9344Q428.16507 316.27814 428.0557 315.2Z" fill-rule="nonzero"/><path fill="#000000" d="M549.1722 316.4344L549.1722 317.45L543.4847 317.45Q543.4847 317.075 543.6097 316.71564Q543.8284 316.1375 544.2972 315.575Q544.78156 315.0125 545.6878 314.27814Q547.09406 313.1219 547.5784 312.45Q548.0784 311.77814 548.0784 311.1844Q548.0784 310.5594 547.6253 310.1375Q547.1722 309.7 546.4534 309.7Q545.6878 309.7 545.2347 310.15314Q544.78156 310.60626 544.7659 311.41876L543.6878 311.3094Q543.7972 310.09064 544.5159 309.46564Q545.2503 308.825 546.4847 308.825Q547.71906 308.825 548.4378 309.5125Q549.15656 310.2 549.15656 311.21564Q549.15656 311.73126 548.9378 312.23126Q548.7347 312.71564 548.2347 313.27814Q547.7503 313.825 546.6253 314.77814Q545.6722 315.575 545.3909 315.8719Q545.1253 316.15314 544.9534 316.4344L549.1722 316.4344ZM550.6253 313.21564Q550.6253 311.6844 550.9378 310.7625Q551.2503 309.825 551.8597 309.325Q552.4847 308.825 553.4222 308.825Q554.1097 308.825 554.6253 309.10626Q555.15656 309.3875 555.5003 309.91876Q555.84406 310.4344 556.03156 311.1844Q556.21906 311.9344 556.21906 313.21564Q556.21906 314.73126 555.90656 315.65314Q555.6097 316.575 554.9847 317.09064Q554.3753 317.59064 553.4222 317.59064Q552.1878 317.59064 551.46906 316.7Q550.6253 315.6375 550.6253 313.21564ZM551.7034 313.21564Q551.7034 315.325 552.2034 316.02814Q552.7034 316.73126 553.4222 316.73126Q554.15656 316.73126 554.6409 316.02814Q555.1409 315.325 555.1409 313.21564Q555.1409 311.09064 554.6409 310.40314Q554.15656 309.7 553.40656 309.7Q552.6878 309.7 552.2503 310.3094Q551.7034 311.09064 551.7034 313.21564Z" fill-rule="nonzero"/><path fill="#5891ad" d="M209.5 85.916664C209.5 89.23038 206.8137 91.916664 203.5 91.916664C200.1863 91.916664 197.5 89.23038 197.5 85.916664C197.5 82.60296 200.1863 79.916664 203.5 79.916664C206.8137 79.916664 209.5 82.60296 209.5 85.916664Z" fill-rule="nonzero"/><path fill="#1a1a1a" d="M218.39062 89.916664L218.39062 81.322914L220.10938 81.322914L222.14062 87.40104Q222.42188 88.260414 222.54688 88.68229Q222.6875 88.21354 223.0 87.30729L225.0625 81.322914L226.59375 81.322914L226.59375 89.916664L225.5 89.916664L225.5 82.729164L223.0 89.916664L221.96875 89.916664L219.48438 82.604164L219.48438 89.916664L218.39062 89.916664ZM227.29688 82.541664L227.29688 81.322914L228.35938 81.322914L228.35938 82.541664L227.29688 82.541664ZM227.29688 89.916664L227.29688 83.697914L228.35938 83.697914L228.35938 89.916664L227.29688 89.916664ZM230.29688 89.916664L230.29688 83.697914L231.23438 83.697914L231.23438 84.572914Q231.92188 83.55729 233.21875 83.55729Q233.78125 83.55729 234.25 83.760414Q234.73438 83.96354 234.96875 84.291664Q235.20312 84.61979 235.29688 85.05729Q235.34375 85.354164 235.34375 86.08854L235.34375 89.916664L234.29688 89.916664L234.29688 86.135414Q234.29688 85.479164 234.17188 85.166664Q234.04688 84.854164 233.73438 84.666664Q233.42188 84.46354 233.0 84.46354Q232.32812 84.46354 231.82812 84.90104Q231.34375 85.322914 231.34375 86.510414L231.34375 89.916664L230.29688 89.916664ZM237.29688 82.541664L237.29688 81.322914L238.35938 81.322914L238.35938 82.541664L237.29688 82.541664ZM237.29688 89.916664L237.29688 83.697914L238.35938 83.697914L238.35938 89.916664L237.29688 89.916664ZM240.29688 89.916664L240.29688 83.697914L241.23438 83.697914L241.23438 84.572914Q241.53125 84.104164 242.01562 83.83854Q242.5 83.55729 243.125 83.55729Q243.8125 83.55729 244.25 83.83854Q244.70312 84.11979 244.875 84.635414Q245.625 83.55729 246.79688 83.55729Q247.73438 83.55729 248.21875 84.072914Q248.71875 84.572914 248.71875 85.65104L248.71875 89.916664L247.67188 89.916664L247.67188 85.99479Q247.67188 85.36979 247.5625 85.08854Q247.46875 84.80729 247.20312 84.635414Q246.9375 84.46354 246.5625 84.46354Q245.90625 84.46354 245.46875 84.90104Q245.04688 85.33854 245.04688 86.30729L245.04688 89.916664L243.98438 89.916664L243.98438 85.86979Q243.98438 85.166664 243.71875 84.822914Q243.46875 84.46354 242.89062 84.46354Q242.4375 84.46354 242.0625 84.697914Q241.6875 84.93229 241.51562 85.385414Q241.34375 85.83854 241.34375 86.68229L241.34375 89.916664L240.29688 89.916664ZM255.35938 89.15104Q254.76562 89.65104 254.21875 89.854164Q253.6875 90.05729 253.0625 90.05729Q252.03125 90.05729 251.48438 89.55729Q250.9375 89.05729 250.9375 88.27604Q250.9375 87.822914 251.14062 87.447914Q251.34375 87.05729 251.6875 86.83854Q252.03125 86.604164 252.45312 86.49479Q252.75 86.40104 253.39062 86.322914Q254.65625 86.18229 255.26562 85.96354Q255.26562 85.74479 255.26562 85.697914Q255.26562 85.041664 254.96875 84.77604Q254.5625 84.43229 253.76562 84.43229Q253.03125 84.43229 252.67188 84.697914Q252.3125 84.947914 252.14062 85.604164L251.10938 85.46354Q251.25 84.80729 251.57812 84.40104Q251.90625 83.99479 252.51562 83.77604Q253.125 83.55729 253.92188 83.55729Q254.71875 83.55729 255.21875 83.74479Q255.71875 83.93229 255.95312 84.21354Q256.1875 84.49479 256.28125 84.93229Q256.32812 85.197914 256.32812 85.90104L256.32812 87.30729Q256.32812 88.77604 256.39062 89.166664Q256.46875 89.55729 256.67188 89.916664L255.5625 89.916664Q255.40625 89.58854 255.35938 89.15104ZM255.26562 86.791664Q254.6875 87.02604 253.54688 87.197914Q252.89062 87.291664 252.625 87.416664Q252.35938 87.52604 252.20312 87.74479Q252.0625 87.96354 252.0625 88.24479Q252.0625 88.666664 252.375 88.947914Q252.70312 89.229164 253.3125 89.229164Q253.92188 89.229164 254.39062 88.96354Q254.875 88.697914 255.09375 88.229164Q255.26562 87.86979 255.26562 87.18229L255.26562 86.791664ZM257.59375 89.916664L259.85938 86.68229L257.76562 83.697914L259.07812 83.697914L260.03125 85.15104Q260.29688 85.572914 260.46875 85.854164Q260.71875 85.46354 260.9375 85.166664L261.98438 83.697914L263.25 83.697914L261.09375 86.61979L263.40625 89.916664L262.125 89.916664L260.84375 87.979164L260.5 87.46354L258.85938 89.916664L257.59375 89.916664Z" fill-rule="nonzero"/><path fill="#004561" d="M290.5 85.916664C290.5 89.23038 287.81372 91.916664 284.5 91.916664C281.18628 91.916664 278.5 89.23038 278.5 85.916664C278.5 82.60296 281.18628 79.916664 284.5 79.916664C287.81372 79.916664 290.5 82.60296 290.5 85.916664Z" fill-rule="nonzero"/><path fill="#1a1a1a" d="M298.48438 89.916664L301.78125 81.322914L303.0 81.322914L306.51562 89.916664L305.23438 89.916664L304.21875 87.30729L300.64062 87.30729L299.6875 89.916664L298.48438 89.916664ZM300.96875 86.385414L303.875 86.385414L302.98438 84.010414Q302.5625 82.93229 302.375 82.229164Q302.20312 83.05729 301.90625 83.86979L300.96875 86.385414ZM306.26562 89.916664L306.26562 81.322914L307.32812 81.322914L307.32812 89.916664L306.26562 89.916664ZM309.29688 92.30729L309.29688 83.697914L310.25 83.697914L310.25 84.49479Q310.59375 84.02604 311.01562 83.791664Q311.45312 83.55729 312.0625 83.55729Q312.85938 83.55729 313.46875 83.96354Q314.07812 84.36979 314.375 85.11979Q314.6875 85.86979 314.6875 86.760414Q314.6875 87.71354 314.34375 88.479164Q314.01562 89.24479 313.35938 89.65104Q312.70312 90.05729 311.98438 90.05729Q311.45312 90.05729 311.03125 89.83854Q310.60938 89.604164 310.34375 89.27604L310.34375 92.30729L309.29688 92.30729ZM310.25 86.83854Q310.25 88.041664 310.73438 88.61979Q311.21875 89.18229 311.90625 89.18229Q312.60938 89.18229 313.10938 88.58854Q313.60938 87.99479 313.60938 86.74479Q313.60938 85.55729 313.125 84.979164Q312.64062 84.385414 311.95312 84.385414Q311.28125 84.385414 310.76562 85.010414Q310.25 85.635414 310.25 86.83854ZM316.29688 89.916664L316.29688 81.322914L317.34375 81.322914L317.34375 84.40104Q318.07812 83.55729 319.20312 83.55729Q319.90625 83.55729 320.40625 83.83854Q320.92188 84.104164 321.14062 84.58854Q321.35938 85.05729 321.35938 85.979164L321.35938 89.916664L320.3125 89.916664L320.3125 85.979164Q320.3125 85.18229 319.96875 84.822914Q319.625 84.46354 319.0 84.46354Q318.53125 84.46354 318.10938 84.71354Q317.70312 84.947914 317.51562 85.36979Q317.34375 85.77604 317.34375 86.510414L317.34375 89.916664L316.29688 89.916664ZM327.35938 89.15104Q326.76562 89.65104 326.21875 89.854164Q325.6875 90.05729 325.0625 90.05729Q324.03125 90.05729 323.48438 89.55729Q322.9375 89.05729 322.9375 88.27604Q322.9375 87.822914 323.14062 87.447914Q323.34375 87.05729 323.6875 86.83854Q324.03125 86.604164 324.45312 86.49479Q324.75 86.40104 325.39062 86.322914Q326.65625 86.18229 327.26562 85.96354Q327.26562 85.74479 327.26562 85.697914Q327.26562 85.041664 326.96875 84.77604Q326.5625 84.43229 325.76562 84.43229Q325.03125 84.43229 324.67188 84.697914Q324.3125 84.947914 324.14062 85.604164L323.10938 85.46354Q323.25 84.80729 323.57812 84.40104Q323.90625 83.99479 324.51562 83.77604Q325.125 83.55729 325.92188 83.55729Q326.71875 83.55729 327.21875 83.74479Q327.71875 83.93229 327.95312 84.21354Q328.1875 84.49479 328.28125 84.93229Q328.32812 85.197914 328.32812 85.90104L328.32812 87.30729Q328.32812 88.77604 328.39062 89.166664Q328.46875 89.55729 328.67188 89.916664L327.5625 89.916664Q327.40625 89.58854 327.35938 89.15104ZM327.26562 86.791664Q326.6875 87.02604 325.54688 87.197914Q324.89062 87.291664 324.625 87.416664Q324.35938 87.52604 324.20312 87.74479Q324.0625 87.96354 324.0625 88.24479Q324.0625 88.666664 324.375 88.947914Q324.70312 89.229164 325.3125 89.229164Q325.92188 89.229164 326.39062 88.96354Q326.875 88.697914 327.09375 88.229164Q327.26562 87.86979 327.26562 87.18229L327.26562 86.791664ZM329.875 87.33854L329.875 86.27604L333.125 86.27604L333.125 87.33854L329.875 87.33854ZM335.26562 89.916664L334.28125 89.916664L334.28125 81.322914L335.34375 81.322914L335.34375 84.385414Q336.01562 83.55729 337.04688 83.55729Q337.625 83.55729 338.125 83.791664Q338.64062 84.010414 338.96875 84.43229Q339.3125 84.854164 339.5 85.447914Q339.6875 86.041664 339.6875 86.71354Q339.6875 88.30729 338.89062 89.18229Q338.09375 90.05729 337.0 90.05729Q335.89062 90.05729 335.26562 89.135414L335.26562 89.916664ZM335.25 86.760414Q335.25 87.86979 335.5625 88.36979Q336.0625 89.18229 336.90625 89.18229Q337.59375 89.18229 338.09375 88.58854Q338.60938 87.99479 338.60938 86.791664Q338.60938 85.572914 338.125 84.99479Q337.64062 84.416664 336.95312 84.416664Q336.26562 84.416664 335.75 85.02604Q335.25 85.61979 335.25 86.760414ZM345.54688 87.916664L346.64062 88.041664Q346.39062 88.99479 345.6875 89.52604Q344.98438 90.05729 343.90625 90.05729Q342.54688 90.05729 341.73438 89.21354Q340.9375 88.36979 340.9375 86.854164Q340.9375 85.291664 341.75 84.43229Q342.5625 83.55729 343.84375 83.55729Q345.09375 83.55729 345.875 84.40104Q346.67188 85.24479 346.67188 86.791664Q346.67188 86.885414 346.67188 87.072914L342.03125 87.072914Q342.09375 88.104164 342.60938 88.65104Q343.125 89.18229 343.90625 89.18229Q344.48438 89.18229 344.89062 88.885414Q345.3125 88.572914 345.54688 87.916664ZM342.09375 86.21354L345.5625 86.21354Q345.5 85.416664 345.17188 85.02604Q344.65625 84.416664 343.85938 84.416664Q343.125 84.416664 342.625 84.90104Q342.14062 85.385414 342.09375 86.21354ZM350.59375 88.979164L350.75 89.90104Q350.29688 89.99479 349.95312 89.99479Q349.375 89.99479 349.0625 89.822914Q348.75 89.635414 348.60938 89.33854Q348.48438 89.041664 348.48438 88.08854L348.48438 84.510414L347.71875 84.510414L347.71875 83.697914L348.48438 83.697914L348.48438 82.15104L349.53125 81.52604L349.53125 83.697914L350.59375 83.697914L350.59375 84.510414L349.53125 84.510414L349.53125 88.15104Q349.53125 88.604164 349.57812 88.729164Q349.64062 88.854164 349.76562 88.93229Q349.89062 89.010414 350.125 89.010414Q350.3125 89.010414 350.59375 88.979164ZM355.35938 89.15104Q354.76562 89.65104 354.21875 89.854164Q353.6875 90.05729 353.0625 90.05729Q352.03125 90.05729 351.48438 89.55729Q350.9375 89.05729 350.9375 88.27604Q350.9375 87.822914 351.14062 87.447914Q351.34375 87.05729 351.6875 86.83854Q352.03125 86.604164 352.45312 86.49479Q352.75 86.40104 353.39062 86.322914Q354.65625 86.18229 355.26562 85.96354Q355.26562 85.74479 355.26562 85.697914Q355.26562 85.041664 354.96875 84.77604Q354.5625 84.43229 353.76562 84.43229Q353.03125 84.43229 352.67188 84.697914Q352.3125 84.947914 352.14062 85.604164L351.10938 85.46354Q351.25 84.80729 351.57812 84.40104Q351.90625 83.99479 352.51562 83.77604Q353.125 83.55729 353.92188 83.55729Q354.71875 83.55729 355.21875 83.74479Q355.71875 83.93229 355.95312 84.21354Q356.1875 84.49479 356.28125 84.93229Q356.32812 85.197914 356.32812 85.90104L356.32812 87.30729Q356.32812 88.77604 356.39062 89.166664Q356.46875 89.55729 356.67188 89.916664L355.5625 89.916664Q355.40625 89.58854 355.35938 89.15104ZM355.26562 86.791664Q354.6875 87.02604 353.54688 87.197914Q352.89062 87.291664 352.625 87.416664Q352.35938 87.52604 352.20312 87.74479Q352.0625 87.96354 352.0625 88.24479Q352.0625 88.666664 352.375 88.947914Q352.70312 89.229164 353.3125 89.229164Q353.92188 89.229164 354.39062 88.96354Q354.875 88.697914 355.09375 88.229164Q355.26562 87.86979 355.26562 87.18229L355.26562 86.791664ZM361.29688 92.30729L361.29688 83.697914L362.25 83.697914L362.25 84.49479Q362.59375 84.02604 363.01562 83.791664Q363.45312 83.55729 364.0625 83.55729Q364.85938 83.55729 365.46875 83.96354Q366.07812 84.36979 366.375 85.11979Q366.6875 85.86979 366.6875 86.760414Q366.6875 87.71354 366.34375 88.479164Q366.01562 89.24479 365.35938 89.65104Q364.70312 90.05729 363.98438 90.05729Q363.45312 90.05729 363.03125 89.83854Q362.60938 89.604164 362.34375 89.27604L362.34375 92.30729L361.29688 92.30729ZM362.25 86.83854Q362.25 88.041664 362.73438 88.61979Q363.21875 89.18229 363.90625 89.18229Q364.60938 89.18229 365.10938 88.58854Q365.60938 87.99479 365.60938 86.74479Q365.60938 85.55729 365.125 84.979164Q364.64062 84.385414 363.95312 84.385414Q363.28125 84.385414 362.76562 85.010414Q362.25 85.635414 362.25 86.83854ZM368.28125 89.916664L368.28125 83.697914L369.23438 83.697914L369.23438 84.635414Q369.59375 83.979164 369.89062 83.77604Q370.20312 83.55729 370.57812 83.55729Q371.10938 83.55729 371.65625 83.885414L371.29688 84.86979Q370.90625 84.635414 370.53125 84.635414Q370.17188 84.635414 369.89062 84.854164Q369.625 85.05729 369.51562 85.43229Q369.32812 85.99479 369.32812 86.65104L369.32812 89.916664L368.28125 89.916664ZM376.375 89.916664L376.375 88.99479Q375.64062 90.05729 374.39062 90.05729Q373.84375 90.05729 373.35938 89.854164Q372.89062 89.635414 372.65625 89.322914Q372.42188 88.99479 372.32812 88.52604Q372.26562 88.229164 372.26562 87.541664L372.26562 83.697914L373.32812 83.697914L373.32812 87.15104Q373.32812 87.96354 373.39062 88.260414Q373.48438 88.666664 373.79688 88.916664Q374.125 89.15104 374.60938 89.15104Q375.07812 89.15104 375.48438 88.916664Q375.90625 88.666664 376.07812 88.24479Q376.26562 87.822914 376.26562 87.02604L376.26562 83.697914L377.3125 83.697914L377.3125 89.916664L376.375 89.916664ZM379.29688 89.916664L379.29688 83.697914L380.23438 83.697914L380.23438 84.572914Q380.92188 83.55729 382.21875 83.55729Q382.78125 83.55729 383.25 83.760414Q383.73438 83.96354 383.96875 84.291664Q384.20312 84.61979 384.29688 85.05729Q384.34375 85.354164 384.34375 86.08854L384.34375 89.916664L383.29688 89.916664L383.29688 86.135414Q383.29688 85.479164 383.17188 85.166664Q383.04688 84.854164 382.73438 84.666664Q382.42188 84.46354 382.0 84.46354Q381.32812 84.46354 380.82812 84.90104Q380.34375 85.322914 380.34375 86.510414L380.34375 89.916664L379.29688 89.916664ZM386.29688 82.541664L386.29688 81.322914L387.35938 81.322914L387.35938 82.541664L386.29688 82.541664ZM386.29688 89.916664L386.29688 83.697914L387.35938 83.697914L387.35938 89.916664L386.29688 89.916664ZM389.29688 89.916664L389.29688 83.697914L390.23438 83.697914L390.23438 84.572914Q390.92188 83.55729 392.21875 83.55729Q392.78125 83.55729 393.25 83.760414Q393.73438 83.96354 393.96875 84.291664Q394.20312 84.61979 394.29688 85.05729Q394.34375 85.354164 394.34375 86.08854L394.34375 89.916664L393.29688 89.916664L393.29688 86.135414Q393.29688 85.479164 393.17188 85.166664Q393.04688 84.854164 392.73438 84.666664Q392.42188 84.46354 392.0 84.46354Q391.32812 84.46354 390.82812 84.90104Q390.34375 85.322914 390.34375 86.510414L390.34375 89.916664L389.29688 89.916664ZM396.09375 90.43229L397.125 90.58854Q397.1875 91.05729 397.48438 91.27604Q397.875 91.572914 398.54688 91.572914Q399.28125 91.572914 399.67188 91.27604Q400.07812 90.979164 400.21875 90.46354Q400.3125 90.135414 400.29688 89.104164Q399.60938 89.916664 398.57812 89.916664Q397.29688 89.916664 396.59375 88.99479Q395.89062 88.05729 395.89062 86.77604Q395.89062 85.885414 396.20312 85.135414Q396.53125 84.36979 397.14062 83.96354Q397.75 83.55729 398.57812 83.55729Q399.6875 83.55729 400.40625 84.447914L400.40625 83.697914L401.375 83.697914L401.375 89.072914Q401.375 90.52604 401.07812 91.135414Q400.78125 91.74479 400.14062 92.08854Q399.5 92.447914 398.5625 92.447914Q397.45312 92.447914 396.76562 91.947914Q396.07812 91.447914 396.09375 90.43229ZM396.96875 86.697914Q396.96875 87.916664 397.45312 88.479164Q397.9375 89.041664 398.67188 89.041664Q399.40625 89.041664 399.89062 88.479164Q400.39062 87.916664 400.39062 86.729164Q400.39062 85.58854 399.875 85.010414Q399.375 84.43229 398.65625 84.43229Q397.95312 84.43229 397.45312 85.010414Q396.96875 85.572914 396.96875 86.697914Z" fill-rule="nonzero"/><path fill="#757575" d="M22.08125 29.784374Q20.9875 29.378124 20.45625 28.64375Q19.940624 27.89375 19.940624 26.8625Q19.940624 25.3 21.065624 24.2375Q22.190624 23.175 24.05 23.175Q25.925 23.175 27.065624 24.26875Q28.20625 25.346874 28.20625 26.909374Q28.20625 27.909374 27.675 28.64375Q27.159374 29.378124 26.096874 29.784374Q27.425 30.221874 28.1125 31.175Q28.8 32.128124 28.8 33.45625Q28.8 35.3 27.4875 36.55Q26.190624 37.8 24.08125 37.8Q21.95625 37.8 20.659374 36.55Q19.3625 35.284374 19.3625 33.409374Q19.3625 32.01875 20.065624 31.08125Q20.784374 30.128124 22.08125 29.784374ZM21.7375 26.8Q21.7375 27.815624 22.39375 28.471874Q23.05 29.1125 24.08125 29.1125Q25.096874 29.1125 25.753124 28.471874Q26.409374 27.83125 26.409374 26.909374Q26.409374 25.940624 25.7375 25.284374Q25.065624 24.6125 24.065624 24.6125Q23.065624 24.6125 22.39375 25.26875Q21.7375 25.909374 21.7375 26.8ZM21.175 33.425Q21.175 34.175 21.51875 34.878124Q21.878124 35.58125 22.58125 35.971874Q23.284374 36.346874 24.096874 36.346874Q25.3625 36.346874 26.175 35.534374Q27.003124 34.721874 27.003124 33.471874Q27.003124 32.20625 26.159374 31.378124Q25.315624 30.55 24.034374 30.55Q22.8 30.55 21.9875 31.378124Q21.175 32.190624 21.175 33.425ZM29.690624 37.55L33.4875 32.159374L29.9875 27.175L32.175 27.175L33.76875 29.6125Q34.221874 30.3 34.4875 30.76875Q34.925 30.128124 35.284374 29.628124L37.034374 27.175L39.128124 27.175L35.55 32.065624L39.409374 37.55L37.253124 37.55L35.1125 34.33125L34.55 33.45625L31.83125 37.55L29.690624 37.55ZM42.08125 29.784374Q40.9875 29.378124 40.45625 28.64375Q39.940624 27.89375 39.940624 26.8625Q39.940624 25.3 41.065624 24.2375Q42.190624 23.175 44.05 23.175Q45.925 23.175 47.065624 24.26875Q48.20625 25.346874 48.20625 26.909374Q48.20625 27.909374 47.675 28.64375Q47.159374 29.378124 46.096874 29.784374Q47.425 30.221874 48.1125 31.175Q48.8 32.128124 48.8 33.45625Q48.8 35.3 47.4875 36.55Q46.190624 37.8 44.08125 37.8Q41.95625 37.8 40.659374 36.55Q39.3625 35.284374 39.3625 33.409374Q39.3625 32.01875 40.065624 31.08125Q40.784374 30.128124 42.08125 29.784374ZM41.7375 26.8Q41.7375 27.815624 42.39375 28.471874Q43.05 29.1125 44.08125 29.1125Q45.096874 29.1125 45.753124 28.471874Q46.409374 27.83125 46.409374 26.909374Q46.409374 25.940624 45.7375 25.284374Q45.065624 24.6125 44.065624 24.6125Q43.065624 24.6125 42.39375 25.26875Q41.7375 25.909374 41.7375 26.8ZM41.175 33.425Q41.175 34.175 41.51875 34.878124Q41.878124 35.58125 42.58125 35.971874Q43.284374 36.346874 44.096874 36.346874Q45.3625 36.346874 46.175 35.534374Q47.003124 34.721874 47.003124 33.471874Q47.003124 32.20625 46.159374 31.378124Q45.315624 30.55 44.034374 30.55Q42.8 30.55 41.9875 31.378124Q41.175 32.190624 41.175 33.425ZM58.4875 37.55L56.8625 37.55L56.8625 23.2375L58.6125 23.2375L58.6125 28.346874Q59.7375 26.940624 61.45625 26.940624Q62.409374 26.940624 63.26875 27.33125Q64.12813 27.721874 64.675 28.425Q65.22188 29.1125 65.53438 30.096874Q65.84688 31.08125 65.84688 32.20625Q65.84688 34.878124 64.53438 36.33125Q63.221874 37.784374 61.378124 37.784374Q59.534374 37.784374 58.4875 36.253124L58.4875 37.55ZM58.471874 32.284374Q58.471874 34.14375 58.971874 34.9875Q59.815624 36.33125 61.221874 36.33125Q62.378124 36.33125 63.20625 35.33125Q64.05 34.33125 64.05 32.346874Q64.05 30.315624 63.2375 29.3625Q62.440624 28.39375 61.3 28.39375Q60.14375 28.39375 59.3 29.39375Q58.471874 30.39375 58.471874 32.284374ZM67.22188 32.3625Q67.22188 29.4875 68.81563 28.096874Q70.15938 26.940624 72.08125 26.940624Q74.22188 26.940624 75.56563 28.346874Q76.925 29.753124 76.925 32.221874Q76.925 34.221874 76.33125 35.378124Q75.7375 36.51875 74.58125 37.159374Q73.44063 37.784374 72.08125 37.784374Q69.89375 37.784374 68.55 36.39375Q67.22188 34.9875 67.22188 32.3625ZM69.01875 32.3625Q69.01875 34.3625 69.87813 35.346874Q70.75313 36.33125 72.08125 36.33125Q73.39375 36.33125 74.25313 35.346874Q75.12813 34.346874 75.12813 32.3Q75.12813 30.378124 74.25313 29.39375Q73.37813 28.39375 72.08125 28.39375Q70.75313 28.39375 69.87813 29.39375Q69.01875 30.378124 69.01875 32.3625ZM85.64375 36.26875Q84.65938 37.096874 83.75313 37.440624Q82.84688 37.784374 81.81563 37.784374Q80.1125 37.784374 79.19063 36.95625Q78.26875 36.1125 78.26875 34.815624Q78.26875 34.05 78.6125 33.425Q78.97188 32.8 79.53438 32.425Q80.09688 32.034374 80.8 31.83125Q81.31563 31.70625 82.3625 31.565624Q84.4875 31.315624 85.4875 30.971874Q85.50313 30.6125 85.50313 30.503124Q85.50313 29.440624 85.00313 28.9875Q84.33125 28.39375 83.00313 28.39375Q81.75313 28.39375 81.15938 28.83125Q80.58125 29.26875 80.3 30.378124L78.58125 30.14375Q78.81563 29.034374 79.34688 28.3625Q79.87813 27.675 80.89375 27.315624Q81.90938 26.940624 83.25313 26.940624Q84.58125 26.940624 85.40938 27.253124Q86.2375 27.565624 86.62813 28.05Q87.01875 28.51875 87.175 29.2375Q87.26875 29.690624 87.26875 30.8625L87.26875 33.20625Q87.26875 35.659374 87.37813 36.315624Q87.4875 36.95625 87.83125 37.55L85.9875 37.55Q85.72188 37.003124 85.64375 36.26875ZM85.4875 32.346874Q84.53438 32.7375 82.6125 33.003124Q81.53438 33.159374 81.08125 33.3625Q80.64375 33.55 80.39375 33.925Q80.14375 34.3 80.14375 34.76875Q80.14375 35.471874 80.675 35.940624Q81.20625 36.409374 82.2375 36.409374Q83.25313 36.409374 84.03438 35.971874Q84.83125 35.51875 85.20625 34.753124Q85.4875 34.14375 85.4875 32.9875L85.4875 32.346874ZM89.84688 37.55L89.84688 27.175L91.425 27.175L91.425 28.753124Q92.03438 27.64375 92.55 27.3Q93.06563 26.940624 93.675 26.940624Q94.56563 26.940624 95.4875 27.503124L94.87813 29.14375Q94.2375 28.753124 93.59688 28.753124Q93.01875 28.753124 92.55 29.1125Q92.09688 29.45625 91.89375 30.065624Q91.6125 31.003124 91.6125 32.1125L91.6125 37.55L89.84688 37.55ZM103.59688 37.55L103.59688 36.2375Q102.6125 37.784374 100.69063 37.784374Q99.45625 37.784374 98.40938 37.096874Q97.37813 36.409374 96.8 35.190624Q96.2375 33.971874 96.2375 32.378124Q96.2375 30.815624 96.75313 29.55Q97.26875 28.284374 98.3 27.6125Q99.34688 26.940624 100.6125 26.940624Q101.55 26.940624 102.28438 27.346874Q103.01875 27.7375 103.4875 28.3625L103.4875 23.2375L105.22188 23.2375L105.22188 37.55L103.59688 37.55ZM98.03438 32.378124Q98.03438 34.3625 98.87813 35.346874Q99.72188 36.33125 100.8625 36.33125Q102.01875 36.33125 102.81563 35.39375Q103.62813 34.45625 103.62813 32.51875Q103.62813 30.39375 102.8 29.39375Q101.9875 28.39375 100.78438 28.39375Q99.6125 28.39375 98.81563 29.3625Q98.03438 30.315624 98.03438 32.378124ZM108.33125 37.55L108.33125 35.55L110.33125 35.55L110.33125 37.55Q110.33125 38.659374 109.94063 39.33125Q109.55 40.01875 108.70625 40.378124L108.20625 39.628124Q108.76875 39.39375 109.03438 38.909374Q109.3 38.440624 109.33125 37.55L108.33125 37.55ZM121.78438 37.55L118.6125 27.175L120.425 27.175L122.08125 33.159374L122.69063 35.39375Q122.7375 35.221874 123.22188 33.253124L124.87813 27.175L126.69063 27.175L128.2375 33.190624L128.75313 35.175L129.34688 33.175L131.12813 27.175L132.83125 27.175L129.59688 37.55L127.76875 37.55L126.1125 31.33125L125.72188 29.565624L123.6125 37.55L121.78438 37.55ZM134.87813 25.253124L134.87813 23.2375L136.64375 23.2375L136.64375 25.253124L134.87813 25.253124ZM134.87813 37.55L134.87813 27.175L136.64375 27.175L136.64375 37.55L134.87813 37.55ZM138.8625 37.55L138.8625 27.175L140.45625 27.175L140.45625 28.659374Q141.59688 26.940624 143.75313 26.940624Q144.69063 26.940624 145.47188 27.284374Q146.26875 27.6125 146.65938 28.159374Q147.05 28.70625 147.20625 29.45625Q147.3 29.95625 147.3 31.175L147.3 37.55L145.53438 37.55L145.53438 31.2375Q145.53438 30.159374 145.33125 29.628124Q145.12813 29.096874 144.59688 28.784374Q144.08125 28.471874 143.37813 28.471874Q142.25313 28.471874 141.44063 29.190624Q140.62813 29.89375 140.62813 31.878124L140.62813 37.55L138.8625 37.55ZM148.8625 37.55L148.8625 27.175L150.45625 27.175L150.45625 28.659374Q151.59688 26.940624 153.75313 26.940624Q154.69063 26.940624 155.47188 27.284374Q156.26875 27.6125 156.65938 28.159374Q157.05 28.70625 157.20625 29.45625Q157.3 29.95625 157.3 31.175L157.3 37.55L155.53438 37.55L155.53438 31.2375Q155.53438 30.159374 155.33125 29.628124Q155.12813 29.096874 154.59688 28.784374Q154.08125 28.471874 153.37813 28.471874Q152.25313 28.471874 151.44063 29.190624Q150.62813 29.89375 150.62813 31.878124L150.62813 37.55L148.8625 37.55ZM158.87813 25.253124L158.87813 23.2375L160.64375 23.2375L160.64375 25.253124L158.87813 25.253124ZM158.87813 37.55L158.87813 27.175L160.64375 27.175L160.64375 37.55L158.87813 37.55ZM162.8625 37.55L162.8625 27.175L164.45625 27.175L164.45625 28.659374Q165.59688 26.940624 167.75313 26.940624Q168.69063 26.940624 169.47188 27.284374Q170.26875 27.6125 170.65938 28.159374Q171.05 28.70625 171.20625 29.45625Q171.3 29.95625 171.3 31.175L171.3 37.55L169.53438 37.55L169.53438 31.2375Q169.53438 30.159374 169.33125 29.628124Q169.12813 29.096874 168.59688 28.784374Q168.08125 28.471874 167.37813 28.471874Q166.25313 28.471874 165.44063 29.190624Q164.62813 29.89375 164.62813 31.878124L164.62813 37.55L162.8625 37.55ZM172.55 38.409374L174.25313 38.659374Q174.3625 39.45625 174.84688 39.815624Q175.50313 40.3 176.64375 40.3Q177.8625 40.3 178.51875 39.815624Q179.19063 39.33125 179.425 38.45625Q179.56563 37.909374 179.55 36.190624Q178.39375 37.55 176.675 37.55Q174.53438 37.55 173.3625 36.003124Q172.19063 34.45625 172.19063 32.3Q172.19063 30.815624 172.72188 29.565624Q173.26875 28.315624 174.28438 27.628124Q175.31563 26.940624 176.69063 26.940624Q178.51875 26.940624 179.72188 28.425L179.72188 27.175L181.33125 27.175L181.33125 36.14375Q181.33125 38.565624 180.83125 39.565624Q180.34688 40.58125 179.26875 41.159374Q178.20625 41.753124 176.64375 41.753124Q174.8 41.753124 173.64375 40.925Q172.50313 40.096874 172.55 38.409374ZM174.00313 32.175Q174.00313 34.221874 174.81563 35.159374Q175.62813 36.096874 176.84688 36.096874Q178.05 36.096874 178.8625 35.159374Q179.69063 34.221874 179.69063 32.2375Q179.69063 30.33125 178.84688 29.3625Q178.00313 28.39375 176.81563 28.39375Q175.64375 28.39375 174.81563 29.346874Q174.00313 30.3 174.00313 32.175ZM190.28438 37.55L190.28438 28.55L188.7375 28.55L188.7375 27.175L190.28438 27.175L190.28438 26.08125Q190.28438 25.034374 190.47188 24.51875Q190.72188 23.83125 191.3625 23.409374Q192.00313 22.9875 193.15938 22.9875Q193.90938 22.9875 194.8 23.159374L194.53438 24.690624Q193.9875 24.596874 193.50313 24.596874Q192.70625 24.596874 192.3625 24.940624Q192.03438 25.284374 192.03438 26.221874L192.03438 27.175L194.06563 27.175L194.06563 28.55L192.03438 28.55L192.03438 37.55L190.28438 37.55ZM202.64375 36.26875Q201.65938 37.096874 200.75313 37.440624Q199.84688 37.784374 198.81563 37.784374Q197.1125 37.784374 196.19063 36.95625Q195.26875 36.1125 195.26875 34.815624Q195.26875 34.05 195.6125 33.425Q195.97188 32.8 196.53438 32.425Q197.09688 32.034374 197.8 31.83125Q198.31563 31.70625 199.3625 31.565624Q201.4875 31.315624 202.4875 30.971874Q202.50313 30.6125 202.50313 30.503124Q202.50313 29.440624 202.00313 28.9875Q201.33125 28.39375 200.00313 28.39375Q198.75313 28.39375 198.15938 28.83125Q197.58125 29.26875 197.3 30.378124L195.58125 30.14375Q195.81563 29.034374 196.34688 28.3625Q196.87813 27.675 197.89375 27.315624Q198.90938 26.940624 200.25313 26.940624Q201.58125 26.940624 202.40938 27.253124Q203.2375 27.565624 203.62813 28.05Q204.01875 28.51875 204.175 29.2375Q204.26875 29.690624 204.26875 30.8625L204.26875 33.20625Q204.26875 35.659374 204.37813 36.315624Q204.4875 36.95625 204.83125 37.55L202.9875 37.55Q202.72188 37.003124 202.64375 36.26875ZM202.4875 32.346874Q201.53438 32.7375 199.6125 33.003124Q198.53438 33.159374 198.08125 33.3625Q197.64375 33.55 197.39375 33.925Q197.14375 34.3 197.14375 34.76875Q197.14375 35.471874 197.675 35.940624Q198.20625 36.409374 199.2375 36.409374Q200.25313 36.409374 201.03438 35.971874Q201.83125 35.51875 202.20625 34.753124Q202.4875 34.14375 202.4875 32.9875L202.4875 32.346874ZM213.64375 33.753124L215.3625 33.971874Q215.08125 35.76875 213.90938 36.784374Q212.75313 37.784374 211.05 37.784374Q208.925 37.784374 207.62813 36.39375Q206.33125 35.003124 206.33125 32.409374Q206.33125 30.721874 206.87813 29.471874Q207.44063 28.20625 208.58125 27.58125Q209.72188 26.940624 211.06563 26.940624Q212.75313 26.940624 213.81563 27.8Q214.89375 28.659374 215.20625 30.221874L213.4875 30.4875Q213.25313 29.440624 212.62813 28.925Q212.00313 28.39375 211.12813 28.39375Q209.8 28.39375 208.97188 29.346874Q208.14375 30.3 208.14375 32.346874Q208.14375 34.440624 208.94063 35.39375Q209.7375 36.33125 211.03438 36.33125Q212.06563 36.33125 212.75313 35.70625Q213.45625 35.065624 213.64375 33.753124ZM220.70625 35.971874L220.95625 37.534374Q220.22188 37.690624 219.62813 37.690624Q218.675 37.690624 218.14375 37.39375Q217.62813 37.08125 217.40938 36.596874Q217.19063 36.096874 217.19063 34.51875L217.19063 28.55L215.90938 28.55L215.90938 27.175L217.19063 27.175L217.19063 24.6125L218.94063 23.55L218.94063 27.175L220.70625 27.175L220.70625 28.55L218.94063 28.55L218.94063 34.6125Q218.94063 35.3625 219.03438 35.58125Q219.12813 35.784374 219.33125 35.925Q219.55 36.05 219.94063 36.05Q220.22188 36.05 220.70625 35.971874ZM222.22188 32.3625Q222.22188 29.4875 223.81563 28.096874Q225.15938 26.940624 227.08125 26.940624Q229.22188 26.940624 230.56563 28.346874Q231.925 29.753124 231.925 32.221874Q231.925 34.221874 231.33125 35.378124Q230.7375 36.51875 229.58125 37.159374Q228.44063 37.784374 227.08125 37.784374Q224.89375 37.784374 223.55 36.39375Q222.22188 34.9875 222.22188 32.3625ZM224.01875 32.3625Q224.01875 34.3625 224.87813 35.346874Q225.75313 36.33125 227.08125 36.33125Q228.39375 36.33125 229.25313 35.346874Q230.12813 34.346874 230.12813 32.3Q230.12813 30.378124 229.25313 29.39375Q228.37813 28.39375 227.08125 28.39375Q225.75313 28.39375 224.87813 29.39375Q224.01875 30.378124 224.01875 32.3625ZM233.84688 37.55L233.84688 27.175L235.425 27.175L235.425 28.753124Q236.03438 27.64375 236.55 27.3Q237.06563 26.940624 237.675 26.940624Q238.56563 26.940624 239.4875 27.503124L238.87813 29.14375Q238.2375 28.753124 237.59688 28.753124Q237.01875 28.753124 236.55 29.1125Q236.09688 29.45625 235.89375 30.065624Q235.6125 31.003124 235.6125 32.1125L235.6125 37.55L233.84688 37.55ZM246.37813 33.8L248.22188 33.64375Q248.425 34.9875 249.175 35.675Q249.925 36.346874 250.9875 36.346874Q252.25313 36.346874 253.12813 35.39375Q254.00313 34.440624 254.00313 32.846874Q254.00313 31.346874 253.15938 30.4875Q252.31563 29.6125 250.95625 29.6125Q250.09688 29.6125 249.40938 30.003124Q248.7375 30.378124 248.34688 31.003124L246.69063 30.784374L248.08125 23.425L255.20625 23.425L255.20625 25.1125L249.4875 25.1125L248.72188 28.95625Q250.00313 28.05 251.425 28.05Q253.3 28.05 254.58125 29.3625Q255.87813 30.659374 255.87813 32.690624Q255.87813 34.64375 254.7375 36.05Q253.3625 37.8 250.9875 37.8Q249.03438 37.8 247.78438 36.70625Q246.55 35.6125 246.37813 33.8ZM258.33124 37.55L258.33124 35.55L260.33124 35.55L260.33124 37.55Q260.33124 38.659374 259.9406 39.33125Q259.55 40.01875 258.70624 40.378124L258.20624 39.628124Q258.76874 39.39375 259.03436 38.909374Q259.3 38.440624 259.33124 37.55L258.33124 37.55ZM269.8625 37.55L269.8625 27.175L271.4406 27.175L271.4406 28.628124Q271.925 27.878124 272.7375 27.409374Q273.55 26.940624 274.58124 26.940624Q275.7375 26.940624 276.47186 27.425Q277.20624 27.89375 277.51874 28.753124Q278.7531 26.940624 280.72186 26.940624Q282.26874 26.940624 283.09686 27.8Q283.925 28.659374 283.925 30.425L283.925 37.55L282.175 37.55L282.175 31.01875Q282.175 29.95625 282.0031 29.503124Q281.83124 29.034374 281.3781 28.753124Q280.9406 28.471874 280.33124 28.471874Q279.2375 28.471874 278.5031 29.20625Q277.78436 29.925 277.78436 31.51875L277.78436 37.55L276.03436 37.55L276.03436 30.815624Q276.03436 29.64375 275.59686 29.065624Q275.175 28.471874 274.1906 28.471874Q273.45624 28.471874 272.8156 28.8625Q272.1906 29.253124 271.90936 30.003124Q271.6281 30.753124 271.6281 32.175L271.6281 37.55L269.8625 37.55ZM292.64374 36.26875Q291.65936 37.096874 290.7531 37.440624Q289.84686 37.784374 288.8156 37.784374Q287.1125 37.784374 286.1906 36.95625Q285.26874 36.1125 285.26874 34.815624Q285.26874 34.05 285.6125 33.425Q285.97186 32.8 286.53436 32.425Q287.09686 32.034374 287.8 31.83125Q288.3156 31.70625 289.3625 31.565624Q291.4875 31.315624 292.4875 30.971874Q292.5031 30.6125 292.5031 30.503124Q292.5031 29.440624 292.0031 28.9875Q291.33124 28.39375 290.0031 28.39375Q288.7531 28.39375 288.15936 28.83125Q287.58124 29.26875 287.3 30.378124L285.58124 30.14375Q285.8156 29.034374 286.34686 28.3625Q286.8781 27.675 287.89374 27.315624Q288.90936 26.940624 290.2531 26.940624Q291.58124 26.940624 292.40936 27.253124Q293.2375 27.565624 293.6281 28.05Q294.01874 28.51875 294.175 29.2375Q294.26874 29.690624 294.26874 30.8625L294.26874 33.20625Q294.26874 35.659374 294.3781 36.315624Q294.4875 36.95625 294.83124 37.55L292.9875 37.55Q292.72186 37.003124 292.64374 36.26875ZM292.4875 32.346874Q291.53436 32.7375 289.6125 33.003124Q288.53436 33.159374 288.08124 33.3625Q287.64374 33.55 287.39374 33.925Q287.14374 34.3 287.14374 34.76875Q287.14374 35.471874 287.675 35.940624Q288.20624 36.409374 289.2375 36.409374Q290.2531 36.409374 291.03436 35.971874Q291.83124 35.51875 292.20624 34.753124Q292.4875 34.14375 292.4875 32.9875L292.4875 32.346874ZM295.6906 37.55L299.4875 32.159374L295.9875 27.175L298.175 27.175L299.76874 29.6125Q300.22186 30.3 300.4875 30.76875Q300.925 30.128124 301.28436 29.628124L303.03436 27.175L305.1281 27.175L301.55 32.065624L305.40936 37.55L303.2531 37.55L301.1125 34.33125L300.55 33.45625L297.83124 37.55L295.6906 37.55ZM305.1906 33.253124L305.1906 31.4875L310.58124 31.4875L310.58124 33.253124L305.1906 33.253124ZM312.8625 41.51875L312.8625 27.175L314.47186 27.175L314.47186 28.51875Q315.03436 27.7375 315.7375 27.346874Q316.45624 26.940624 317.47186 26.940624Q318.8 26.940624 319.8156 27.628124Q320.83124 28.315624 321.34686 29.565624Q321.8781 30.8 321.8781 32.284374Q321.8781 33.878124 321.3 35.159374Q320.7375 36.425 319.64374 37.1125Q318.55 37.784374 317.34686 37.784374Q316.47186 37.784374 315.76874 37.409374Q315.08124 37.034374 314.6281 36.471874L314.6281 41.51875L312.8625 41.51875ZM314.45624 32.425Q314.45624 34.425 315.26874 35.378124Q316.08124 36.33125 317.2375 36.33125Q318.40936 36.33125 319.2375 35.346874Q320.08124 34.3625 320.08124 32.26875Q320.08124 30.3 319.2531 29.315624Q318.4406 28.315624 317.3156 28.315624Q316.1906 28.315624 315.3156 29.378124Q314.45624 30.425 314.45624 32.425ZM323.83124 37.55L323.83124 23.2375L325.58124 23.2375L325.58124 37.55L323.83124 37.55ZM327.8781 25.253124L327.8781 23.2375L329.64374 23.2375L329.64374 25.253124L327.8781 25.253124ZM327.8781 37.55L327.8781 27.175L329.64374 27.175L329.64374 37.55L327.8781 37.55ZM338.97186 34.20625L340.78436 34.440624Q340.3625 36.01875 339.1906 36.909374Q338.03436 37.784374 336.22186 37.784374Q333.95624 37.784374 332.6125 36.39375Q331.28436 34.9875 331.28436 32.45625Q331.28436 29.83125 332.6281 28.39375Q333.97186 26.940624 336.1281 26.940624Q338.20624 26.940624 339.51874 28.3625Q340.84686 29.76875 340.84686 32.346874Q340.84686 32.503124 340.83124 32.815624L333.09686 32.815624Q333.1906 34.51875 334.0656 35.425Q334.9406 36.33125 336.2375 36.33125Q337.20624 36.33125 337.8781 35.83125Q338.5656 35.315624 338.97186 34.20625ZM333.1906 31.3625L338.9875 31.3625Q338.8781 30.065624 338.33124 29.409374Q337.4875 28.39375 336.14374 28.39375Q334.9406 28.39375 334.1125 29.20625Q333.28436 30.003124 333.1906 31.3625ZM342.15936 34.45625L343.90936 34.175Q344.05 35.221874 344.72186 35.784374Q345.39374 36.33125 346.59686 36.33125Q347.8 36.33125 348.3781 35.846874Q348.97186 35.346874 348.97186 34.690624Q348.97186 34.096874 348.45624 33.753124Q348.09686 33.51875 346.65936 33.159374Q344.72186 32.659374 343.97186 32.315624Q343.2375 31.95625 342.84686 31.33125Q342.45624 30.690624 342.45624 29.925Q342.45624 29.2375 342.76874 28.64375Q343.09686 28.05 343.64374 27.659374Q344.05 27.3625 344.7531 27.159374Q345.47186 26.940624 346.28436 26.940624Q347.5031 26.940624 348.425 27.3Q349.34686 27.64375 349.78436 28.253124Q350.22186 28.846874 350.39374 29.846874L348.675 30.08125Q348.55 29.284374 347.9875 28.846874Q347.425 28.39375 346.40936 28.39375Q345.1906 28.39375 344.675 28.8Q344.15936 29.190624 344.15936 29.721874Q344.15936 30.065624 344.3781 30.346874Q344.58124 30.628124 345.05 30.815624Q345.3156 30.909374 346.59686 31.253124Q348.47186 31.753124 349.20624 32.08125Q349.9406 32.39375 350.3625 33.003124Q350.78436 33.596874 350.78436 34.503124Q350.78436 35.378124 350.26874 36.159374Q349.7531 36.940624 348.78436 37.3625Q347.8156 37.784374 346.59686 37.784374Q344.58124 37.784374 343.51874 36.940624Q342.45624 36.096874 342.15936 34.45625ZM358.39374 33.76875L360.14374 33.534374Q360.45624 35.034374 361.175 35.690624Q361.90936 36.346874 362.95624 36.346874Q364.1906 36.346874 365.03436 35.4875Q365.89374 34.628124 365.89374 33.3625Q365.89374 32.14375 365.09686 31.3625Q364.3156 30.58125 363.09686 30.58125Q362.59686 30.58125 361.8625 30.76875L362.05 29.221874Q362.22186 29.253124 362.33124 29.253124Q363.45624 29.253124 364.34686 28.675Q365.2531 28.08125 365.2531 26.8625Q365.2531 25.89375 364.59686 25.253124Q363.9406 24.6125 362.90936 24.6125Q361.89374 24.6125 361.20624 25.26875Q360.51874 25.909374 360.33124 27.190624L358.5656 26.878124Q358.89374 25.1125 360.03436 24.14375Q361.175 23.175 362.8781 23.175Q364.05 23.175 365.03436 23.675Q366.01874 24.175 366.53436 25.05Q367.0656 25.925 367.0656 26.89375Q367.0656 27.815624 366.5656 28.58125Q366.0656 29.346874 365.09686 29.8Q366.3625 30.08125 367.0656 31.01875Q367.76874 31.940624 367.76874 33.315624Q367.76874 35.190624 366.39374 36.503124Q365.03436 37.8 362.9406 37.8Q361.05 37.8 359.8 36.675Q358.5656 35.55 358.39374 33.76875ZM370.33124 37.55L370.33124 35.55L372.33124 35.55L372.33124 37.55Q372.33124 38.659374 371.9406 39.33125Q371.55 40.01875 370.70624 40.378124L370.20624 39.628124Q370.76874 39.39375 371.03436 38.909374Q371.3 38.440624 371.33124 37.55L370.33124 37.55ZM381.8625 37.55L381.8625 23.2375L383.6281 23.2375L383.6281 28.3625Q384.8625 26.940624 386.7375 26.940624Q387.8781 26.940624 388.72186 27.39375Q389.58124 27.846874 389.9406 28.659374Q390.3156 29.45625 390.3156 30.971874L390.3156 37.55L388.5656 37.55L388.5656 30.971874Q388.5656 29.659374 387.9875 29.065624Q387.40936 28.45625 386.3781 28.45625Q385.59686 28.45625 384.89374 28.8625Q384.20624 29.26875 383.90936 29.971874Q383.6281 30.659374 383.6281 31.878124L383.6281 37.55L381.8625 37.55ZM398.65936 37.55L398.65936 36.01875Q397.45624 37.784374 395.3781 37.784374Q394.45624 37.784374 393.65936 37.440624Q392.8625 37.08125 392.47186 36.55Q392.09686 36.01875 391.9406 35.2375Q391.83124 34.721874 391.83124 33.596874L391.83124 27.175L393.58124 27.175L393.58124 32.925Q393.58124 34.3 393.6906 34.784374Q393.8625 35.471874 394.39374 35.878124Q394.9406 36.26875 395.72186 36.26875Q396.51874 36.26875 397.20624 35.8625Q397.90936 35.45625 398.1906 34.76875Q398.4875 34.065624 398.4875 32.7375L398.4875 27.175L400.2375 27.175L400.2375 37.55L398.65936 37.55ZM401.8625 37.55L401.8625 27.175L403.4406 27.175L403.4406 28.628124Q403.925 27.878124 404.7375 27.409374Q405.55 26.940624 406.58124 26.940624Q407.7375 26.940624 408.47186 27.425Q409.20624 27.89375 409.51874 28.753124Q410.7531 26.940624 412.72186 26.940624Q414.26874 26.940624 415.09686 27.8Q415.925 28.659374 415.925 30.425L415.925 37.55L414.175 37.55L414.175 31.01875Q414.175 29.95625 414.0031 29.503124Q413.83124 29.034374 413.3781 28.753124Q412.9406 28.471874 412.33124 28.471874Q411.2375 28.471874 410.5031 29.20625Q409.78436 29.925 409.78436 31.51875L409.78436 37.55L408.03436 37.55L408.03436 30.815624Q408.03436 29.64375 407.59686 29.065624Q407.175 28.471874 406.1906 28.471874Q405.45624 28.471874 404.8156 28.8625Q404.1906 29.253124 403.90936 30.003124Q403.6281 30.753124 403.6281 32.175L403.6281 37.55L401.8625 37.55ZM424.64374 36.26875Q423.65936 37.096874 422.7531 37.440624Q421.84686 37.784374 420.8156 37.784374Q419.1125 37.784374 418.1906 36.95625Q417.26874 36.1125 417.26874 34.815624Q417.26874 34.05 417.6125 33.425Q417.97186 32.8 418.53436 32.425Q419.09686 32.034374 419.8 31.83125Q420.3156 31.70625 421.3625 31.565624Q423.4875 31.315624 424.4875 30.971874Q424.5031 30.6125 424.5031 30.503124Q424.5031 29.440624 424.0031 28.9875Q423.33124 28.39375 422.0031 28.39375Q420.7531 28.39375 420.15936 28.83125Q419.58124 29.26875 419.3 30.378124L417.58124 30.14375Q417.8156 29.034374 418.34686 28.3625Q418.8781 27.675 419.89374 27.315624Q420.90936 26.940624 422.2531 26.940624Q423.58124 26.940624 424.40936 27.253124Q425.2375 27.565624 425.6281 28.05Q426.01874 28.51875 426.175 29.2375Q426.26874 29.690624 426.26874 30.8625L426.26874 33.20625Q426.26874 35.659374 426.3781 36.315624Q426.4875 36.95625 426.83124 37.55L424.9875 37.55Q424.72186 37.003124 424.64374 36.26875ZM424.4875 32.346874Q423.53436 32.7375 421.6125 33.003124Q420.53436 33.159374 420.08124 33.3625Q419.64374 33.55 419.39374 33.925Q419.14374 34.3 419.14374 34.76875Q419.14374 35.471874 419.675 35.940624Q420.20624 36.409374 421.2375 36.409374Q422.2531 36.409374 423.03436 35.971874Q423.83124 35.51875 424.20624 34.753124Q424.4875 34.14375 424.4875 32.9875L424.4875 32.346874ZM428.8625 37.55L428.8625 27.175L430.45624 27.175L430.45624 28.659374Q431.59686 26.940624 433.7531 26.940624Q434.6906 26.940624 435.47186 27.284374Q436.26874 27.6125 436.65936 28.159374Q437.05 28.70625 437.20624 29.45625Q437.3 29.95625 437.3 31.175L437.3 37.55L435.53436 37.55L435.53436 31.2375Q435.53436 30.159374 435.33124 29.628124Q435.1281 29.096874 434.59686 28.784374Q434.08124 28.471874 433.3781 28.471874Q432.2531 28.471874 431.4406 29.190624Q430.6281 29.89375 430.6281 31.878124L430.6281 37.55L428.8625 37.55ZM444.84686 37.55L444.84686 27.175L446.425 27.175L446.425 28.753124Q447.03436 27.64375 447.55 27.3Q448.0656 26.940624 448.675 26.940624Q449.5656 26.940624 450.4875 27.503124L449.8781 29.14375Q449.2375 28.753124 448.59686 28.753124Q448.01874 28.753124 447.55 29.1125Q447.09686 29.45625 446.89374 30.065624Q446.6125 31.003124 446.6125 32.1125L446.6125 37.55L444.84686 37.55ZM458.97186 34.20625L460.78436 34.440624Q460.3625 36.01875 459.1906 36.909374Q458.03436 37.784374 456.22186 37.784374Q453.95624 37.784374 452.6125 36.39375Q451.28436 34.9875 451.28436 32.45625Q451.28436 29.83125 452.6281 28.39375Q453.97186 26.940624 456.1281 26.940624Q458.20624 26.940624 459.51874 28.3625Q460.84686 29.76875 460.84686 32.346874Q460.84686 32.503124 460.83124 32.815624L453.09686 32.815624Q453.1906 34.51875 454.0656 35.425Q454.9406 36.33125 456.2375 36.33125Q457.20624 36.33125 457.8781 35.83125Q458.5656 35.315624 458.97186 34.20625ZM453.1906 31.3625L458.9875 31.3625Q458.8781 30.065624 458.33124 29.409374Q457.4875 28.39375 456.14374 28.39375Q454.9406 28.39375 454.1125 29.20625Q453.28436 30.003124 453.1906 31.3625ZM469.59686 37.55L469.59686 36.2375Q468.6125 37.784374 466.6906 37.784374Q465.45624 37.784374 464.40936 37.096874Q463.3781 36.409374 462.8 35.190624Q462.2375 33.971874 462.2375 32.378124Q462.2375 30.815624 462.7531 29.55Q463.26874 28.284374 464.3 27.6125Q465.34686 26.940624 466.6125 26.940624Q467.55 26.940624 468.28436 27.346874Q469.01874 27.7375 469.4875 28.3625L469.4875 23.2375L471.22186 23.2375L471.22186 37.55L469.59686 37.55ZM464.03436 32.378124Q464.03436 34.3625 464.8781 35.346874Q465.72186 36.33125 466.8625 36.33125Q468.01874 36.33125 468.8156 35.39375Q469.6281 34.45625 469.6281 32.51875Q469.6281 30.39375 468.8 29.39375Q467.9875 28.39375 466.78436 28.39375Q465.6125 28.39375 464.8156 29.3625Q464.03436 30.315624 464.03436 32.378124ZM474.33124 37.55L474.33124 35.55L476.33124 35.55L476.33124 37.55Q476.33124 38.659374 475.9406 39.33125Q475.55 40.01875 474.70624 40.378124L474.20624 39.628124Q474.76874 39.39375 475.03436 38.909374Q475.3 38.440624 475.33124 37.55L474.33124 37.55ZM485.8625 37.55L485.8625 23.2375L487.6281 23.2375L487.6281 28.3625Q488.8625 26.940624 490.7375 26.940624Q491.8781 26.940624 492.72186 27.39375Q493.58124 27.846874 493.9406 28.659374Q494.3156 29.45625 494.3156 30.971874L494.3156 37.55L492.5656 37.55L492.5656 30.971874Q492.5656 29.659374 491.9875 29.065624Q491.40936 28.45625 490.3781 28.45625Q489.59686 28.45625 488.89374 28.8625Q488.20624 29.26875 487.90936 29.971874Q487.6281 30.659374 487.6281 31.878124L487.6281 37.55L485.8625 37.55ZM502.65936 37.55L502.65936 36.01875Q501.45624 37.784374 499.3781 37.784374Q498.45624 37.784374 497.65936 37.440624Q496.8625 37.08125 496.47186 36.55Q496.09686 36.01875 495.9406 35.2375Q495.83124 34.721874 495.83124 33.596874L495.83124 27.175L497.58124 27.175L497.58124 32.925Q497.58124 34.3 497.6906 34.784374Q497.8625 35.471874 498.39374 35.878124Q498.9406 36.26875 499.72186 36.26875Q500.51874 36.26875 501.20624 35.8625Q501.90936 35.45625 502.1906 34.76875Q502.4875 34.065624 502.4875 32.7375L502.4875 27.175L504.2375 27.175L504.2375 37.55L502.65936 37.55ZM505.8625 37.55L505.8625 27.175L507.4406 27.175L507.4406 28.628124Q507.925 27.878124 508.7375 27.409374Q509.55 26.940624 510.58124 26.940624Q511.7375 26.940624 512.47186 27.425Q513.20624 27.89375 513.51874 28.753124Q514.7531 26.940624 516.72186 26.940624Q518.26874 26.940624 519.09686 27.8Q519.925 28.659374 519.925 30.425L519.925 37.55L518.175 37.55L518.175 31.01875Q518.175 29.95625 518.0031 29.503124Q517.83124 29.034374 517.3781 28.753124Q516.9406 28.471874 516.33124 28.471874Q515.2375 28.471874 514.5031 29.20625Q513.78436 29.925 513.78436 31.51875L513.78436 37.55L512.03436 37.55L512.03436 30.815624Q512.03436 29.64375 511.59686 29.065624Q511.175 28.471874 510.1906 28.471874Q509.45624 28.471874 508.8156 28.8625Q508.1906 29.253124 507.90936 30.003124Q507.6281 30.753124 507.6281 32.175L507.6281 37.55L505.8625 37.55ZM528.64374 36.26875Q527.65936 37.096874 526.7531 37.440624Q525.84686 37.784374 524.8156 37.784374Q523.1125 37.784374 522.1906 36.95625Q521.26874 36.1125 521.26874 34.815624Q521.26874 34.05 521.6125 33.425Q521.97186 32.8 522.53436 32.425Q523.09686 32.034374 523.8 31.83125Q524.3156 31.70625 525.3625 31.565624Q527.4875 31.315624 528.4875 30.971874Q528.5031 30.6125 528.5031 30.503124Q528.5031 29.440624 528.0031 28.9875Q527.33124 28.39375 526.0031 28.39375Q524.7531 28.39375 524.15936 28.83125Q523.58124 29.26875 523.3 30.378124L521.58124 30.14375Q521.8156 29.034374 522.34686 28.3625Q522.8781 27.675 523.89374 27.315624Q524.90936 26.940624 526.2531 26.940624Q527.58124 26.940624 528.40936 27.253124Q529.2375 27.565624 529.6281 28.05Q530.01874 28.51875 530.175 29.2375Q530.26874 29.690624 530.26874 30.8625L530.26874 33.20625Q530.26874 35.659374 530.3781 36.315624Q530.4875 36.95625 530.83124 37.55L528.9875 37.55Q528.72186 37.003124 528.64374 36.26875ZM528.4875 32.346874Q527.53436 32.7375 525.6125 33.003124Q524.53436 33.159374 524.08124 33.3625Q523.64374 33.55 523.39374 33.925Q523.14374 34.3 523.14374 34.76875Q523.14374 35.471874 523.675 35.940624Q524.20624 36.409374 525.2375 36.409374Q526.2531 36.409374 527.03436 35.971874Q527.83124 35.51875 528.20624 34.753124Q528.4875 34.14375 528.4875 32.9875L528.4875 32.346874ZM532.8625 37.55L532.8625 27.175L534.45624 27.175L534.45624 28.659374Q535.59686 26.940624 537.7531 26.940624Q538.6906 26.940624 539.47186 27.284374Q540.26874 27.6125 540.65936 28.159374Q541.05 28.70625 541.20624 29.45625Q541.3 29.95625 541.3 31.175L541.3 37.55L539.53436 37.55L539.53436 31.2375Q539.53436 30.159374 539.33124 29.628124Q539.1281 29.096874 538.59686 28.784374Q538.08124 28.471874 537.3781 28.471874Q536.2531 28.471874 535.4406 29.190624Q534.6281 29.89375 534.6281 31.878124L534.6281 37.55L532.8625 37.55Z" fill-rule="nonzero"/><path fill="#757575" d="M19.159374 58.45625L20.909374 58.175Q21.05 59.221874 21.721874 59.784374Q22.39375 60.33125 23.596874 60.33125Q24.8 60.33125 25.378124 59.846874Q25.971874 59.346874 25.971874 58.690624Q25.971874 58.096874 25.45625 57.753124Q25.096874 57.51875 23.659374 57.159374Q21.721874 56.659374 20.971874 56.315624Q20.2375 55.95625 19.846874 55.33125Q19.45625 54.690624 19.45625 53.925Q19.45625 53.2375 19.76875 52.64375Q20.096874 52.05 20.64375 51.659374Q21.05 51.3625 21.753124 51.159374Q22.471874 50.940624 23.284374 50.940624Q24.503124 50.940624 25.425 51.3Q26.346874 51.64375 26.784374 52.253124Q27.221874 52.846874 27.39375 53.846874L25.675 54.08125Q25.55 53.284374 24.9875 52.846874Q24.425 52.39375 23.409374 52.39375Q22.190624 52.39375 21.675 52.8Q21.159374 53.190624 21.159374 53.721874Q21.159374 54.065624 21.378124 54.346874Q21.58125 54.628124 22.05 54.815624Q22.315624 54.909374 23.596874 55.253124Q25.471874 55.753124 26.20625 56.08125Q26.940624 56.39375 27.3625 57.003124Q27.784374 57.596874 27.784374 58.503124Q27.784374 59.378124 27.26875 60.159374Q26.753124 60.940624 25.784374 61.3625Q24.815624 61.784374 23.596874 61.784374Q21.58125 61.784374 20.51875 60.940624Q19.45625 60.096874 19.159374 58.45625ZM33.70625 59.971874L33.95625 61.534374Q33.221874 61.690624 32.628124 61.690624Q31.675 61.690624 31.14375 61.39375Q30.628124 61.08125 30.409374 60.596874Q30.190624 60.096874 30.190624 58.51875L30.190624 52.55L28.909374 52.55L28.909374 51.175L30.190624 51.175L30.190624 48.6125L31.940624 47.55L31.940624 51.175L33.70625 51.175L33.70625 52.55L31.940624 52.55L31.940624 58.6125Q31.940624 59.3625 32.034374 59.58125Q32.128124 59.784374 32.33125 59.925Q32.55 60.05 32.940624 60.05Q33.221874 60.05 33.70625 59.971874ZM42.64375 60.26875Q41.659374 61.096874 40.753124 61.440624Q39.846874 61.784374 38.815624 61.784374Q37.1125 61.784374 36.190624 60.95625Q35.26875 60.1125 35.26875 58.815624Q35.26875 58.05 35.6125 57.425Q35.971874 56.8 36.534374 56.425Q37.096874 56.034374 37.8 55.83125Q38.315624 55.70625 39.3625 55.565624Q41.4875 55.315624 42.4875 54.971874Q42.503124 54.6125 42.503124 54.503124Q42.503124 53.440624 42.003124 52.9875Q41.33125 52.39375 40.003124 52.39375Q38.753124 52.39375 38.159374 52.83125Q37.58125 53.26875 37.3 54.378124L35.58125 54.14375Q35.815624 53.034374 36.346874 52.3625Q36.878124 51.675 37.89375 51.315624Q38.909374 50.940624 40.253124 50.940624Q41.58125 50.940624 42.409374 51.253124Q43.2375 51.565624 43.628124 52.05Q44.01875 52.51875 44.175 53.2375Q44.26875 53.690624 44.26875 54.8625L44.26875 57.20625Q44.26875 59.659374 44.378124 60.315624Q44.4875 60.95625 44.83125 61.55L42.9875 61.55Q42.721874 61.003124 42.64375 60.26875ZM42.4875 56.346874Q41.534374 56.7375 39.6125 57.003124Q38.534374 57.159374 38.08125 57.3625Q37.64375 57.55 37.39375 57.925Q37.14375 58.3 37.14375 58.76875Q37.14375 59.471874 37.675 59.940624Q38.20625 60.409374 39.2375 60.409374Q40.253124 60.409374 41.034374 59.971874Q41.83125 59.51875 42.20625 58.753124Q42.4875 58.14375 42.4875 56.9875L42.4875 56.346874ZM46.846874 61.55L46.846874 51.175L48.425 51.175L48.425 52.753124Q49.034374 51.64375 49.55 51.3Q50.065624 50.940624 50.675 50.940624Q51.565624 50.940624 52.4875 51.503124L51.878124 53.14375Q51.2375 52.753124 50.596874 52.753124Q50.01875 52.753124 49.55 53.1125Q49.096874 53.45625 48.89375 54.065624Q48.6125 55.003124 48.6125 56.1125L48.6125 61.55L46.846874 61.55ZM57.70625 59.971874L57.95625 61.534374Q57.221874 61.690624 56.628124 61.690624Q55.675 61.690624 55.14375 61.39375Q54.628124 61.08125 54.409374 60.596874Q54.190624 60.096874 54.190624 58.51875L54.190624 52.55L52.909374 52.55L52.909374 51.175L54.190624 51.175L54.190624 48.6125L55.940624 47.55L55.940624 51.175L57.70625 51.175L57.70625 52.55L55.940624 52.55L55.940624 58.6125Q55.940624 59.3625 56.034374 59.58125Q56.128124 59.784374 56.33125 59.925Q56.55 60.05 56.940624 60.05Q57.221874 60.05 57.70625 59.971874ZM59.159374 58.45625L60.909374 58.175Q61.05 59.221874 61.721874 59.784374Q62.39375 60.33125 63.596874 60.33125Q64.8 60.33125 65.37813 59.846874Q65.97188 59.346874 65.97188 58.690624Q65.97188 58.096874 65.45625 57.753124Q65.09688 57.51875 63.659374 57.159374Q61.721874 56.659374 60.971874 56.315624Q60.2375 55.95625 59.846874 55.33125Q59.45625 54.690624 59.45625 53.925Q59.45625 53.2375 59.76875 52.64375Q60.096874 52.05 60.64375 51.659374Q61.05 51.3625 61.753124 51.159374Q62.471874 50.940624 63.284374 50.940624Q64.50313 50.940624 65.425 51.3Q66.34688 51.64375 66.78438 52.253124Q67.22188 52.846874 67.39375 53.846874L65.675 54.08125Q65.55 53.284374 64.9875 52.846874Q64.425 52.39375 63.409374 52.39375Q62.190624 52.39375 61.675 52.8Q61.159374 53.190624 61.159374 53.721874Q61.159374 54.065624 61.378124 54.346874Q61.58125 54.628124 62.05 54.815624Q62.315624 54.909374 63.596874 55.253124Q65.47188 55.753124 66.20625 56.08125Q66.94063 56.39375 67.3625 57.003124Q67.78438 57.596874 67.78438 58.503124Q67.78438 59.378124 67.26875 60.159374Q66.75313 60.940624 65.78438 61.3625Q64.81563 61.784374 63.596874 61.784374Q61.58125 61.784374 60.51875 60.940624Q59.45625 60.096874 59.159374 58.45625Z" fill-rule="nonzero"/></svg>