<svg version="1.1" viewBox="0.0 0.0 600.0 371.0" fill="none" stroke="none" stroke-linecap="square" stroke-miterlimit="10" width="600" height="371" xmlns:xlink="http://www.w3.org/1999/xlink" xmlns="http://www.w3.org/2000/svg"><path fill="#ffffff" d="M0 0L600.0 0L600.0 371.0L0 371.0L0 0Z" fill-rule="nonzero"/><path stroke="#cccccc" stroke-width="1.0" stroke-linecap="butt" d="M133.5 112.5L133.5 300.5" fill-rule="nonzero"/><path stroke="#cccccc" stroke-width="1.0" stroke-linecap="butt" d="M231.5 112.5L231.5 300.5" fill-rule="nonzero"/><path stroke="#cccccc" stroke-width="1.0" stroke-linecap="butt" d="M329.5 112.5L329.5 300.5" fill-rule="nonzero"/><path stroke="#cccccc" stroke-width="1.0" stroke-linecap="butt" d="M427.5 112.5L427.5 300.5" fill-rule="nonzero"/><path stroke="#cccccc" stroke-width="1.0" stroke-linecap="butt" d="M525.5 112.5L525.5 300.5" fill-rule="nonzero"/><path stroke="#333333" stroke-width="1.0" stroke-linecap="butt" d="M77.5 300.5L581.5 300.5" fill-rule="nonzero"/><path stroke="#cccccc" stroke-width="1.0" stroke-linecap="butt" d="M77.5 253.5L581.5 253.5" fill-rule="nonzero"/><path stroke="#cccccc" stroke-width="1.0" stroke-linecap="butt" d="M77.5 206.5L581.5 206.5" fill-rule="nonzero"/><path stroke="#cccccc" stroke-width="1.0" stroke-linecap="butt" d="M77.5 159.5L581.5 159.5" fill-rule="nonzero"/><path stroke="#cccccc" stroke-width="1.0" stroke-linecap="butt" d="M77.5 112.5L581.5 112.5" fill-rule="nonzero"/><clipPath id="id_0"><path d="M77.55 112.28333L581.45 112.28333L581.45 300.45L77.55 300.45L77.55 112.28333Z" clip-rule="nonzero"/></clipPath><path fill="#5891ad" clip-path="url(#id_0)" d="M88.86077 127.19554C88.86077 129.68082 86.846054 131.69554 84.36077 131.69554C81.875496 131.69554 79.86077 129.68082 79.86077 127.19554C79.86077 124.71026 81.875496 122.69554 84.36077 122.69554C86.846054 122.69554 88.86077 124.71026 88.86077 127.19554Z" fill-rule="nonzero"/><path fill="#5891ad" clip-path="url(#id_0)" d="M137.88863 128.55975C137.88863 131.04503 135.8739 133.05975 133.38863 133.05975C130.90334 133.05975 128.88863 131.04503 128.88863 128.55975C128.88863 126.07447 130.90334 124.05975 133.38863 124.05975C135.8739 124.05975 137.88863 126.07447 137.88863 128.55975Z" fill-rule="nonzero"/><path fill="#5891ad" clip-path="url(#id_0)" d="M186.91646 131.28816C186.91646 133.77345 184.90175 135.78816 182.41646 135.78816C179.93118 135.78816 177.91646 133.77345 177.91646 131.28816C177.91646 128.80289 179.93118 126.78817 182.41646 126.78817C184.90175 126.78817 186.91646 128.80289 186.91646 131.28816Z" fill-rule="nonzero"/><path fill="#5891ad" clip-path="url(#id_0)" d="M235.9443 125.925415C235.9443 128.4107 233.9296 130.42542 231.4443 130.42542C228.95903 130.42542 226.9443 128.4107 226.9443 125.925415C226.9443 123.44013 228.95903 121.425415 231.4443 121.425415C233.9296 121.425415 235.9443 123.44013 235.9443 125.925415Z" fill-rule="nonzero"/><path fill="#5891ad" clip-path="url(#id_0)" d="M284.97217 147.56459C284.97217 150.04987 282.95743 152.06459 280.47217 152.06459C277.98688 152.06459 275.97217 150.04987 275.97217 147.56459C275.97217 145.0793 277.98688 143.06459 280.47217 143.06459C282.95743 143.06459 284.97217 145.0793 284.97217 147.56459Z" fill-rule="nonzero"/><path fill="#5891ad" clip-path="url(#id_0)" d="M334.0 167.34561C334.0 169.83089 331.9853 171.84561 329.5 171.84561C327.0147 171.84561 325.0 169.83089 325.0 167.34561C325.0 164.86032 327.0147 162.84561 329.5 162.84561C331.9853 162.84561 334.0 164.86032 334.0 167.34561Z" fill-rule="nonzero"/><path fill="#5891ad" clip-path="url(#id_0)" d="M383.02783 205.75513C383.02783 208.2404 381.01312 210.25513 378.52783 210.25513C376.04257 210.25513 374.02783 208.2404 374.02783 205.75513C374.02783 203.26984 376.04257 201.25513 378.52783 201.25513C381.01312 201.25513 383.02783 203.26984 383.02783 205.75513Z" fill-rule="nonzero"/><path fill="#5891ad" clip-path="url(#id_0)" d="M432.0557 204.01459C432.0557 206.49986 430.041 208.51459 427.5557 208.51459C425.0704 208.51459 423.0557 206.49986 423.0557 204.01459C423.0557 201.5293 425.0704 199.51459 427.5557 199.51459C430.041 199.51459 432.0557 201.5293 432.0557 204.01459Z" fill-rule="nonzero"/><path fill="#5891ad" clip-path="url(#id_0)" d="M481.08353 206.95468C481.08353 209.43997 479.06882 211.45468 476.58353 211.45468C474.09827 211.45468 472.08353 209.43997 472.08353 206.95468C472.08353 204.4694 474.09827 202.45468 476.58353 202.45468C479.06882 202.45468 481.08353 204.4694 481.08353 206.95468Z" fill-rule="nonzero"/><path fill="#5891ad" clip-path="url(#id_0)" d="M530.1114 229.91103C530.1114 232.3963 528.0967 234.41103 525.6114 234.41103C523.1261 234.41103 521.1114 232.3963 521.1114 229.91103C521.1114 227.42574 523.1261 225.41103 525.6114 225.41103C528.0967 225.41103 530.1114 227.42574 530.1114 229.91103Z" fill-rule="nonzero"/><path fill="#5891ad" clip-path="url(#id_0)" d="M579.1392 264.83945C579.1392 267.32474 577.1245 269.33945 574.6392 269.33945C572.15393 269.33945 570.1392 267.32474 570.1392 264.83945C570.1392 262.3542 572.15393 260.33945 574.6392 260.33945C577.1245 260.33945 579.1392 262.3542 579.1392 264.83945Z" fill-rule="nonzero"/><path fill="#004561" clip-path="url(#id_0)" d="M88.86077 278.59915C88.86077 281.08444 86.846054 283.09915 84.36077 283.09915C81.875496 283.09915 79.86077 281.08444 79.86077 278.59915C79.86077 276.11386 81.875496 274.09915 84.36077 274.09915C86.846054 274.09915 88.86077 276.11386 88.86077 278.59915Z" fill-rule="nonzero"/><path fill="#004561" clip-path="url(#id_0)" d="M137.88863 279.23422C137.88863 281.71948 135.8739 283.73422 133.38863 283.73422C130.90334 283.73422 128.88863 281.71948 128.88863 279.23422C128.88863 276.74893 130.90334 274.73422 133.38863 274.73422C135.8739 274.73422 137.88863 276.74893 137.88863 279.23422Z" fill-rule="nonzero"/><path fill="#004561" clip-path="url(#id_0)" d="M186.91646 269.66122C186.91646 272.1465 184.90175 274.16122 182.41646 274.16122C179.93118 274.16122 177.91646 272.1465 177.91646 269.66122C177.91646 267.17593 179.93118 265.16122 182.41646 265.16122C184.90175 265.16122 186.91646 267.17593 186.91646 269.66122Z" fill-rule="nonzero"/><path fill="#004561" clip-path="url(#id_0)" d="M235.9443 273.1423C235.9443 275.6276 233.9296 277.6423 231.4443 277.6423C228.95903 277.6423 226.9443 275.6276 226.9443 273.1423C226.9443 270.65704 228.95903 268.6423 231.4443 268.6423C233.9296 268.6423 235.9443 270.65704 235.9443 273.1423Z" fill-rule="nonzero"/><path fill="#004561" clip-path="url(#id_0)" d="M284.97217 279.6576C284.97217 282.14285 282.95743 284.1576 280.47217 284.1576C277.98688 284.1576 275.97217 282.14285 275.97217 279.6576C275.97217 277.1723 277.98688 275.1576 280.47217 275.1576C282.95743 275.1576 284.97217 277.1723 284.97217 279.6576Z" fill-rule="nonzero"/><path fill="#004561" clip-path="url(#id_0)" d="M334.0 279.93982C334.0 282.4251 331.9853 284.43982 329.5 284.43982C327.0147 284.43982 325.0 282.4251 325.0 279.93982C325.0 277.45456 327.0147 275.43982 329.5 275.43982C331.9853 275.43982 334.0 277.45456 334.0 279.93982Z" fill-rule="nonzero"/><path fill="#004561" clip-path="url(#id_0)" d="M383.02783 293.39374C383.02783 295.87903 381.01312 297.89374 378.52783 297.89374C376.04257 297.89374 374.02783 295.87903 374.02783 293.39374C374.02783 290.90848 376.04257 288.89374 378.52783 288.89374C381.01312 288.89374 383.02783 290.90848 383.02783 293.39374Z" fill-rule="nonzero"/><path fill="#004561" clip-path="url(#id_0)" d="M432.0557 294.40515C432.0557 296.89044 430.041 298.90515 427.5557 298.90515C425.0704 298.90515 423.0557 296.89044 423.0557 294.40515C423.0557 291.91986 425.0704 289.90515 427.5557 289.90515C430.041 289.90515 432.0557 291.91986 432.0557 294.40515Z" fill-rule="nonzero"/><path fill="#004561" clip-path="url(#id_0)" d="M481.08353 296.56906C481.08353 299.05435 479.06882 301.06906 476.58353 301.06906C474.09827 301.06906 472.08353 299.05435 472.08353 296.56906C472.08353 294.08377 474.09827 292.06906 476.58353 292.06906C479.06882 292.06906 481.08353 294.08377 481.08353 296.56906Z" fill-rule="nonzero"/><path fill="#004561" clip-path="url(#id_0)" d="M530.1114 294.40515C530.1114 296.89044 528.0967 298.90515 525.6114 298.90515C523.1261 298.90515 521.1114 296.89044 521.1114 294.40515C521.1114 291.91986 523.1261 289.90515 525.6114 289.90515C528.0967 289.90515 530.1114 291.91986 530.1114 294.40515Z" fill-rule="nonzero"/><path fill="#004561" clip-path="url(#id_0)" d="M579.1392 298.8741C579.1392 301.35938 577.1245 303.3741 574.6392 303.3741C572.15393 303.3741 570.1392 301.35938 570.1392 298.8741C570.1392 296.38882 572.15393 294.3741 574.6392 294.3741C577.1245 294.3741 579.1392 296.38882 579.1392 298.8741Z" fill-rule="nonzero"/><path fill="#000000" d="M293.39062 349.45L293.39062 340.85626L295.10938 340.85626L297.14062 346.9344Q297.42188 347.79376 297.54688 348.21564Q297.6875 347.7469 298.0 346.84064L300.0625 340.85626L301.59375 340.85626L301.59375 349.45L300.5 349.45L300.5 342.2625L298.0 349.45L296.96875 349.45L294.48438 342.1375L294.48438 349.45L293.39062 349.45ZM301.90625 346.34064Q301.90625 344.60626 302.85938 343.77814Q303.65625 343.09064 304.8125 343.09064Q306.09375 343.09064 306.90625 343.9344Q307.73438 344.7625 307.73438 346.2469Q307.73438 347.45 307.375 348.1375Q307.01562 348.825 306.3125 349.21564Q305.625 349.59064 304.8125 349.59064Q303.51562 349.59064 302.70312 348.7625Q301.90625 347.91876 301.90625 346.34064ZM302.98438 346.34064Q302.98438 347.52814 303.5 348.1219Q304.03125 348.71564 304.8125 348.71564Q305.60938 348.71564 306.125 348.1219Q306.64062 347.52814 306.64062 346.3094Q306.64062 345.15314 306.10938 344.5594Q305.59375 343.96564 304.8125 343.96564Q304.03125 343.96564 303.5 344.5594Q302.98438 345.1375 302.98438 346.34064ZM311.01562 349.45L308.65625 343.23126L309.76562 343.23126L311.10938 346.95Q311.3125 347.5594 311.5 348.2Q311.64062 347.71564 311.89062 347.02814L313.28125 343.23126L314.35938 343.23126L312.0 349.45L311.01562 349.45ZM318.54688 347.45L319.64062 347.575Q319.39062 348.52814 318.6875 349.0594Q317.98438 349.59064 316.90625 349.59064Q315.54688 349.59064 314.73438 348.7469Q313.9375 347.90314 313.9375 346.3875Q313.9375 344.825 314.75 343.96564Q315.5625 343.09064 316.84375 343.09064Q318.09375 343.09064 318.875 343.9344Q319.67188 344.77814 319.67188 346.325Q319.67188 346.41876 319.67188 346.60626L315.03125 346.60626Q315.09375 347.6375 315.60938 348.1844Q316.125 348.71564 316.90625 348.71564Q317.48438 348.71564 317.89062 348.41876Q318.3125 348.10626 318.54688 347.45ZM315.09375 345.7469L318.5625 345.7469Q318.5 344.95 318.17188 344.5594Q317.65625 343.95 316.85938 343.95Q316.125 343.95 315.625 344.4344Q315.14062 344.91876 315.09375 345.7469ZM324.29688 349.45L324.29688 343.23126L325.23438 343.23126L325.23438 344.10626Q325.92188 343.09064 327.21875 343.09064Q327.78125 343.09064 328.25 343.29376Q328.73438 343.4969 328.96875 343.825Q329.20312 344.15314 329.29688 344.59064Q329.34375 344.8875 329.34375 345.6219L329.34375 349.45L328.29688 349.45L328.29688 345.66876Q328.29688 345.0125 328.17188 344.7Q328.04688 344.3875 327.73438 344.2Q327.42188 343.9969 327.0 343.9969Q326.32812 343.9969 325.82812 344.4344Q325.34375 344.85626 325.34375 346.04376L325.34375 349.45L324.29688 349.45ZM335.375 349.45L335.375 348.52814Q334.64062 349.59064 333.39062 349.59064Q332.84375 349.59064 332.35938 349.3875Q331.89062 349.16876 331.65625 348.85626Q331.42188 348.52814 331.32812 348.0594Q331.26562 347.7625 331.26562 347.075L331.26562 343.23126L332.32812 343.23126L332.32812 346.6844Q332.32812 347.4969 332.39062 347.79376Q332.48438 348.2 332.79688 348.45Q333.125 348.6844 333.60938 348.6844Q334.07812 348.6844 334.48438 348.45Q334.90625 348.2 335.07812 347.77814Q335.26562 347.35626 335.26562 346.5594L335.26562 343.23126L336.3125 343.23126L336.3125 349.45L335.375 349.45ZM338.29688 349.45L338.29688 343.23126L339.23438 343.23126L339.23438 344.10626Q339.53125 343.6375 340.01562 343.3719Q340.5 343.09064 341.125 343.09064Q341.8125 343.09064 342.25 343.3719Q342.70312 343.65314 342.875 344.16876Q343.625 343.09064 344.79688 343.09064Q345.73438 343.09064 346.21875 343.60626Q346.71875 344.10626 346.71875 345.1844L346.71875 349.45L345.67188 349.45L345.67188 345.52814Q345.67188 344.90314 345.5625 344.6219Q345.46875 344.34064 345.20312 344.16876Q344.9375 343.9969 344.5625 343.9969Q343.90625 343.9969 343.46875 344.4344Q343.04688 344.8719 343.04688 345.84064L343.04688 349.45L341.98438 349.45L341.98438 345.40314Q341.98438 344.7 341.71875 344.35626Q341.46875 343.9969 340.89062 343.9969Q340.4375 343.9969 340.0625 344.23126Q339.6875 344.46564 339.51562 344.91876Q339.34375 345.3719 339.34375 346.21564L339.34375 349.45L338.29688 349.45ZM350.26562 349.45L349.28125 349.45L349.28125 340.85626L350.34375 340.85626L350.34375 343.91876Q351.01562 343.09064 352.04688 343.09064Q352.625 343.09064 353.125 343.325Q353.64062 343.54376 353.96875 343.96564Q354.3125 344.3875 354.5 344.98126Q354.6875 345.575 354.6875 346.2469Q354.6875 347.84064 353.89062 348.71564Q353.09375 349.59064 352.0 349.59064Q350.89062 349.59064 350.26562 348.66876L350.26562 349.45ZM350.25 346.29376Q350.25 347.40314 350.5625 347.90314Q351.0625 348.71564 351.90625 348.71564Q352.59375 348.71564 353.09375 348.1219Q353.60938 347.52814 353.60938 346.325Q353.60938 345.10626 353.125 344.52814Q352.64062 343.95 351.95312 343.95Q351.26562 343.95 350.75 344.5594Q350.25 345.15314 350.25 346.29376ZM360.54688 347.45L361.64062 347.575Q361.39062 348.52814 360.6875 349.0594Q359.98438 349.59064 358.90625 349.59064Q357.54688 349.59064 356.73438 348.7469Q355.9375 347.90314 355.9375 346.3875Q355.9375 344.825 356.75 343.96564Q357.5625 343.09064 358.84375 343.09064Q360.09375 343.09064 360.875 343.9344Q361.67188 344.77814 361.67188 346.325Q361.67188 346.41876 361.67188 346.60626L357.03125 346.60626Q357.09375 347.6375 357.60938 348.1844Q358.125 348.71564 358.90625 348.71564Q359.48438 348.71564 359.89062 348.41876Q360.3125 348.10626 360.54688 347.45ZM357.09375 345.7469L360.5625 345.7469Q360.5 344.95 360.17188 344.5594Q359.65625 343.95 358.85938 343.95Q358.125 343.95 357.625 344.4344Q357.14062 344.91876 357.09375 345.7469ZM363.28125 349.45L363.28125 343.23126L364.23438 343.23126L364.23438 344.16876Q364.59375 343.5125 364.89062 343.3094Q365.20312 343.09064 365.57812 343.09064Q366.10938 343.09064 366.65625 343.41876L366.29688 344.40314Q365.90625 344.16876 365.53125 344.16876Q365.17188 344.16876 364.89062 344.3875Q364.625 344.59064 364.51562 344.96564Q364.32812 345.52814 364.32812 346.1844L364.32812 349.45L363.28125 349.45Z" fill-rule="nonzero"/><path fill="#000000" d="M29.550013 278.7573L21.971888 278.7573L21.971888 281.58542L20.956263 281.58542L20.956263 274.77292L21.971888 274.77292L21.971888 277.61667L29.550013 277.61667L29.550013 278.7573ZM22.175013 274.0698L20.956263 274.0698L20.956263 273.0073L22.175013 273.0073L22.175013 274.0698ZM29.550013 274.0698L23.331263 274.0698L23.331263 273.0073L29.550013 273.0073L29.550013 274.0698ZM29.550013 271.0698L23.331263 271.0698L23.331263 270.1323L24.206263 270.1323Q23.737513 269.83542 23.471888 269.35104Q23.190638 268.86667 23.190638 268.24167Q23.190638 267.55417 23.471888 267.11667Q23.753138 266.66354 24.268763 266.49167Q23.190638 265.74167 23.190638 264.5698Q23.190638 263.6323 23.706263 263.14792Q24.206263 262.64792 25.284388 262.64792L29.550013 262.64792L29.550013 263.6948L25.628138 263.6948Q25.003138 263.6948 24.721888 263.80417Q24.440638 263.89792 24.268763 264.16354Q24.096888 264.42917 24.096888 264.80417Q24.096888 265.46042 24.534388 265.89792Q24.971888 266.3198 25.940638 266.3198L29.550013 266.3198L29.550013 267.3823L25.503138 267.3823Q24.800013 267.3823 24.456263 267.64792Q24.096888 267.89792 24.096888 268.47604Q24.096888 268.92917 24.331263 269.30417Q24.565638 269.67917 25.018763 269.85104Q25.471888 270.02292 26.315638 270.02292L29.550013 270.02292L29.550013 271.0698ZM27.550013 255.8198L27.675013 254.72604Q28.628138 254.97604 29.159388 255.67917Q29.690638 256.3823 29.690638 257.46042Q29.690638 258.8198 28.846888 259.6323Q28.003138 260.42917 26.487513 260.42917Q24.925013 260.42917 24.065638 259.61667Q23.190638 258.80417 23.190638 257.52292Q23.190638 256.27292 24.034388 255.49167Q24.878138 254.6948 26.425013 254.6948Q26.518763 254.6948 26.706263 254.6948L26.706263 259.33542Q27.737513 259.27292 28.284388 258.7573Q28.815638 258.24167 28.815638 257.46042Q28.815638 256.8823 28.518763 256.47604Q28.206263 256.05417 27.550013 255.8198ZM25.846888 259.27292L25.846888 255.80417Q25.050013 255.86667 24.659388 256.1948Q24.050013 256.71042 24.050013 257.5073Q24.050013 258.24167 24.534388 258.74167Q25.018763 259.22604 25.846888 259.27292ZM28.612513 247.77292L29.534388 247.61667Q29.628138 248.0698 29.628138 248.41354Q29.628138 248.99167 29.456263 249.30417Q29.268763 249.61667 28.971888 249.7573Q28.675013 249.8823 27.721888 249.8823L24.143763 249.8823L24.143763 250.64792L23.331263 250.64792L23.331263 249.8823L21.784388 249.8823L21.159388 248.83542L23.331263 248.83542L23.331263 247.77292L24.143763 247.77292L24.143763 248.83542L27.784388 248.83542Q28.237513 248.83542 28.362513 248.78854Q28.487513 248.72604 28.565638 248.60104Q28.643763 248.47604 28.643763 248.24167Q28.643763 248.05417 28.612513 247.77292ZM26.440638 247.46042Q24.706263 247.46042 23.878138 246.5073Q23.190638 245.71042 23.190638 244.55417Q23.190638 243.27292 24.034388 242.46042Q24.862513 241.6323 26.346888 241.6323Q27.550013 241.6323 28.237513 241.99167Q28.925013 242.35104 29.315638 243.05417Q29.690638 243.74167 29.690638 244.55417Q29.690638 245.85104 28.862513 246.66354Q28.018763 247.46042 26.440638 247.46042ZM26.440638 246.3823Q27.628138 246.3823 28.221888 245.86667Q28.815638 245.33542 28.815638 244.55417Q28.815638 243.7573 28.221888 243.24167Q27.628138 242.72604 26.409388 242.72604Q25.253138 242.72604 24.659388 243.2573Q24.065638 243.77292 24.065638 244.55417Q24.065638 245.33542 24.659388 245.86667Q25.237513 246.3823 26.440638 246.3823ZM31.940638 237.0698L23.331263 237.0698L23.331263 236.11667L24.128138 236.11667Q23.659388 235.77292 23.425013 235.35104Q23.190638 234.91354 23.190638 234.30417Q23.190638 233.5073 23.596888 232.89792Q24.003138 232.28854 24.753138 231.99167Q25.503138 231.67917 26.393763 231.67917Q27.346888 231.67917 28.112513 232.02292Q28.878138 232.35104 29.284388 233.0073Q29.690638 233.66354 29.690638 234.3823Q29.690638 234.91354 29.471888 235.33542Q29.237513 235.7573 28.909388 236.02292L31.940638 236.02292L31.940638 237.0698ZM26.471888 236.11667Q27.675013 236.11667 28.253138 235.6323Q28.815638 235.14792 28.815638 234.46042Q28.815638 233.7573 28.221888 233.2573Q27.628138 232.7573 26.378138 232.7573Q25.190638 232.7573 24.612513 233.24167Q24.018763 233.72604 24.018763 234.41354Q24.018763 235.08542 24.643763 235.60104Q25.268763 236.11667 26.471888 236.11667ZM27.550013 225.8198L27.675013 224.72604Q28.628138 224.97604 29.159388 225.67917Q29.690638 226.3823 29.690638 227.46042Q29.690638 228.8198 28.846888 229.6323Q28.003138 230.42917 26.487513 230.42917Q24.925013 230.42917 24.065638 229.61667Q23.190638 228.80417 23.190638 227.52292Q23.190638 226.27292 24.034388 225.49167Q24.878138 224.6948 26.425013 224.6948Q26.518763 224.6948 26.706263 224.6948L26.706263 229.33542Q27.737513 229.27292 28.284388 228.7573Q28.815638 228.24167 28.815638 227.46042Q28.815638 226.8823 28.518763 226.47604Q28.206263 226.05417 27.550013 225.8198ZM25.846888 229.27292L25.846888 225.80417Q25.050013 225.86667 24.659388 226.1948Q24.050013 226.71042 24.050013 227.5073Q24.050013 228.24167 24.534388 228.74167Q25.018763 229.22604 25.846888 229.27292ZM29.550013 223.08542L23.331263 223.08542L23.331263 222.1323L24.268763 222.1323Q23.612513 221.77292 23.409388 221.47604Q23.190638 221.16354 23.190638 220.78854Q23.190638 220.2573 23.518763 219.71042L24.503138 220.0698Q24.268763 220.46042 24.268763 220.83542Q24.268763 221.1948 24.487513 221.47604Q24.690638 221.74167 25.065638 221.85104Q25.628138 222.03854 26.284388 222.03854L29.550013 222.03854L29.550013 223.08542ZM29.550013 218.8198L24.143763 218.8198L24.143763 219.7573L23.331263 219.7573L23.331263 218.8198L22.659388 218.8198Q22.034388 218.8198 21.737513 218.71042Q21.315638 218.55417 21.065638 218.17917Q20.815638 217.78854 20.815638 217.10104Q20.815638 216.64792 20.925013 216.11667L21.831263 216.27292Q21.784388 216.60104 21.784388 216.89792Q21.784388 217.3823 21.987513 217.58542Q22.190638 217.77292 22.753138 217.77292L23.331263 217.77292L23.331263 216.55417L24.143763 216.55417L24.143763 217.77292L29.550013 217.77292L29.550013 218.8198ZM26.440638 216.46042Q24.706263 216.46042 23.878138 215.5073Q23.190638 214.71042 23.190638 213.55417Q23.190638 212.27292 24.034388 211.46042Q24.862513 210.6323 26.346888 210.6323Q27.550013 210.6323 28.237513 210.99167Q28.925013 211.35104 29.315638 212.05417Q29.690638 212.74167 29.690638 213.55417Q29.690638 214.85104 28.862513 215.66354Q28.018763 216.46042 26.440638 216.46042ZM26.440638 215.3823Q27.628138 215.3823 28.221888 214.86667Q28.815638 214.33542 28.815638 213.55417Q28.815638 212.7573 28.221888 212.24167Q27.628138 211.72604 26.409388 211.72604Q25.253138 211.72604 24.659388 212.2573Q24.065638 212.77292 24.065638 213.55417Q24.065638 214.33542 24.659388 214.86667Q25.237513 215.3823 26.440638 215.3823ZM29.550013 209.08542L23.331263 209.08542L23.331263 208.1323L24.268763 208.1323Q23.612513 207.77292 23.409388 207.47604Q23.190638 207.16354 23.190638 206.78854Q23.190638 206.2573 23.518763 205.71042L24.503138 206.0698Q24.268763 206.46042 24.268763 206.83542Q24.268763 207.1948 24.487513 207.47604Q24.690638 207.74167 25.065638 207.85104Q25.628138 208.03854 26.284388 208.03854L29.550013 208.03854L29.550013 209.08542ZM29.550013 205.0698L23.331263 205.0698L23.331263 204.1323L24.206263 204.1323Q23.737513 203.83542 23.471888 203.35104Q23.190638 202.86667 23.190638 202.24167Q23.190638 201.55417 23.471888 201.11667Q23.753138 200.66354 24.268763 200.49167Q23.190638 199.74167 23.190638 198.5698Q23.190638 197.6323 23.706263 197.14792Q24.206263 196.64792 25.284388 196.64792L29.550013 196.64792L29.550013 197.6948L25.628138 197.6948Q25.003138 197.6948 24.721888 197.80417Q24.440638 197.89792 24.268763 198.16354Q24.096888 198.42917 24.096888 198.80417Q24.096888 199.46042 24.534388 199.89792Q24.971888 200.3198 25.940638 200.3198L29.550013 200.3198L29.550013 201.3823L25.503138 201.3823Q24.800013 201.3823 24.456263 201.64792Q24.096888 201.89792 24.096888 202.47604Q24.096888 202.92917 24.331263 203.30417Q24.565638 203.67917 25.018763 203.85104Q25.471888 204.02292 26.315638 204.02292L29.550013 204.02292L29.550013 205.0698ZM29.550013 191.0698L23.331263 191.0698L23.331263 190.1323L24.206263 190.1323Q23.737513 189.83542 23.471888 189.35104Q23.190638 188.86667 23.190638 188.24167Q23.190638 187.55417 23.471888 187.11667Q23.753138 186.66354 24.268763 186.49167Q23.190638 185.74167 23.190638 184.5698Q23.190638 183.6323 23.706263 183.14792Q24.206263 182.64792 25.284388 182.64792L29.550013 182.64792L29.550013 183.6948L25.628138 183.6948Q25.003138 183.6948 24.721888 183.80417Q24.440638 183.89792 24.268763 184.16354Q24.096888 184.42917 24.096888 184.80417Q24.096888 185.46042 24.534388 185.89792Q24.971888 186.3198 25.940638 186.3198L29.550013 186.3198L29.550013 187.3823L25.503138 187.3823Q24.800013 187.3823 24.456263 187.64792Q24.096888 187.89792 24.096888 188.47604Q24.096888 188.92917 24.331263 189.30417Q24.565638 189.67917 25.018763 189.85104Q25.471888 190.02292 26.315638 190.02292L29.550013 190.02292L29.550013 191.0698ZM26.440638 180.46042Q24.706263 180.46042 23.878138 179.5073Q23.190638 178.71042 23.190638 177.55417Q23.190638 176.27292 24.034388 175.46042Q24.862513 174.6323 26.346888 174.6323Q27.550013 174.6323 28.237513 174.99167Q28.925013 175.35104 29.315638 176.05417Q29.690638 176.74167 29.690638 177.55417Q29.690638 178.85104 28.862513 179.66354Q28.018763 180.46042 26.440638 180.46042ZM26.440638 179.3823Q27.628138 179.3823 28.221888 178.86667Q28.815638 178.33542 28.815638 177.55417Q28.815638 176.7573 28.221888 176.24167Q27.628138 175.72604 26.409388 175.72604Q25.253138 175.72604 24.659388 176.2573Q24.065638 176.77292 24.065638 177.55417Q24.065638 178.33542 24.659388 178.86667Q25.237513 179.3823 26.440638 179.3823ZM29.550013 171.35104L23.331263 173.71042L23.331263 172.60104L27.050013 171.2573Q27.659388 171.05417 28.300013 170.86667Q27.815638 170.72604 27.128138 170.47604L23.331263 169.08542L23.331263 168.0073L29.550013 170.36667L29.550013 171.35104ZM27.550013 163.8198L27.675013 162.72604Q28.628138 162.97604 29.159388 163.67917Q29.690638 164.3823 29.690638 165.46042Q29.690638 166.8198 28.846888 167.6323Q28.003138 168.42917 26.487513 168.42917Q24.925013 168.42917 24.065638 167.61667Q23.190638 166.80417 23.190638 165.52292Q23.190638 164.27292 24.034388 163.49167Q24.878138 162.6948 26.425013 162.6948Q26.518763 162.6948 26.706263 162.6948L26.706263 167.33542Q27.737513 167.27292 28.284388 166.7573Q28.815638 166.24167 28.815638 165.46042Q28.815638 164.8823 28.518763 164.47604Q28.206263 164.05417 27.550013 163.8198ZM25.846888 167.27292L25.846888 163.80417Q25.050013 163.86667 24.659388 164.1948Q24.050013 164.71042 24.050013 165.5073Q24.050013 166.24167 24.534388 166.74167Q25.018763 167.22604 25.846888 167.27292ZM32.08126 156.05417Q30.971888 156.92917 29.503138 157.53854Q28.018763 158.1323 26.440638 158.1323Q25.050013 158.1323 23.768763 157.6948Q22.284388 157.16354 20.815638 156.05417L20.815638 155.30417Q22.034388 156.0073 22.550013 156.24167Q23.362513 156.60104 24.237513 156.80417Q25.331263 157.05417 26.440638 157.05417Q29.268763 157.05417 32.08126 155.30417L32.08126 156.05417ZM27.690638 154.49167L27.534388 153.46042Q28.159388 153.36667 28.487513 152.97604Q28.815638 152.5698 28.815638 151.83542Q28.815638 151.11667 28.534388 150.77292Q28.237513 150.41354 27.831263 150.41354Q27.471888 150.41354 27.268763 150.72604Q27.128138 150.9448 26.909388 151.80417Q26.612513 152.96042 26.409388 153.41354Q26.190638 153.85104 25.815638 154.08542Q25.440638 154.3198 24.971888 154.3198Q24.565638 154.3198 24.206263 154.1323Q23.846888 153.9448 23.612513 153.61667Q23.440638 153.36667 23.315638 152.9448Q23.190638 152.52292 23.190638 152.02292Q23.190638 151.30417 23.409388 150.7573Q23.612513 150.1948 23.971888 149.92917Q24.331263 149.66354 24.925013 149.5698L25.065638 150.60104Q24.596888 150.66354 24.331263 151.0073Q24.050013 151.33542 24.050013 151.96042Q24.050013 152.67917 24.300013 152.99167Q24.534388 153.30417 24.862513 153.30417Q25.065638 153.30417 25.221888 153.17917Q25.393763 153.03854 25.503138 152.77292Q25.565638 152.61667 25.768763 151.83542Q26.081263 150.71042 26.268763 150.27292Q26.456263 149.83542 26.815638 149.58542Q27.175013 149.33542 27.721888 149.33542Q28.253138 149.33542 28.721888 149.64792Q29.175013 149.9448 29.440638 150.52292Q29.690638 151.10104 29.690638 151.83542Q29.690638 153.05417 29.190638 153.6948Q28.675013 154.3198 27.690638 154.49167ZM32.08126 146.3823L32.08126 147.1323Q29.268763 145.3823 26.440638 145.3823Q25.346888 145.3823 24.253138 145.6323Q23.378138 145.83542 22.565638 146.1948Q22.050013 146.42917 20.815638 147.1323L20.815638 146.3823Q22.284388 145.28854 23.768763 144.7573Q25.050013 144.30417 26.440638 144.30417Q28.018763 144.30417 29.503138 144.91354Q30.971888 145.52292 32.08126 146.3823Z" fill-rule="nonzero"/><path fill="#000000" d="M65.05 300.21564Q65.05 298.6844 65.3625 297.7625Q65.675 296.825 66.28438 296.325Q66.90938 295.825 67.84688 295.825Q68.53438 295.825 69.05 296.10626Q69.58125 296.3875 69.925 296.91876Q70.26875 297.4344 70.45625 298.1844Q70.64375 298.9344 70.64375 300.21564Q70.64375 301.73126 70.33125 302.65314Q70.03438 303.575 69.40938 304.09064Q68.8 304.59064 67.84688 304.59064Q66.6125 304.59064 65.89375 303.7Q65.05 302.6375 65.05 300.21564ZM66.12813 300.21564Q66.12813 302.325 66.62813 303.02814Q67.12813 303.73126 67.84688 303.73126Q68.58125 303.73126 69.06563 303.02814Q69.56563 302.325 69.56563 300.21564Q69.56563 298.09064 69.06563 297.40314Q68.58125 296.7 67.83125 296.7Q67.1125 296.7 66.675 297.3094Q66.12813 298.09064 66.12813 300.21564Z" fill-rule="nonzero"/><path fill="#000000" d="M70.59688 256.3927L70.59688 257.40833L64.90938 257.40833Q64.90938 257.03333 65.03438 256.67395Q65.25313 256.09583 65.72188 255.53333Q66.20625 254.97083 67.1125 254.23645Q68.51875 253.0802 69.00313 252.40833Q69.50313 251.73645 69.50313 251.1427Q69.50313 250.5177 69.05 250.09583Q68.59688 249.65833 67.87813 249.65833Q67.1125 249.65833 66.65938 250.11145Q66.20625 250.56458 66.19063 251.37708L65.1125 251.2677Q65.22188 250.04895 65.94063 249.42395Q66.675 248.78333 67.90938 248.78333Q69.14375 248.78333 69.8625 249.47083Q70.58125 250.15833 70.58125 251.17395Q70.58125 251.68958 70.3625 252.18958Q70.15938 252.67395 69.65938 253.23645Q69.175 253.78333 68.05 254.73645Q67.09688 255.53333 66.81563 255.8302Q66.55 256.11145 66.37813 256.3927L70.59688 256.3927Z" fill-rule="nonzero"/><path fill="#000000" d="M68.425 210.36667L68.425 208.30417L64.70625 208.30417L64.70625 207.33542L68.62813 201.77292L69.4875 201.77292L69.4875 207.33542L70.64375 207.33542L70.64375 208.30417L69.4875 208.30417L69.4875 210.36667L68.425 210.36667ZM68.425 207.33542L68.425 203.47604L65.7375 207.33542L68.425 207.33542Z" fill-rule="nonzero"/><path fill="#000000" d="M70.51875 156.84062L69.47188 156.91875Q69.33125 156.29375 69.08125 156.0125Q68.64375 155.55937 68.01875 155.55937Q67.51875 155.55937 67.12813 155.84062Q66.64375 156.21562 66.34688 156.91875Q66.06563 157.60625 66.05 158.8875Q66.425 158.30937 66.97188 158.02812Q67.53438 157.74687 68.14375 157.74687Q69.19063 157.74687 69.925 158.52812Q70.675 159.30937 70.675 160.52812Q70.675 161.34062 70.31563 162.04375Q69.97188 162.73125 69.3625 163.10625Q68.75313 163.46562 67.9875 163.46562Q66.65938 163.46562 65.83125 162.49687Q65.00313 161.52812 65.00313 159.30937Q65.00313 156.80937 65.925 155.68437Q66.72188 154.7 68.08125 154.7Q69.09688 154.7 69.7375 155.27812Q70.39375 155.84062 70.51875 156.84062ZM66.22188 160.54375Q66.22188 161.09062 66.44063 161.59062Q66.675 162.075 67.08125 162.34062Q67.50313 162.60625 67.97188 162.60625Q68.62813 162.60625 69.1125 162.075Q69.59688 161.52812 69.59688 160.60625Q69.59688 159.71562 69.1125 159.2Q68.64375 158.68437 67.925 158.68437Q67.20625 158.68437 66.70625 159.2Q66.22188 159.71562 66.22188 160.54375Z" fill-rule="nonzero"/><path fill="#000000" d="M66.675 111.62708Q66.01875 111.37708 65.69063 110.93958Q65.37813 110.48646 65.37813 109.87708Q65.37813 108.93958 66.05 108.29896Q66.7375 107.65833 67.84688 107.65833Q68.97188 107.65833 69.65938 108.31458Q70.34688 108.97083 70.34688 109.90833Q70.34688 110.50208 70.03438 110.93958Q69.72188 111.37708 69.08125 111.62708Q69.87813 111.87708 70.28438 112.45521Q70.69063 113.03333 70.69063 113.83021Q70.69063 114.92396 69.90938 115.67396Q69.14375 116.42396 67.8625 116.42396Q66.59688 116.42396 65.81563 115.67396Q65.03438 114.92396 65.03438 113.79896Q65.03438 112.95521 65.45625 112.39271Q65.89375 111.83021 66.675 111.62708ZM66.45625 109.83021Q66.45625 110.43958 66.84688 110.83021Q67.25313 111.22083 67.87813 111.22083Q68.4875 111.22083 68.87813 110.84583Q69.26875 110.45521 69.26875 109.89271Q69.26875 109.31458 68.8625 108.92396Q68.45625 108.51771 67.8625 108.51771Q67.25313 108.51771 66.84688 108.90833Q66.45625 109.29896 66.45625 109.83021ZM66.12813 113.79896Q66.12813 114.25208 66.33125 114.67396Q66.55 115.09583 66.97188 115.33021Q67.39375 115.56458 67.87813 115.56458Q68.62813 115.56458 69.1125 115.08021Q69.6125 114.59583 69.6125 113.84583Q69.6125 113.08021 69.1125 112.58021Q68.6125 112.08021 67.84688 112.08021Q67.09688 112.08021 66.6125 112.58021Q66.12813 113.06458 66.12813 113.79896Z" fill-rule="nonzero"/><path fill="#000000" d="M135.9355 316.4344L135.9355 317.45L130.248 317.45Q130.248 317.075 130.373 316.71564Q130.59175 316.1375 131.0605 315.575Q131.54488 315.0125 132.45113 314.27814Q133.85738 313.1219 134.34175 312.45Q134.84175 311.77814 134.84175 311.1844Q134.84175 310.5594 134.38863 310.1375Q133.9355 309.7 133.21675 309.7Q132.45113 309.7 131.998 310.15314Q131.54488 310.60626 131.52925 311.41876L130.45113 311.3094Q130.5605 310.09064 131.27925 309.46564Q132.01363 308.825 133.248 308.825Q134.48238 308.825 135.20113 309.5125Q135.91988 310.2 135.91988 311.21564Q135.91988 311.73126 135.70113 312.23126Q135.498 312.71564 134.998 313.27814Q134.51363 313.825 133.38863 314.77814Q132.4355 315.575 132.15425 315.8719Q131.88863 316.15314 131.71675 316.4344L135.9355 316.4344Z" fill-rule="nonzero"/><path fill="#000000" d="M231.8193 317.45L231.8193 315.3875L228.10056 315.3875L228.10056 314.41876L232.02243 308.85626L232.8818 308.85626L232.8818 314.41876L234.03806 314.41876L234.03806 315.3875L232.8818 315.3875L232.8818 317.45L231.8193 317.45ZM231.8193 314.41876L231.8193 310.5594L229.1318 314.41876L231.8193 314.41876Z" fill-rule="nonzero"/><path fill="#000000" d="M331.96875 310.96564L330.92188 311.04376Q330.78125 310.41876 330.53125 310.1375Q330.09375 309.6844 329.46875 309.6844Q328.96875 309.6844 328.57812 309.96564Q328.09375 310.34064 327.79688 311.04376Q327.51562 311.73126 327.5 313.0125Q327.875 312.4344 328.42188 312.15314Q328.98438 311.8719 329.59375 311.8719Q330.64062 311.8719 331.375 312.65314Q332.125 313.4344 332.125 314.65314Q332.125 315.46564 331.76562 316.16876Q331.42188 316.85626 330.8125 317.23126Q330.20312 317.59064 329.4375 317.59064Q328.10938 317.59064 327.28125 316.6219Q326.45312 315.65314 326.45312 313.4344Q326.45312 310.9344 327.375 309.8094Q328.17188 308.825 329.53125 308.825Q330.54688 308.825 331.1875 309.40314Q331.84375 309.96564 331.96875 310.96564ZM327.67188 314.66876Q327.67188 315.21564 327.89062 315.71564Q328.125 316.2 328.53125 316.46564Q328.95312 316.73126 329.42188 316.73126Q330.07812 316.73126 330.5625 316.2Q331.04688 315.65314 331.04688 314.73126Q331.04688 313.84064 330.5625 313.325Q330.09375 312.8094 329.375 312.8094Q328.65625 312.8094 328.15625 313.325Q327.67188 313.84064 327.67188 314.66876Z" fill-rule="nonzero"/><path fill="#000000" d="M426.1807 312.79376Q425.52444 312.54376 425.19632 312.10626Q424.88382 311.65314 424.88382 311.04376Q424.88382 310.10626 425.5557 309.46564Q426.2432 308.825 427.35257 308.825Q428.47757 308.825 429.16507 309.48126Q429.85257 310.1375 429.85257 311.075Q429.85257 311.66876 429.54007 312.10626Q429.22757 312.54376 428.58694 312.79376Q429.38382 313.04376 429.79007 313.6219Q430.19632 314.2 430.19632 314.9969Q430.19632 316.09064 429.41507 316.84064Q428.64944 317.59064 427.3682 317.59064Q426.10257 317.59064 425.32132 316.84064Q424.54007 316.09064 424.54007 314.96564Q424.54007 314.1219 424.96194 313.5594Q425.39944 312.9969 426.1807 312.79376ZM425.96194 310.9969Q425.96194 311.60626 426.35257 311.9969Q426.75882 312.3875 427.38382 312.3875Q427.9932 312.3875 428.38382 312.0125Q428.77444 311.6219 428.77444 311.0594Q428.77444 310.48126 428.3682 310.09064Q427.96194 309.6844 427.3682 309.6844Q426.75882 309.6844 426.35257 310.075Q425.96194 310.46564 425.96194 310.9969ZM425.63382 314.96564Q425.63382 315.41876 425.83694 315.84064Q426.0557 316.2625 426.47757 316.4969Q426.89944 316.73126 427.38382 316.73126Q428.13382 316.73126 428.6182 316.2469Q429.1182 315.7625 429.1182 315.0125Q429.1182 314.2469 428.6182 313.7469Q428.1182 313.2469 427.35257 313.2469Q426.60257 313.2469 426.1182 313.7469Q425.63382 314.23126 425.63382 314.96564Z" fill-rule="nonzero"/><path fill="#000000" d="M523.08014 317.45L522.03326 317.45L522.03326 310.73126Q521.64264 311.09064 521.01764 311.46564Q520.40826 311.825 519.9239 311.9969L519.9239 310.98126Q520.7989 310.5594 521.45514 309.98126Q522.127 309.3875 522.40826 308.825L523.08014 308.825L523.08014 317.45ZM526.1114 313.21564Q526.1114 311.6844 526.4239 310.7625Q526.7364 309.825 527.34576 309.325Q527.97076 308.825 528.90826 308.825Q529.59576 308.825 530.1114 309.10626Q530.64264 309.3875 530.9864 309.91876Q531.33014 310.4344 531.51764 311.1844Q531.70514 311.9344 531.70514 313.21564Q531.70514 314.73126 531.39264 315.65314Q531.09576 316.575 530.47076 317.09064Q529.8614 317.59064 528.90826 317.59064Q527.6739 317.59064 526.95514 316.7Q526.1114 315.6375 526.1114 313.21564ZM527.1895 313.21564Q527.1895 315.325 527.6895 316.02814Q528.1895 316.73126 528.90826 316.73126Q529.64264 316.73126 530.127 316.02814Q530.627 315.325 530.627 313.21564Q530.627 311.09064 530.127 310.40314Q529.64264 309.7 528.89264 309.7Q528.1739 309.7 527.7364 310.3094Q527.1895 311.09064 527.1895 313.21564Z" fill-rule="nonzero"/><path fill="#5891ad" d="M209.5 85.916664C209.5 89.23038 206.8137 91.916664 203.5 91.916664C200.1863 91.916664 197.5 89.23038 197.5 85.916664C197.5 82.60296 200.1863 79.916664 203.5 79.916664C206.8137 79.916664 209.5 82.60296 209.5 85.916664Z" fill-rule="nonzero"/><path fill="#1a1a1a" d="M218.39062 89.916664L218.39062 81.322914L220.10938 81.322914L222.14062 87.40104Q222.42188 88.260414 222.54688 88.68229Q222.6875 88.21354 223.0 87.30729L225.0625 81.322914L226.59375 81.322914L226.59375 89.916664L225.5 89.916664L225.5 82.729164L223.0 89.916664L221.96875 89.916664L219.48438 82.604164L219.48438 89.916664L218.39062 89.916664ZM227.29688 82.541664L227.29688 81.322914L228.35938 81.322914L228.35938 82.541664L227.29688 82.541664ZM227.29688 89.916664L227.29688 83.697914L228.35938 83.697914L228.35938 89.916664L227.29688 89.916664ZM230.29688 89.916664L230.29688 83.697914L231.23438 83.697914L231.23438 84.572914Q231.92188 83.55729 233.21875 83.55729Q233.78125 83.55729 234.25 83.760414Q234.73438 83.96354 234.96875 84.291664Q235.20312 84.61979 235.29688 85.05729Q235.34375 85.354164 235.34375 86.08854L235.34375 89.916664L234.29688 89.916664L234.29688 86.135414Q234.29688 85.479164 234.17188 85.166664Q234.04688 84.854164 233.73438 84.666664Q233.42188 84.46354 233.0 84.46354Q232.32812 84.46354 231.82812 84.90104Q231.34375 85.322914 231.34375 86.510414L231.34375 89.916664L230.29688 89.916664ZM237.29688 82.541664L237.29688 81.322914L238.35938 81.322914L238.35938 82.541664L237.29688 82.541664ZM237.29688 89.916664L237.29688 83.697914L238.35938 83.697914L238.35938 89.916664L237.29688 89.916664ZM240.29688 89.916664L240.29688 83.697914L241.23438 83.697914L241.23438 84.572914Q241.53125 84.104164 242.01562 83.83854Q242.5 83.55729 243.125 83.55729Q243.8125 83.55729 244.25 83.83854Q244.70312 84.11979 244.875 84.635414Q245.625 83.55729 246.79688 83.55729Q247.73438 83.55729 248.21875 84.072914Q248.71875 84.572914 248.71875 85.65104L248.71875 89.916664L247.67188 89.916664L247.67188 85.99479Q247.67188 85.36979 247.5625 85.08854Q247.46875 84.80729 247.20312 84.635414Q246.9375 84.46354 246.5625 84.46354Q245.90625 84.46354 245.46875 84.90104Q245.04688 85.33854 245.04688 86.30729L245.04688 89.916664L243.98438 89.916664L243.98438 85.86979Q243.98438 85.166664 243.71875 84.822914Q243.46875 84.46354 242.89062 84.46354Q242.4375 84.46354 242.0625 84.697914Q241.6875 84.93229 241.51562 85.385414Q241.34375 85.83854 241.34375 86.68229L241.34375 89.916664L240.29688 89.916664ZM255.35938 89.15104Q254.76562 89.65104 254.21875 89.854164Q253.6875 90.05729 253.0625 90.05729Q252.03125 90.05729 251.48438 89.55729Q250.9375 89.05729 250.9375 88.27604Q250.9375 87.822914 251.14062 87.447914Q251.34375 87.05729 251.6875 86.83854Q252.03125 86.604164 252.45312 86.49479Q252.75 86.40104 253.39062 86.322914Q254.65625 86.18229 255.26562 85.96354Q255.26562 85.74479 255.26562 85.697914Q255.26562 85.041664 254.96875 84.77604Q254.5625 84.43229 253.76562 84.43229Q253.03125 84.43229 252.67188 84.697914Q252.3125 84.947914 252.14062 85.604164L251.10938 85.46354Q251.25 84.80729 251.57812 84.40104Q251.90625 83.99479 252.51562 83.77604Q253.125 83.55729 253.92188 83.55729Q254.71875 83.55729 255.21875 83.74479Q255.71875 83.93229 255.95312 84.21354Q256.1875 84.49479 256.28125 84.93229Q256.32812 85.197914 256.32812 85.90104L256.32812 87.30729Q256.32812 88.77604 256.39062 89.166664Q256.46875 89.55729 256.67188 89.916664L255.5625 89.916664Q255.40625 89.58854 255.35938 89.15104ZM255.26562 86.791664Q254.6875 87.02604 253.54688 87.197914Q252.89062 87.291664 252.625 87.416664Q252.35938 87.52604 252.20312 87.74479Q252.0625 87.96354 252.0625 88.24479Q252.0625 88.666664 252.375 88.947914Q252.70312 89.229164 253.3125 89.229164Q253.92188 89.229164 254.39062 88.96354Q254.875 88.697914 255.09375 88.229164Q255.26562 87.86979 255.26562 87.18229L255.26562 86.791664ZM257.59375 89.916664L259.85938 86.68229L257.76562 83.697914L259.07812 83.697914L260.03125 85.15104Q260.29688 85.572914 260.46875 85.854164Q260.71875 85.46354 260.9375 85.166664L261.98438 83.697914L263.25 83.697914L261.09375 86.61979L263.40625 89.916664L262.125 89.916664L260.84375 87.979164L260.5 87.46354L258.85938 89.916664L257.59375 89.916664Z" fill-rule="nonzero"/><path fill="#004561" d="M290.5 85.916664C290.5 89.23038 287.81372 91.916664 284.5 91.916664C281.18628 91.916664 278.5 89.23038 278.5 85.916664C278.5 82.60296 281.18628 79.916664 284.5 79.916664C287.81372 79.916664 290.5 82.60296 290.5 85.916664Z" fill-rule="nonzero"/><path fill="#1a1a1a" d="M298.48438 89.916664L301.78125 81.322914L303.0 81.322914L306.51562 89.916664L305.23438 89.916664L304.21875 87.30729L300.64062 87.30729L299.6875 89.916664L298.48438 89.916664ZM300.96875 86.385414L303.875 86.385414L302.98438 84.010414Q302.5625 82.93229 302.375 82.229164Q302.20312 83.05729 301.90625 83.86979L300.96875 86.385414ZM306.26562 89.916664L306.26562 81.322914L307.32812 81.322914L307.32812 89.916664L306.26562 89.916664ZM309.29688 92.30729L309.29688 83.697914L310.25 83.697914L310.25 84.49479Q310.59375 84.02604 311.01562 83.791664Q311.45312 83.55729 312.0625 83.55729Q312.85938 83.55729 313.46875 83.96354Q314.07812 84.36979 314.375 85.11979Q314.6875 85.86979 314.6875 86.760414Q314.6875 87.71354 314.34375 88.479164Q314.01562 89.24479 313.35938 89.65104Q312.70312 90.05729 311.98438 90.05729Q311.45312 90.05729 311.03125 89.83854Q310.60938 89.604164 310.34375 89.27604L310.34375 92.30729L309.29688 92.30729ZM310.25 86.83854Q310.25 88.041664 310.73438 88.61979Q311.21875 89.18229 311.90625 89.18229Q312.60938 89.18229 313.10938 88.58854Q313.60938 87.99479 313.60938 86.74479Q313.60938 85.55729 313.125 84.979164Q312.64062 84.385414 311.95312 84.385414Q311.28125 84.385414 310.76562 85.010414Q310.25 85.635414 310.25 86.83854ZM316.29688 89.916664L316.29688 81.322914L317.34375 81.322914L317.34375 84.40104Q318.07812 83.55729 319.20312 83.55729Q319.90625 83.55729 320.40625 83.83854Q320.92188 84.104164 321.14062 84.58854Q321.35938 85.05729 321.35938 85.979164L321.35938 89.916664L320.3125 89.916664L320.3125 85.979164Q320.3125 85.18229 319.96875 84.822914Q319.625 84.46354 319.0 84.46354Q318.53125 84.46354 318.10938 84.71354Q317.70312 84.947914 317.51562 85.36979Q317.34375 85.77604 317.34375 86.510414L317.34375 89.916664L316.29688 89.916664ZM327.35938 89.15104Q326.76562 89.65104 326.21875 89.854164Q325.6875 90.05729 325.0625 90.05729Q324.03125 90.05729 323.48438 89.55729Q322.9375 89.05729 322.9375 88.27604Q322.9375 87.822914 323.14062 87.447914Q323.34375 87.05729 323.6875 86.83854Q324.03125 86.604164 324.45312 86.49479Q324.75 86.40104 325.39062 86.322914Q326.65625 86.18229 327.26562 85.96354Q327.26562 85.74479 327.26562 85.697914Q327.26562 85.041664 326.96875 84.77604Q326.5625 84.43229 325.76562 84.43229Q325.03125 84.43229 324.67188 84.697914Q324.3125 84.947914 324.14062 85.604164L323.10938 85.46354Q323.25 84.80729 323.57812 84.40104Q323.90625 83.99479 324.51562 83.77604Q325.125 83.55729 325.92188 83.55729Q326.71875 83.55729 327.21875 83.74479Q327.71875 83.93229 327.95312 84.21354Q328.1875 84.49479 328.28125 84.93229Q328.32812 85.197914 328.32812 85.90104L328.32812 87.30729Q328.32812 88.77604 328.39062 89.166664Q328.46875 89.55729 328.67188 89.916664L327.5625 89.916664Q327.40625 89.58854 327.35938 89.15104ZM327.26562 86.791664Q326.6875 87.02604 325.54688 87.197914Q324.89062 87.291664 324.625 87.416664Q324.35938 87.52604 324.20312 87.74479Q324.0625 87.96354 324.0625 88.24479Q324.0625 88.666664 324.375 88.947914Q324.70312 89.229164 325.3125 89.229164Q325.92188 89.229164 326.39062 88.96354Q326.875 88.697914 327.09375 88.229164Q327.26562 87.86979 327.26562 87.18229L327.26562 86.791664ZM329.875 87.33854L329.875 86.27604L333.125 86.27604L333.125 87.33854L329.875 87.33854ZM335.26562 89.916664L334.28125 89.916664L334.28125 81.322914L335.34375 81.322914L335.34375 84.385414Q336.01562 83.55729 337.04688 83.55729Q337.625 83.55729 338.125 83.791664Q338.64062 84.010414 338.96875 84.43229Q339.3125 84.854164 339.5 85.447914Q339.6875 86.041664 339.6875 86.71354Q339.6875 88.30729 338.89062 89.18229Q338.09375 90.05729 337.0 90.05729Q335.89062 90.05729 335.26562 89.135414L335.26562 89.916664ZM335.25 86.760414Q335.25 87.86979 335.5625 88.36979Q336.0625 89.18229 336.90625 89.18229Q337.59375 89.18229 338.09375 88.58854Q338.60938 87.99479 338.60938 86.791664Q338.60938 85.572914 338.125 84.99479Q337.64062 84.416664 336.95312 84.416664Q336.26562 84.416664 335.75 85.02604Q335.25 85.61979 335.25 86.760414ZM345.54688 87.916664L346.64062 88.041664Q346.39062 88.99479 345.6875 89.52604Q344.98438 90.05729 343.90625 90.05729Q342.54688 90.05729 341.73438 89.21354Q340.9375 88.36979 340.9375 86.854164Q340.9375 85.291664 341.75 84.43229Q342.5625 83.55729 343.84375 83.55729Q345.09375 83.55729 345.875 84.40104Q346.67188 85.24479 346.67188 86.791664Q346.67188 86.885414 346.67188 87.072914L342.03125 87.072914Q342.09375 88.104164 342.60938 88.65104Q343.125 89.18229 343.90625 89.18229Q344.48438 89.18229 344.89062 88.885414Q345.3125 88.572914 345.54688 87.916664ZM342.09375 86.21354L345.5625 86.21354Q345.5 85.416664 345.17188 85.02604Q344.65625 84.416664 343.85938 84.416664Q343.125 84.416664 342.625 84.90104Q342.14062 85.385414 342.09375 86.21354ZM350.59375 88.979164L350.75 89.90104Q350.29688 89.99479 349.95312 89.99479Q349.375 89.99479 349.0625 89.822914Q348.75 89.635414 348.60938 89.33854Q348.48438 89.041664 348.48438 88.08854L348.48438 84.510414L347.71875 84.510414L347.71875 83.697914L348.48438 83.697914L348.48438 82.15104L349.53125 81.52604L349.53125 83.697914L350.59375 83.697914L350.59375 84.510414L349.53125 84.510414L349.53125 88.15104Q349.53125 88.604164 349.57812 88.729164Q349.64062 88.854164 349.76562 88.93229Q349.89062 89.010414 350.125 89.010414Q350.3125 89.010414 350.59375 88.979164ZM355.35938 89.15104Q354.76562 89.65104 354.21875 89.854164Q353.6875 90.05729 353.0625 90.05729Q352.03125 90.05729 351.48438 89.55729Q350.9375 89.05729 350.9375 88.27604Q350.9375 87.822914 351.14062 87.447914Q351.34375 87.05729 351.6875 86.83854Q352.03125 86.604164 352.45312 86.49479Q352.75 86.40104 353.39062 86.322914Q354.65625 86.18229 355.26562 85.96354Q355.26562 85.74479 355.26562 85.697914Q355.26562 85.041664 354.96875 84.77604Q354.5625 84.43229 353.76562 84.43229Q353.03125 84.43229 352.67188 84.697914Q352.3125 84.947914 352.14062 85.604164L351.10938 85.46354Q351.25 84.80729 351.57812 84.40104Q351.90625 83.99479 352.51562 83.77604Q353.125 83.55729 353.92188 83.55729Q354.71875 83.55729 355.21875 83.74479Q355.71875 83.93229 355.95312 84.21354Q356.1875 84.49479 356.28125 84.93229Q356.32812 85.197914 356.32812 85.90104L356.32812 87.30729Q356.32812 88.77604 356.39062 89.166664Q356.46875 89.55729 356.67188 89.916664L355.5625 89.916664Q355.40625 89.58854 355.35938 89.15104ZM355.26562 86.791664Q354.6875 87.02604 353.54688 87.197914Q352.89062 87.291664 352.625 87.416664Q352.35938 87.52604 352.20312 87.74479Q352.0625 87.96354 352.0625 88.24479Q352.0625 88.666664 352.375 88.947914Q352.70312 89.229164 353.3125 89.229164Q353.92188 89.229164 354.39062 88.96354Q354.875 88.697914 355.09375 88.229164Q355.26562 87.86979 355.26562 87.18229L355.26562 86.791664ZM361.29688 92.30729L361.29688 83.697914L362.25 83.697914L362.25 84.49479Q362.59375 84.02604 363.01562 83.791664Q363.45312 83.55729 364.0625 83.55729Q364.85938 83.55729 365.46875 83.96354Q366.07812 84.36979 366.375 85.11979Q366.6875 85.86979 366.6875 86.760414Q366.6875 87.71354 366.34375 88.479164Q366.01562 89.24479 365.35938 89.65104Q364.70312 90.05729 363.98438 90.05729Q363.45312 90.05729 363.03125 89.83854Q362.60938 89.604164 362.34375 89.27604L362.34375 92.30729L361.29688 92.30729ZM362.25 86.83854Q362.25 88.041664 362.73438 88.61979Q363.21875 89.18229 363.90625 89.18229Q364.60938 89.18229 365.10938 88.58854Q365.60938 87.99479 365.60938 86.74479Q365.60938 85.55729 365.125 84.979164Q364.64062 84.385414 363.95312 84.385414Q363.28125 84.385414 362.76562 85.010414Q362.25 85.635414 362.25 86.83854ZM368.28125 89.916664L368.28125 83.697914L369.23438 83.697914L369.23438 84.635414Q369.59375 83.979164 369.89062 83.77604Q370.20312 83.55729 370.57812 83.55729Q371.10938 83.55729 371.65625 83.885414L371.29688 84.86979Q370.90625 84.635414 370.53125 84.635414Q370.17188 84.635414 369.89062 84.854164Q369.625 85.05729 369.51562 85.43229Q369.32812 85.99479 369.32812 86.65104L369.32812 89.916664L368.28125 89.916664ZM376.375 89.916664L376.375 88.99479Q375.64062 90.05729 374.39062 90.05729Q373.84375 90.05729 373.35938 89.854164Q372.89062 89.635414 372.65625 89.322914Q372.42188 88.99479 372.32812 88.52604Q372.26562 88.229164 372.26562 87.541664L372.26562 83.697914L373.32812 83.697914L373.32812 87.15104Q373.32812 87.96354 373.39062 88.260414Q373.48438 88.666664 373.79688 88.916664Q374.125 89.15104 374.60938 89.15104Q375.07812 89.15104 375.48438 88.916664Q375.90625 88.666664 376.07812 88.24479Q376.26562 87.822914 376.26562 87.02604L376.26562 83.697914L377.3125 83.697914L377.3125 89.916664L376.375 89.916664ZM379.29688 89.916664L379.29688 83.697914L380.23438 83.697914L380.23438 84.572914Q380.92188 83.55729 382.21875 83.55729Q382.78125 83.55729 383.25 83.760414Q383.73438 83.96354 383.96875 84.291664Q384.20312 84.61979 384.29688 85.05729Q384.34375 85.354164 384.34375 86.08854L384.34375 89.916664L383.29688 89.916664L383.29688 86.135414Q383.29688 85.479164 383.17188 85.166664Q383.04688 84.854164 382.73438 84.666664Q382.42188 84.46354 382.0 84.46354Q381.32812 84.46354 380.82812 84.90104Q380.34375 85.322914 380.34375 86.510414L380.34375 89.916664L379.29688 89.916664ZM386.29688 82.541664L386.29688 81.322914L387.35938 81.322914L387.35938 82.541664L386.29688 82.541664ZM386.29688 89.916664L386.29688 83.697914L387.35938 83.697914L387.35938 89.916664L386.29688 89.916664ZM389.29688 89.916664L389.29688 83.697914L390.23438 83.697914L390.23438 84.572914Q390.92188 83.55729 392.21875 83.55729Q392.78125 83.55729 393.25 83.760414Q393.73438 83.96354 393.96875 84.291664Q394.20312 84.61979 394.29688 85.05729Q394.34375 85.354164 394.34375 86.08854L394.34375 89.916664L393.29688 89.916664L393.29688 86.135414Q393.29688 85.479164 393.17188 85.166664Q393.04688 84.854164 392.73438 84.666664Q392.42188 84.46354 392.0 84.46354Q391.32812 84.46354 390.82812 84.90104Q390.34375 85.322914 390.34375 86.510414L390.34375 89.916664L389.29688 89.916664ZM396.09375 90.43229L397.125 90.58854Q397.1875 91.05729 397.48438 91.27604Q397.875 91.572914 398.54688 91.572914Q399.28125 91.572914 399.67188 91.27604Q400.07812 90.979164 400.21875 90.46354Q400.3125 90.135414 400.29688 89.104164Q399.60938 89.916664 398.57812 89.916664Q397.29688 89.916664 396.59375 88.99479Q395.89062 88.05729 395.89062 86.77604Q395.89062 85.885414 396.20312 85.135414Q396.53125 84.36979 397.14062 83.96354Q397.75 83.55729 398.57812 83.55729Q399.6875 83.55729 400.40625 84.447914L400.40625 83.697914L401.375 83.697914L401.375 89.072914Q401.375 90.52604 401.07812 91.135414Q400.78125 91.74479 400.14062 92.08854Q399.5 92.447914 398.5625 92.447914Q397.45312 92.447914 396.76562 91.947914Q396.07812 91.447914 396.09375 90.43229ZM396.96875 86.697914Q396.96875 87.916664 397.45312 88.479164Q397.9375 89.041664 398.67188 89.041664Q399.40625 89.041664 399.89062 88.479164Q400.39062 87.916664 400.39062 86.729164Q400.39062 85.58854 399.875 85.010414Q399.375 84.43229 398.65625 84.43229Q397.95312 84.43229 397.45312 85.010414Q396.96875 85.572914 396.96875 86.697914Z" fill-rule="nonzero"/><path fill="#757575" d="M28.503124 26.7375L26.753124 26.878124Q26.51875 25.846874 26.096874 25.378124Q25.378124 24.6125 24.33125 24.6125Q23.4875 24.6125 22.8625 25.08125Q22.034374 25.690624 21.55 26.8625Q21.065624 28.01875 21.05 30.159374Q21.690624 29.20625 22.596874 28.7375Q23.51875 28.26875 24.534374 28.26875Q26.284374 28.26875 27.51875 29.565624Q28.753124 30.846874 28.753124 32.89375Q28.753124 34.253124 28.175 35.409374Q27.596874 36.565624 26.58125 37.190624Q25.565624 37.8 24.26875 37.8Q22.08125 37.8 20.690624 36.190624Q19.3 34.565624 19.3 30.846874Q19.3 26.70625 20.83125 24.815624Q22.175 23.175 24.440624 23.175Q26.128124 23.175 27.20625 24.128124Q28.284374 25.065624 28.503124 26.7375ZM21.33125 32.909374Q21.33125 33.815624 21.70625 34.64375Q22.096874 35.471874 22.784374 35.909374Q23.4875 36.346874 24.2375 36.346874Q25.3625 36.346874 26.159374 35.45625Q26.95625 34.55 26.95625 33.003124Q26.95625 31.51875 26.159374 30.675Q25.378124 29.815624 24.175 29.815624Q22.9875 29.815624 22.159374 30.675Q21.33125 31.51875 21.33125 32.909374ZM29.690624 37.55L33.4875 32.159374L29.9875 27.175L32.175 27.175L33.76875 29.6125Q34.221874 30.3 34.4875 30.76875Q34.925 30.128124 35.284374 29.628124L37.034374 27.175L39.128124 27.175L35.55 32.065624L39.409374 37.55L37.253124 37.55L35.1125 34.33125L34.55 33.45625L31.83125 37.55L29.690624 37.55ZM39.503124 25.1125L39.503124 23.425L48.76875 23.425L48.76875 24.784374Q47.39375 26.2375 46.05 28.659374Q44.70625 31.065624 43.9875 33.6125Q43.45625 35.409374 43.3 37.55L41.503124 37.55Q41.534374 35.8625 42.159374 33.471874Q42.8 31.08125 43.9875 28.8625Q45.175 26.628124 46.503124 25.1125L39.503124 25.1125ZM58.4875 37.55L56.8625 37.55L56.8625 23.2375L58.6125 23.2375L58.6125 28.346874Q59.7375 26.940624 61.45625 26.940624Q62.409374 26.940624 63.26875 27.33125Q64.12813 27.721874 64.675 28.425Q65.22188 29.1125 65.53438 30.096874Q65.84688 31.08125 65.84688 32.20625Q65.84688 34.878124 64.53438 36.33125Q63.221874 37.784374 61.378124 37.784374Q59.534374 37.784374 58.4875 36.253124L58.4875 37.55ZM58.471874 32.284374Q58.471874 34.14375 58.971874 34.9875Q59.815624 36.33125 61.221874 36.33125Q62.378124 36.33125 63.20625 35.33125Q64.05 34.33125 64.05 32.346874Q64.05 30.315624 63.2375 29.3625Q62.440624 28.39375 61.3 28.39375Q60.14375 28.39375 59.3 29.39375Q58.471874 30.39375 58.471874 32.284374ZM67.22188 32.3625Q67.22188 29.4875 68.81563 28.096874Q70.15938 26.940624 72.08125 26.940624Q74.22188 26.940624 75.56563 28.346874Q76.925 29.753124 76.925 32.221874Q76.925 34.221874 76.33125 35.378124Q75.7375 36.51875 74.58125 37.159374Q73.44063 37.784374 72.08125 37.784374Q69.89375 37.784374 68.55 36.39375Q67.22188 34.9875 67.22188 32.3625ZM69.01875 32.3625Q69.01875 34.3625 69.87813 35.346874Q70.75313 36.33125 72.08125 36.33125Q73.39375 36.33125 74.25313 35.346874Q75.12813 34.346874 75.12813 32.3Q75.12813 30.378124 74.25313 29.39375Q73.37813 28.39375 72.08125 28.39375Q70.75313 28.39375 69.87813 29.39375Q69.01875 30.378124 69.01875 32.3625ZM85.64375 36.26875Q84.65938 37.096874 83.75313 37.440624Q82.84688 37.784374 81.81563 37.784374Q80.1125 37.784374 79.19063 36.95625Q78.26875 36.1125 78.26875 34.815624Q78.26875 34.05 78.6125 33.425Q78.97188 32.8 79.53438 32.425Q80.09688 32.034374 80.8 31.83125Q81.31563 31.70625 82.3625 31.565624Q84.4875 31.315624 85.4875 30.971874Q85.50313 30.6125 85.50313 30.503124Q85.50313 29.440624 85.00313 28.9875Q84.33125 28.39375 83.00313 28.39375Q81.75313 28.39375 81.15938 28.83125Q80.58125 29.26875 80.3 30.378124L78.58125 30.14375Q78.81563 29.034374 79.34688 28.3625Q79.87813 27.675 80.89375 27.315624Q81.90938 26.940624 83.25313 26.940624Q84.58125 26.940624 85.40938 27.253124Q86.2375 27.565624 86.62813 28.05Q87.01875 28.51875 87.175 29.2375Q87.26875 29.690624 87.26875 30.8625L87.26875 33.20625Q87.26875 35.659374 87.37813 36.315624Q87.4875 36.95625 87.83125 37.55L85.9875 37.55Q85.72188 37.003124 85.64375 36.26875ZM85.4875 32.346874Q84.53438 32.7375 82.6125 33.003124Q81.53438 33.159374 81.08125 33.3625Q80.64375 33.55 80.39375 33.925Q80.14375 34.3 80.14375 34.76875Q80.14375 35.471874 80.675 35.940624Q81.20625 36.409374 82.2375 36.409374Q83.25313 36.409374 84.03438 35.971874Q84.83125 35.51875 85.20625 34.753124Q85.4875 34.14375 85.4875 32.9875L85.4875 32.346874ZM89.84688 37.55L89.84688 27.175L91.425 27.175L91.425 28.753124Q92.03438 27.64375 92.55 27.3Q93.06563 26.940624 93.675 26.940624Q94.56563 26.940624 95.4875 27.503124L94.87813 29.14375Q94.2375 28.753124 93.59688 28.753124Q93.01875 28.753124 92.55 29.1125Q92.09688 29.45625 91.89375 30.065624Q91.6125 31.003124 91.6125 32.1125L91.6125 37.55L89.84688 37.55ZM103.59688 37.55L103.59688 36.2375Q102.6125 37.784374 100.69063 37.784374Q99.45625 37.784374 98.40938 37.096874Q97.37813 36.409374 96.8 35.190624Q96.2375 33.971874 96.2375 32.378124Q96.2375 30.815624 96.75313 29.55Q97.26875 28.284374 98.3 27.6125Q99.34688 26.940624 100.6125 26.940624Q101.55 26.940624 102.28438 27.346874Q103.01875 27.7375 103.4875 28.3625L103.4875 23.2375L105.22188 23.2375L105.22188 37.55L103.59688 37.55ZM98.03438 32.378124Q98.03438 34.3625 98.87813 35.346874Q99.72188 36.33125 100.8625 36.33125Q102.01875 36.33125 102.81563 35.39375Q103.62813 34.45625 103.62813 32.51875Q103.62813 30.39375 102.8 29.39375Q101.9875 28.39375 100.78438 28.39375Q99.6125 28.39375 98.81563 29.3625Q98.03438 30.315624 98.03438 32.378124ZM108.33125 37.55L108.33125 35.55L110.33125 35.55L110.33125 37.55Q110.33125 38.659374 109.94063 39.33125Q109.55 40.01875 108.70625 40.378124L108.20625 39.628124Q108.76875 39.39375 109.03438 38.909374Q109.3 38.440624 109.33125 37.55L108.33125 37.55ZM121.78438 37.55L118.6125 27.175L120.425 27.175L122.08125 33.159374L122.69063 35.39375Q122.7375 35.221874 123.22188 33.253124L124.87813 27.175L126.69063 27.175L128.2375 33.190624L128.75313 35.175L129.34688 33.175L131.12813 27.175L132.83125 27.175L129.59688 37.55L127.76875 37.55L126.1125 31.33125L125.72188 29.565624L123.6125 37.55L121.78438 37.55ZM134.87813 25.253124L134.87813 23.2375L136.64375 23.2375L136.64375 25.253124L134.87813 25.253124ZM134.87813 37.55L134.87813 27.175L136.64375 27.175L136.64375 37.55L134.87813 37.55ZM138.8625 37.55L138.8625 27.175L140.45625 27.175L140.45625 28.659374Q141.59688 26.940624 143.75313 26.940624Q144.69063 26.940624 145.47188 27.284374Q146.26875 27.6125 146.65938 28.159374Q147.05 28.70625 147.20625 29.45625Q147.3 29.95625 147.3 31.175L147.3 37.55L145.53438 37.55L145.53438 31.2375Q145.53438 30.159374 145.33125 29.628124Q145.12813 29.096874 144.59688 28.784374Q144.08125 28.471874 143.37813 28.471874Q142.25313 28.471874 141.44063 29.190624Q140.62813 29.89375 140.62813 31.878124L140.62813 37.55L138.8625 37.55ZM148.8625 37.55L148.8625 27.175L150.45625 27.175L150.45625 28.659374Q151.59688 26.940624 153.75313 26.940624Q154.69063 26.940624 155.47188 27.284374Q156.26875 27.6125 156.65938 28.159374Q157.05 28.70625 157.20625 29.45625Q157.3 29.95625 157.3 31.175L157.3 37.55L155.53438 37.55L155.53438 31.2375Q155.53438 30.159374 155.33125 29.628124Q155.12813 29.096874 154.59688 28.784374Q154.08125 28.471874 153.37813 28.471874Q152.25313 28.471874 151.44063 29.190624Q150.62813 29.89375 150.62813 31.878124L150.62813 37.55L148.8625 37.55ZM158.87813 25.253124L158.87813 23.2375L160.64375 23.2375L160.64375 25.253124L158.87813 25.253124ZM158.87813 37.55L158.87813 27.175L160.64375 27.175L160.64375 37.55L158.87813 37.55ZM162.8625 37.55L162.8625 27.175L164.45625 27.175L164.45625 28.659374Q165.59688 26.940624 167.75313 26.940624Q168.69063 26.940624 169.47188 27.284374Q170.26875 27.6125 170.65938 28.159374Q171.05 28.70625 171.20625 29.45625Q171.3 29.95625 171.3 31.175L171.3 37.55L169.53438 37.55L169.53438 31.2375Q169.53438 30.159374 169.33125 29.628124Q169.12813 29.096874 168.59688 28.784374Q168.08125 28.471874 167.37813 28.471874Q166.25313 28.471874 165.44063 29.190624Q164.62813 29.89375 164.62813 31.878124L164.62813 37.55L162.8625 37.55ZM172.55 38.409374L174.25313 38.659374Q174.3625 39.45625 174.84688 39.815624Q175.50313 40.3 176.64375 40.3Q177.8625 40.3 178.51875 39.815624Q179.19063 39.33125 179.425 38.45625Q179.56563 37.909374 179.55 36.190624Q178.39375 37.55 176.675 37.55Q174.53438 37.55 173.3625 36.003124Q172.19063 34.45625 172.19063 32.3Q172.19063 30.815624 172.72188 29.565624Q173.26875 28.315624 174.28438 27.628124Q175.31563 26.940624 176.69063 26.940624Q178.51875 26.940624 179.72188 28.425L179.72188 27.175L181.33125 27.175L181.33125 36.14375Q181.33125 38.565624 180.83125 39.565624Q180.34688 40.58125 179.26875 41.159374Q178.20625 41.753124 176.64375 41.753124Q174.8 41.753124 173.64375 40.925Q172.50313 40.096874 172.55 38.409374ZM174.00313 32.175Q174.00313 34.221874 174.81563 35.159374Q175.62813 36.096874 176.84688 36.096874Q178.05 36.096874 178.8625 35.159374Q179.69063 34.221874 179.69063 32.2375Q179.69063 30.33125 178.84688 29.3625Q178.00313 28.39375 176.81563 28.39375Q175.64375 28.39375 174.81563 29.346874Q174.00313 30.3 174.00313 32.175ZM190.28438 37.55L190.28438 28.55L188.7375 28.55L188.7375 27.175L190.28438 27.175L190.28438 26.08125Q190.28438 25.034374 190.47188 24.51875Q190.72188 23.83125 191.3625 23.409374Q192.00313 22.9875 193.15938 22.9875Q193.90938 22.9875 194.8 23.159374L194.53438 24.690624Q193.9875 24.596874 193.50313 24.596874Q192.70625 24.596874 192.3625 24.940624Q192.03438 25.284374 192.03438 26.221874L192.03438 27.175L194.06563 27.175L194.06563 28.55L192.03438 28.55L192.03438 37.55L190.28438 37.55ZM202.64375 36.26875Q201.65938 37.096874 200.75313 37.440624Q199.84688 37.784374 198.81563 37.784374Q197.1125 37.784374 196.19063 36.95625Q195.26875 36.1125 195.26875 34.815624Q195.26875 34.05 195.6125 33.425Q195.97188 32.8 196.53438 32.425Q197.09688 32.034374 197.8 31.83125Q198.31563 31.70625 199.3625 31.565624Q201.4875 31.315624 202.4875 30.971874Q202.50313 30.6125 202.50313 30.503124Q202.50313 29.440624 202.00313 28.9875Q201.33125 28.39375 200.00313 28.39375Q198.75313 28.39375 198.15938 28.83125Q197.58125 29.26875 197.3 30.378124L195.58125 30.14375Q195.81563 29.034374 196.34688 28.3625Q196.87813 27.675 197.89375 27.315624Q198.90938 26.940624 200.25313 26.940624Q201.58125 26.940624 202.40938 27.253124Q203.2375 27.565624 203.62813 28.05Q204.01875 28.51875 204.175 29.2375Q204.26875 29.690624 204.26875 30.8625L204.26875 33.20625Q204.26875 35.659374 204.37813 36.315624Q204.4875 36.95625 204.83125 37.55L202.9875 37.55Q202.72188 37.003124 202.64375 36.26875ZM202.4875 32.346874Q201.53438 32.7375 199.6125 33.003124Q198.53438 33.159374 198.08125 33.3625Q197.64375 33.55 197.39375 33.925Q197.14375 34.3 197.14375 34.76875Q197.14375 35.471874 197.675 35.940624Q198.20625 36.409374 199.2375 36.409374Q200.25313 36.409374 201.03438 35.971874Q201.83125 35.51875 202.20625 34.753124Q202.4875 34.14375 202.4875 32.9875L202.4875 32.346874ZM213.64375 33.753124L215.3625 33.971874Q215.08125 35.76875 213.90938 36.784374Q212.75313 37.784374 211.05 37.784374Q208.925 37.784374 207.62813 36.39375Q206.33125 35.003124 206.33125 32.409374Q206.33125 30.721874 206.87813 29.471874Q207.44063 28.20625 208.58125 27.58125Q209.72188 26.940624 211.06563 26.940624Q212.75313 26.940624 213.81563 27.8Q214.89375 28.659374 215.20625 30.221874L213.4875 30.4875Q213.25313 29.440624 212.62813 28.925Q212.00313 28.39375 211.12813 28.39375Q209.8 28.39375 208.97188 29.346874Q208.14375 30.3 208.14375 32.346874Q208.14375 34.440624 208.94063 35.39375Q209.7375 36.33125 211.03438 36.33125Q212.06563 36.33125 212.75313 35.70625Q213.45625 35.065624 213.64375 33.753124ZM220.70625 35.971874L220.95625 37.534374Q220.22188 37.690624 219.62813 37.690624Q218.675 37.690624 218.14375 37.39375Q217.62813 37.08125 217.40938 36.596874Q217.19063 36.096874 217.19063 34.51875L217.19063 28.55L215.90938 28.55L215.90938 27.175L217.19063 27.175L217.19063 24.6125L218.94063 23.55L218.94063 27.175L220.70625 27.175L220.70625 28.55L218.94063 28.55L218.94063 34.6125Q218.94063 35.3625 219.03438 35.58125Q219.12813 35.784374 219.33125 35.925Q219.55 36.05 219.94063 36.05Q220.22188 36.05 220.70625 35.971874ZM222.22188 32.3625Q222.22188 29.4875 223.81563 28.096874Q225.15938 26.940624 227.08125 26.940624Q229.22188 26.940624 230.56563 28.346874Q231.925 29.753124 231.925 32.221874Q231.925 34.221874 231.33125 35.378124Q230.7375 36.51875 229.58125 37.159374Q228.44063 37.784374 227.08125 37.784374Q224.89375 37.784374 223.55 36.39375Q222.22188 34.9875 222.22188 32.3625ZM224.01875 32.3625Q224.01875 34.3625 224.87813 35.346874Q225.75313 36.33125 227.08125 36.33125Q228.39375 36.33125 229.25313 35.346874Q230.12813 34.346874 230.12813 32.3Q230.12813 30.378124 229.25313 29.39375Q228.37813 28.39375 227.08125 28.39375Q225.75313 28.39375 224.87813 29.39375Q224.01875 30.378124 224.01875 32.3625ZM233.84688 37.55L233.84688 27.175L235.425 27.175L235.425 28.753124Q236.03438 27.64375 236.55 27.3Q237.06563 26.940624 237.675 26.940624Q238.56563 26.940624 239.4875 27.503124L238.87813 29.14375Q238.2375 28.753124 237.59688 28.753124Q237.01875 28.753124 236.55 29.1125Q236.09688 29.45625 235.89375 30.065624Q235.6125 31.003124 235.6125 32.1125L235.6125 37.55L233.84688 37.55ZM252.01875 37.55L252.01875 34.128124L245.8 34.128124L245.8 32.503124L252.33125 23.2375L253.76875 23.2375L253.76875 32.503124L255.70625 32.503124L255.70625 34.128124L253.76875 34.128124L253.76875 37.55L252.01875 37.55ZM252.01875 32.503124L252.01875 26.05L247.53438 32.503124L252.01875 32.503124ZM258.33124 37.55L258.33124 35.55L260.33124 35.55L260.33124 37.55Q260.33124 38.659374 259.9406 39.33125Q259.55 40.01875 258.70624 40.378124L258.20624 39.628124Q258.76874 39.39375 259.03436 38.909374Q259.3 38.440624 259.33124 37.55L258.33124 37.55ZM269.8625 37.55L269.8625 27.175L271.4406 27.175L271.4406 28.628124Q271.925 27.878124 272.7375 27.409374Q273.55 26.940624 274.58124 26.940624Q275.7375 26.940624 276.47186 27.425Q277.20624 27.89375 277.51874 28.753124Q278.7531 26.940624 280.72186 26.940624Q282.26874 26.940624 283.09686 27.8Q283.925 28.659374 283.925 30.425L283.925 37.55L282.175 37.55L282.175 31.01875Q282.175 29.95625 282.0031 29.503124Q281.83124 29.034374 281.3781 28.753124Q280.9406 28.471874 280.33124 28.471874Q279.2375 28.471874 278.5031 29.20625Q277.78436 29.925 277.78436 31.51875L277.78436 37.55L276.03436 37.55L276.03436 30.815624Q276.03436 29.64375 275.59686 29.065624Q275.175 28.471874 274.1906 28.471874Q273.45624 28.471874 272.8156 28.8625Q272.1906 29.253124 271.90936 30.003124Q271.6281 30.753124 271.6281 32.175L271.6281 37.55L269.8625 37.55ZM292.64374 36.26875Q291.65936 37.096874 290.7531 37.440624Q289.84686 37.784374 288.8156 37.784374Q287.1125 37.784374 286.1906 36.95625Q285.26874 36.1125 285.26874 34.815624Q285.26874 34.05 285.6125 33.425Q285.97186 32.8 286.53436 32.425Q287.09686 32.034374 287.8 31.83125Q288.3156 31.70625 289.3625 31.565624Q291.4875 31.315624 292.4875 30.971874Q292.5031 30.6125 292.5031 30.503124Q292.5031 29.440624 292.0031 28.9875Q291.33124 28.39375 290.0031 28.39375Q288.7531 28.39375 288.15936 28.83125Q287.58124 29.26875 287.3 30.378124L285.58124 30.14375Q285.8156 29.034374 286.34686 28.3625Q286.8781 27.675 287.89374 27.315624Q288.90936 26.940624 290.2531 26.940624Q291.58124 26.940624 292.40936 27.253124Q293.2375 27.565624 293.6281 28.05Q294.01874 28.51875 294.175 29.2375Q294.26874 29.690624 294.26874 30.8625L294.26874 33.20625Q294.26874 35.659374 294.3781 36.315624Q294.4875 36.95625 294.83124 37.55L292.9875 37.55Q292.72186 37.003124 292.64374 36.26875ZM292.4875 32.346874Q291.53436 32.7375 289.6125 33.003124Q288.53436 33.159374 288.08124 33.3625Q287.64374 33.55 287.39374 33.925Q287.14374 34.3 287.14374 34.76875Q287.14374 35.471874 287.675 35.940624Q288.20624 36.409374 289.2375 36.409374Q290.2531 36.409374 291.03436 35.971874Q291.83124 35.51875 292.20624 34.753124Q292.4875 34.14375 292.4875 32.9875L292.4875 32.346874ZM295.6906 37.55L299.4875 32.159374L295.9875 27.175L298.175 27.175L299.76874 29.6125Q300.22186 30.3 300.4875 30.76875Q300.925 30.128124 301.28436 29.628124L303.03436 27.175L305.1281 27.175L301.55 32.065624L305.40936 37.55L303.2531 37.55L301.1125 34.33125L300.55 33.45625L297.83124 37.55L295.6906 37.55ZM305.1906 33.253124L305.1906 31.4875L310.58124 31.4875L310.58124 33.253124L305.1906 33.253124ZM312.8625 41.51875L312.8625 27.175L314.47186 27.175L314.47186 28.51875Q315.03436 27.7375 315.7375 27.346874Q316.45624 26.940624 317.47186 26.940624Q318.8 26.940624 319.8156 27.628124Q320.83124 28.315624 321.34686 29.565624Q321.8781 30.8 321.8781 32.284374Q321.8781 33.878124 321.3 35.159374Q320.7375 36.425 319.64374 37.1125Q318.55 37.784374 317.34686 37.784374Q316.47186 37.784374 315.76874 37.409374Q315.08124 37.034374 314.6281 36.471874L314.6281 41.51875L312.8625 41.51875ZM314.45624 32.425Q314.45624 34.425 315.26874 35.378124Q316.08124 36.33125 317.2375 36.33125Q318.40936 36.33125 319.2375 35.346874Q320.08124 34.3625 320.08124 32.26875Q320.08124 30.3 319.2531 29.315624Q318.4406 28.315624 317.3156 28.315624Q316.1906 28.315624 315.3156 29.378124Q314.45624 30.425 314.45624 32.425ZM323.83124 37.55L323.83124 23.2375L325.58124 23.2375L325.58124 37.55L323.83124 37.55ZM327.8781 25.253124L327.8781 23.2375L329.64374 23.2375L329.64374 25.253124L327.8781 25.253124ZM327.8781 37.55L327.8781 27.175L329.64374 27.175L329.64374 37.55L327.8781 37.55ZM338.97186 34.20625L340.78436 34.440624Q340.3625 36.01875 339.1906 36.909374Q338.03436 37.784374 336.22186 37.784374Q333.95624 37.784374 332.6125 36.39375Q331.28436 34.9875 331.28436 32.45625Q331.28436 29.83125 332.6281 28.39375Q333.97186 26.940624 336.1281 26.940624Q338.20624 26.940624 339.51874 28.3625Q340.84686 29.76875 340.84686 32.346874Q340.84686 32.503124 340.83124 32.815624L333.09686 32.815624Q333.1906 34.51875 334.0656 35.425Q334.9406 36.33125 336.2375 36.33125Q337.20624 36.33125 337.8781 35.83125Q338.5656 35.315624 338.97186 34.20625ZM333.1906 31.3625L338.9875 31.3625Q338.8781 30.065624 338.33124 29.409374Q337.4875 28.39375 336.14374 28.39375Q334.9406 28.39375 334.1125 29.20625Q333.28436 30.003124 333.1906 31.3625ZM342.15936 34.45625L343.90936 34.175Q344.05 35.221874 344.72186 35.784374Q345.39374 36.33125 346.59686 36.33125Q347.8 36.33125 348.3781 35.846874Q348.97186 35.346874 348.97186 34.690624Q348.97186 34.096874 348.45624 33.753124Q348.09686 33.51875 346.65936 33.159374Q344.72186 32.659374 343.97186 32.315624Q343.2375 31.95625 342.84686 31.33125Q342.45624 30.690624 342.45624 29.925Q342.45624 29.2375 342.76874 28.64375Q343.09686 28.05 343.64374 27.659374Q344.05 27.3625 344.7531 27.159374Q345.47186 26.940624 346.28436 26.940624Q347.5031 26.940624 348.425 27.3Q349.34686 27.64375 349.78436 28.253124Q350.22186 28.846874 350.39374 29.846874L348.675 30.08125Q348.55 29.284374 347.9875 28.846874Q347.425 28.39375 346.40936 28.39375Q345.1906 28.39375 344.675 28.8Q344.15936 29.190624 344.15936 29.721874Q344.15936 30.065624 344.3781 30.346874Q344.58124 30.628124 345.05 30.815624Q345.3156 30.909374 346.59686 31.253124Q348.47186 31.753124 349.20624 32.08125Q349.9406 32.39375 350.3625 33.003124Q350.78436 33.596874 350.78436 34.503124Q350.78436 35.378124 350.26874 36.159374Q349.7531 36.940624 348.78436 37.3625Q347.8156 37.784374 346.59686 37.784374Q344.58124 37.784374 343.51874 36.940624Q342.45624 36.096874 342.15936 34.45625ZM364.01874 37.55L364.01874 34.128124L357.8 34.128124L357.8 32.503124L364.33124 23.2375L365.76874 23.2375L365.76874 32.503124L367.70624 32.503124L367.70624 34.128124L365.76874 34.128124L365.76874 37.55L364.01874 37.55ZM364.01874 32.503124L364.01874 26.05L359.53436 32.503124L364.01874 32.503124ZM370.33124 37.55L370.33124 35.55L372.33124 35.55L372.33124 37.55Q372.33124 38.659374 371.9406 39.33125Q371.55 40.01875 370.70624 40.378124L370.20624 39.628124Q370.76874 39.39375 371.03436 38.909374Q371.3 38.440624 371.33124 37.55L370.33124 37.55ZM381.8625 37.55L381.8625 23.2375L383.6281 23.2375L383.6281 28.3625Q384.8625 26.940624 386.7375 26.940624Q387.8781 26.940624 388.72186 27.39375Q389.58124 27.846874 389.9406 28.659374Q390.3156 29.45625 390.3156 30.971874L390.3156 37.55L388.5656 37.55L388.5656 30.971874Q388.5656 29.659374 387.9875 29.065624Q387.40936 28.45625 386.3781 28.45625Q385.59686 28.45625 384.89374 28.8625Q384.20624 29.26875 383.90936 29.971874Q383.6281 30.659374 383.6281 31.878124L383.6281 37.55L381.8625 37.55ZM398.65936 37.55L398.65936 36.01875Q397.45624 37.784374 395.3781 37.784374Q394.45624 37.784374 393.65936 37.440624Q392.8625 37.08125 392.47186 36.55Q392.09686 36.01875 391.9406 35.2375Q391.83124 34.721874 391.83124 33.596874L391.83124 27.175L393.58124 27.175L393.58124 32.925Q393.58124 34.3 393.6906 34.784374Q393.8625 35.471874 394.39374 35.878124Q394.9406 36.26875 395.72186 36.26875Q396.51874 36.26875 397.20624 35.8625Q397.90936 35.45625 398.1906 34.76875Q398.4875 34.065624 398.4875 32.7375L398.4875 27.175L400.2375 27.175L400.2375 37.55L398.65936 37.55ZM401.8625 37.55L401.8625 27.175L403.4406 27.175L403.4406 28.628124Q403.925 27.878124 404.7375 27.409374Q405.55 26.940624 406.58124 26.940624Q407.7375 26.940624 408.47186 27.425Q409.20624 27.89375 409.51874 28.753124Q410.7531 26.940624 412.72186 26.940624Q414.26874 26.940624 415.09686 27.8Q415.925 28.659374 415.925 30.425L415.925 37.55L414.175 37.55L414.175 31.01875Q414.175 29.95625 414.0031 29.503124Q413.83124 29.034374 413.3781 28.753124Q412.9406 28.471874 412.33124 28.471874Q411.2375 28.471874 410.5031 29.20625Q409.78436 29.925 409.78436 31.51875L409.78436 37.55L408.03436 37.55L408.03436 30.815624Q408.03436 29.64375 407.59686 29.065624Q407.175 28.471874 406.1906 28.471874Q405.45624 28.471874 404.8156 28.8625Q404.1906 29.253124 403.90936 30.003124Q403.6281 30.753124 403.6281 32.175L403.6281 37.55L401.8625 37.55ZM424.64374 36.26875Q423.65936 37.096874 422.7531 37.440624Q421.84686 37.784374 420.8156 37.784374Q419.1125 37.784374 418.1906 36.95625Q417.26874 36.1125 417.26874 34.815624Q417.26874 34.05 417.6125 33.425Q417.97186 32.8 418.53436 32.425Q419.09686 32.034374 419.8 31.83125Q420.3156 31.70625 421.3625 31.565624Q423.4875 31.315624 424.4875 30.971874Q424.5031 30.6125 424.5031 30.503124Q424.5031 29.440624 424.0031 28.9875Q423.33124 28.39375 422.0031 28.39375Q420.7531 28.39375 420.15936 28.83125Q419.58124 29.26875 419.3 30.378124L417.58124 30.14375Q417.8156 29.034374 418.34686 28.3625Q418.8781 27.675 419.89374 27.315624Q420.90936 26.940624 422.2531 26.940624Q423.58124 26.940624 424.40936 27.253124Q425.2375 27.565624 425.6281 28.05Q426.01874 28.51875 426.175 29.2375Q426.26874 29.690624 426.26874 30.8625L426.26874 33.20625Q426.26874 35.659374 426.3781 36.315624Q426.4875 36.95625 426.83124 37.55L424.9875 37.55Q424.72186 37.003124 424.64374 36.26875ZM424.4875 32.346874Q423.53436 32.7375 421.6125 33.003124Q420.53436 33.159374 420.08124 33.3625Q419.64374 33.55 419.39374 33.925Q419.14374 34.3 419.14374 34.76875Q419.14374 35.471874 419.675 35.940624Q420.20624 36.409374 421.2375 36.409374Q422.2531 36.409374 423.03436 35.971874Q423.83124 35.51875 424.20624 34.753124Q424.4875 34.14375 424.4875 32.9875L424.4875 32.346874ZM428.8625 37.55L428.8625 27.175L430.45624 27.175L430.45624 28.659374Q431.59686 26.940624 433.7531 26.940624Q434.6906 26.940624 435.47186 27.284374Q436.26874 27.6125 436.65936 28.159374Q437.05 28.70625 437.20624 29.45625Q437.3 29.95625 437.3 31.175L437.3 37.55L435.53436 37.55L435.53436 31.2375Q435.53436 30.159374 435.33124 29.628124Q435.1281 29.096874 434.59686 28.784374Q434.08124 28.471874 433.3781 28.471874Q432.2531 28.471874 431.4406 29.190624Q430.6281 29.89375 430.6281 31.878124L430.6281 37.55L428.8625 37.55ZM446.4875 37.55L444.8625 37.55L444.8625 23.2375L446.6125 23.2375L446.6125 28.346874Q447.7375 26.940624 449.45624 26.940624Q450.40936 26.940624 451.26874 27.33125Q452.1281 27.721874 452.675 28.425Q453.22186 29.1125 453.53436 30.096874Q453.84686 31.08125 453.84686 32.20625Q453.84686 34.878124 452.53436 36.33125Q451.22186 37.784374 449.3781 37.784374Q447.53436 37.784374 446.4875 36.253124L446.4875 37.55ZM446.47186 32.284374Q446.47186 34.14375 446.97186 34.9875Q447.8156 36.33125 449.22186 36.33125Q450.3781 36.33125 451.20624 35.33125Q452.05 34.33125 452.05 32.346874Q452.05 30.315624 451.2375 29.3625Q450.4406 28.39375 449.3 28.39375Q448.14374 28.39375 447.3 29.39375Q446.47186 30.39375 446.47186 32.284374ZM455.83124 37.55L455.83124 23.2375L457.58124 23.2375L457.58124 37.55L455.83124 37.55ZM466.65936 37.55L466.65936 36.01875Q465.45624 37.784374 463.3781 37.784374Q462.45624 37.784374 461.65936 37.440624Q460.8625 37.08125 460.47186 36.55Q460.09686 36.01875 459.9406 35.2375Q459.83124 34.721874 459.83124 33.596874L459.83124 27.175L461.58124 27.175L461.58124 32.925Q461.58124 34.3 461.6906 34.784374Q461.8625 35.471874 462.39374 35.878124Q462.9406 36.26875 463.72186 36.26875Q464.51874 36.26875 465.20624 35.8625Q465.90936 35.45625 466.1906 34.76875Q466.4875 34.065624 466.4875 32.7375L466.4875 27.175L468.2375 27.175L468.2375 37.55L466.65936 37.55ZM476.97186 34.20625L478.78436 34.440624Q478.3625 36.01875 477.1906 36.909374Q476.03436 37.784374 474.22186 37.784374Q471.95624 37.784374 470.6125 36.39375Q469.28436 34.9875 469.28436 32.45625Q469.28436 29.83125 470.6281 28.39375Q471.97186 26.940624 474.1281 26.940624Q476.20624 26.940624 477.51874 28.3625Q478.84686 29.76875 478.84686 32.346874Q478.84686 32.503124 478.83124 32.815624L471.09686 32.815624Q471.1906 34.51875 472.0656 35.425Q472.9406 36.33125 474.2375 36.33125Q475.20624 36.33125 475.8781 35.83125Q476.5656 35.315624 476.97186 34.20625ZM471.1906 31.3625L476.9875 31.3625Q476.8781 30.065624 476.33124 29.409374Q475.4875 28.39375 474.14374 28.39375Q472.9406 28.39375 472.1125 29.20625Q471.28436 30.003124 471.1906 31.3625ZM481.33124 37.55L481.33124 35.55L483.33124 35.55L483.33124 37.55Q483.33124 38.659374 482.9406 39.33125Q482.55 40.01875 481.70624 40.378124L481.20624 39.628124Q481.76874 39.39375 482.03436 38.909374Q482.3 38.440624 482.33124 37.55L481.33124 37.55ZM499.64374 33.753124L501.3625 33.971874Q501.08124 35.76875 499.90936 36.784374Q498.7531 37.784374 497.05 37.784374Q494.925 37.784374 493.6281 36.39375Q492.33124 35.003124 492.33124 32.409374Q492.33124 30.721874 492.8781 29.471874Q493.4406 28.20625 494.58124 27.58125Q495.72186 26.940624 497.0656 26.940624Q498.7531 26.940624 499.8156 27.8Q500.89374 28.659374 501.20624 30.221874L499.4875 30.4875Q499.2531 29.440624 498.6281 28.925Q498.0031 28.39375 497.1281 28.39375Q495.8 28.39375 494.97186 29.346874Q494.14374 30.3 494.14374 32.346874Q494.14374 34.440624 494.9406 35.39375Q495.7375 36.33125 497.03436 36.33125Q498.0656 36.33125 498.7531 35.70625Q499.45624 35.065624 499.64374 33.753124ZM502.22186 32.3625Q502.22186 29.4875 503.8156 28.096874Q505.15936 26.940624 507.08124 26.940624Q509.22186 26.940624 510.5656 28.346874Q511.925 29.753124 511.925 32.221874Q511.925 34.221874 511.33124 35.378124Q510.7375 36.51875 509.58124 37.159374Q508.4406 37.784374 507.08124 37.784374Q504.89374 37.784374 503.55 36.39375Q502.22186 34.9875 502.22186 32.3625ZM504.01874 32.3625Q504.01874 34.3625 504.8781 35.346874Q505.7531 36.33125 507.08124 36.33125Q508.39374 36.33125 509.2531 35.346874Q510.1281 34.346874 510.1281 32.3Q510.1281 30.378124 509.2531 29.39375Q508.3781 28.39375 507.08124 28.39375Q505.7531 28.39375 504.8781 29.39375Q504.01874 30.378124 504.01874 32.3625ZM513.8625 37.55L513.8625 27.175L515.4406 27.175L515.4406 28.628124Q515.925 27.878124 516.7375 27.409374Q517.55 26.940624 518.58124 26.940624Q519.7375 26.940624 520.47186 27.425Q521.20624 27.89375 521.51874 28.753124Q522.7531 26.940624 524.72186 26.940624Q526.26874 26.940624 527.09686 27.8Q527.925 28.659374 527.925 30.425L527.925 37.55L526.175 37.55L526.175 31.01875Q526.175 29.95625 526.0031 29.503124Q525.83124 29.034374 525.3781 28.753124Q524.9406 28.471874 524.33124 28.471874Q523.2375 28.471874 522.5031 29.20625Q521.78436 29.925 521.78436 31.51875L521.78436 37.55L520.03436 37.55L520.03436 30.815624Q520.03436 29.64375 519.59686 29.065624Q519.175 28.471874 518.1906 28.471874Q517.45624 28.471874 516.8156 28.8625Q516.1906 29.253124 515.90936 30.003124Q515.6281 30.753124 515.6281 32.175L515.6281 37.55L513.8625 37.55ZM529.8625 41.51875L529.8625 27.175L531.47186 27.175L531.47186 28.51875Q532.03436 27.7375 532.7375 27.346874Q533.45624 26.940624 534.47186 26.940624Q535.8 26.940624 536.8156 27.628124Q537.83124 28.315624 538.34686 29.565624Q538.8781 30.8 538.8781 32.284374Q538.8781 33.878124 538.3 35.159374Q537.7375 36.425 536.64374 37.1125Q535.55 37.784374 534.34686 37.784374Q533.47186 37.784374 532.76874 37.409374Q532.08124 37.034374 531.6281 36.471874L531.6281 41.51875L529.8625 41.51875ZM531.45624 32.425Q531.45624 34.425 532.26874 35.378124Q533.08124 36.33125 534.2375 36.33125Q535.40936 36.33125 536.2375 35.346874Q537.08124 34.3625 537.08124 32.26875Q537.08124 30.3 536.2531 29.315624Q535.4406 28.315624 534.3156 28.315624Q533.1906 28.315624 532.3156 29.378124Q531.45624 30.425 531.45624 32.425ZM547.65936 37.55L547.65936 36.01875Q546.45624 37.784374 544.3781 37.784374Q543.45624 37.784374 542.65936 37.440624Q541.8625 37.08125 541.47186 36.55Q541.09686 36.01875 540.9406 35.2375Q540.83124 34.721874 540.83124 33.596874L540.83124 27.175L542.58124 27.175L542.58124 32.925Q542.58124 34.3 542.6906 34.784374Q542.8625 35.471874 543.39374 35.878124Q543.9406 36.26875 544.72186 36.26875Q545.51874 36.26875 546.20624 35.8625Q546.90936 35.45625 547.1906 34.76875Q547.4875 34.065624 547.4875 32.7375L547.4875 27.175L549.2375 27.175L549.2375 37.55L547.65936 37.55ZM554.70624 35.971874L554.95624 37.534374Q554.22186 37.690624 553.6281 37.690624Q552.675 37.690624 552.14374 37.39375Q551.6281 37.08125 551.40936 36.596874Q551.1906 36.096874 551.1906 34.51875L551.1906 28.55L549.90936 28.55L549.90936 27.175L551.1906 27.175L551.1906 24.6125L552.9406 23.55L552.9406 27.175L554.70624 27.175L554.70624 28.55L552.9406 28.55L552.9406 34.6125Q552.9406 35.3625 553.03436 35.58125Q553.1281 35.784374 553.33124 35.925Q553.55 36.05 553.9406 36.05Q554.22186 36.05 554.70624 35.971874ZM563.97186 34.20625L565.78436 34.440624Q565.3625 36.01875 564.1906 36.909374Q563.03436 37.784374 561.22186 37.784374Q558.95624 37.784374 557.6125 36.39375Q556.28436 34.9875 556.28436 32.45625Q556.28436 29.83125 557.6281 28.39375Q558.97186 26.940624 561.1281 26.940624Q563.20624 26.940624 564.51874 28.3625Q565.84686 29.76875 565.84686 32.346874Q565.84686 32.503124 565.83124 32.815624L558.09686 32.815624Q558.1906 34.51875 559.0656 35.425Q559.9406 36.33125 561.2375 36.33125Q562.20624 36.33125 562.8781 35.83125Q563.5656 35.315624 563.97186 34.20625ZM558.1906 31.3625L563.9875 31.3625Q563.8781 30.065624 563.33124 29.409374Q562.4875 28.39375 561.14374 28.39375Q559.9406 28.39375 559.1125 29.20625Q558.28436 30.003124 558.1906 31.3625ZM567.84686 37.55L567.84686 27.175L569.425 27.175L569.425 28.753124Q570.03436 27.64375 570.55 27.3Q571.0656 26.940624 571.675 26.940624Q572.5656 26.940624 573.4875 27.503124L572.8781 29.14375Q572.2375 28.753124 571.59686 28.753124Q571.01874 28.753124 570.55 29.1125Q570.09686 29.45625 569.89374 30.065624Q569.6125 31.003124 569.6125 32.1125L569.6125 37.55L567.84686 37.55Z" fill-rule="nonzero"/><path fill="#757575" d="M19.159374 58.45625L20.909374 58.175Q21.05 59.221874 21.721874 59.784374Q22.39375 60.33125 23.596874 60.33125Q24.8 60.33125 25.378124 59.846874Q25.971874 59.346874 25.971874 58.690624Q25.971874 58.096874 25.45625 57.753124Q25.096874 57.51875 23.659374 57.159374Q21.721874 56.659374 20.971874 56.315624Q20.2375 55.95625 19.846874 55.33125Q19.45625 54.690624 19.45625 53.925Q19.45625 53.2375 19.76875 52.64375Q20.096874 52.05 20.64375 51.659374Q21.05 51.3625 21.753124 51.159374Q22.471874 50.940624 23.284374 50.940624Q24.503124 50.940624 25.425 51.3Q26.346874 51.64375 26.784374 52.253124Q27.221874 52.846874 27.39375 53.846874L25.675 54.08125Q25.55 53.284374 24.9875 52.846874Q24.425 52.39375 23.409374 52.39375Q22.190624 52.39375 21.675 52.8Q21.159374 53.190624 21.159374 53.721874Q21.159374 54.065624 21.378124 54.346874Q21.58125 54.628124 22.05 54.815624Q22.315624 54.909374 23.596874 55.253124Q25.471874 55.753124 26.20625 56.08125Q26.940624 56.39375 27.3625 57.003124Q27.784374 57.596874 27.784374 58.503124Q27.784374 59.378124 27.26875 60.159374Q26.753124 60.940624 25.784374 61.3625Q24.815624 61.784374 23.596874 61.784374Q21.58125 61.784374 20.51875 60.940624Q19.45625 60.096874 19.159374 58.45625ZM33.70625 59.971874L33.95625 61.534374Q33.221874 61.690624 32.628124 61.690624Q31.675 61.690624 31.14375 61.39375Q30.628124 61.08125 30.409374 60.596874Q30.190624 60.096874 30.190624 58.51875L30.190624 52.55L28.909374 52.55L28.909374 51.175L30.190624 51.175L30.190624 48.6125L31.940624 47.55L31.940624 51.175L33.70625 51.175L33.70625 52.55L31.940624 52.55L31.940624 58.6125Q31.940624 59.3625 32.034374 59.58125Q32.128124 59.784374 32.33125 59.925Q32.55 60.05 32.940624 60.05Q33.221874 60.05 33.70625 59.971874ZM42.64375 60.26875Q41.659374 61.096874 40.753124 61.440624Q39.846874 61.784374 38.815624 61.784374Q37.1125 61.784374 36.190624 60.95625Q35.26875 60.1125 35.26875 58.815624Q35.26875 58.05 35.6125 57.425Q35.971874 56.8 36.534374 56.425Q37.096874 56.034374 37.8 55.83125Q38.315624 55.70625 39.3625 55.565624Q41.4875 55.315624 42.4875 54.971874Q42.503124 54.6125 42.503124 54.503124Q42.503124 53.440624 42.003124 52.9875Q41.33125 52.39375 40.003124 52.39375Q38.753124 52.39375 38.159374 52.83125Q37.58125 53.26875 37.3 54.378124L35.58125 54.14375Q35.815624 53.034374 36.346874 52.3625Q36.878124 51.675 37.89375 51.315624Q38.909374 50.940624 40.253124 50.940624Q41.58125 50.940624 42.409374 51.253124Q43.2375 51.565624 43.628124 52.05Q44.01875 52.51875 44.175 53.2375Q44.26875 53.690624 44.26875 54.8625L44.26875 57.20625Q44.26875 59.659374 44.378124 60.315624Q44.4875 60.95625 44.83125 61.55L42.9875 61.55Q42.721874 61.003124 42.64375 60.26875ZM42.4875 56.346874Q41.534374 56.7375 39.6125 57.003124Q38.534374 57.159374 38.08125 57.3625Q37.64375 57.55 37.39375 57.925Q37.14375 58.3 37.14375 58.76875Q37.14375 59.471874 37.675 59.940624Q38.20625 60.409374 39.2375 60.409374Q40.253124 60.409374 41.034374 59.971874Q41.83125 59.51875 42.20625 58.753124Q42.4875 58.14375 42.4875 56.9875L42.4875 56.346874ZM46.846874 61.55L46.846874 51.175L48.425 51.175L48.425 52.753124Q49.034374 51.64375 49.55 51.3Q50.065624 50.940624 50.675 50.940624Q51.565624 50.940624 52.4875 51.503124L51.878124 53.14375Q51.2375 52.753124 50.596874 52.753124Q50.01875 52.753124 49.55 53.1125Q49.096874 53.45625 48.89375 54.065624Q48.6125 55.003124 48.6125 56.1125L48.6125 61.55L46.846874 61.55ZM57.70625 59.971874L57.95625 61.534374Q57.221874 61.690624 56.628124 61.690624Q55.675 61.690624 55.14375 61.39375Q54.628124 61.08125 54.409374 60.596874Q54.190624 60.096874 54.190624 58.51875L54.190624 52.55L52.909374 52.55L52.909374 51.175L54.190624 51.175L54.190624 48.6125L55.940624 47.55L55.940624 51.175L57.70625 51.175L57.70625 52.55L55.940624 52.55L55.940624 58.6125Q55.940624 59.3625 56.034374 59.58125Q56.128124 59.784374 56.33125 59.925Q56.55 60.05 56.940624 60.05Q57.221874 60.05 57.70625 59.971874ZM59.159374 58.45625L60.909374 58.175Q61.05 59.221874 61.721874 59.784374Q62.39375 60.33125 63.596874 60.33125Q64.8 60.33125 65.37813 59.846874Q65.97188 59.346874 65.97188 58.690624Q65.97188 58.096874 65.45625 57.753124Q65.09688 57.51875 63.659374 57.159374Q61.721874 56.659374 60.971874 56.315624Q60.2375 55.95625 59.846874 55.33125Q59.45625 54.690624 59.45625 53.925Q59.45625 53.2375 59.76875 52.64375Q60.096874 52.05 60.64375 51.659374Q61.05 51.3625 61.753124 51.159374Q62.471874 50.940624 63.284374 50.940624Q64.50313 50.940624 65.425 51.3Q66.34688 51.64375 66.78438 52.253124Q67.22188 52.846874 67.39375 53.846874L65.675 54.08125Q65.55 53.284374 64.9875 52.846874Q64.425 52.39375 63.409374 52.39375Q62.190624 52.39375 61.675 52.8Q61.159374 53.190624 61.159374 53.721874Q61.159374 54.065624 61.378124 54.346874Q61.58125 54.628124 62.05 54.815624Q62.315624 54.909374 63.596874 55.253124Q65.47188 55.753124 66.20625 56.08125Q66.94063 56.39375 67.3625 57.003124Q67.78438 57.596874 67.78438 58.503124Q67.78438 59.378124 67.26875 60.159374Q66.75313 60.940624 65.78438 61.3625Q64.81563 61.784374 63.596874 61.784374Q61.58125 61.784374 60.51875 60.940624Q59.45625 60.096874 59.159374 58.45625Z" fill-rule="nonzero"/></svg>